<svg id="Слой_1" data-name="Слой 1" xmlns="http://www.w3.org/2000/svg" xmlns:xlink="http://www.w3.org/1999/xlink" viewBox="0 0 656.67 927.14"><defs><style>.cls-1{fill:#fdb64d;}.cls-2{fill:#e79319;}.cls-3{fill:#00796b;}.cls-4{fill:#805a26;}.cls-5{fill:#4eb4aa;}.cls-6{fill:#508553;}.cls-7{fill:#f8f8f8;}.cls-8{fill:#795548;}.cls-9{fill:#a9c748;}.cls-10{fill:#869e39;}.cls-11{fill:#93ad3e;}.cls-12{fill:#f7b683;}.cls-13{fill:#5c8965;}.cls-14{fill:#d3d5d8;}.cls-15{fill:#44664b;}.cls-16{fill:#c2c4c7;}.cls-17{fill:#892821;}.cls-18{fill:#9ab9cb;}.cls-19{fill:#3d3533;}.cls-20{fill:#afb316;}.cls-21{fill:#757575;}.cls-22{fill:#f14e25;}.cls-23{fill:#6d9d30;}.cls-24{fill:#fef200;}.cls-25{fill:#864b39;}.cls-26{fill:#9e2e25;}.cls-27{fill:url(#Безымянный_градиент_17);}.cls-28{fill:#d9a073;}.cls-29{fill:url(#Безымянный_градиент_17-2);}.cls-30{fill:#a88a5e;}.cls-31{fill:#705c3f;}.cls-32{fill:#005e66;}.cls-33{fill:#00474d;}.cls-34{fill:url(#Безымянный_градиент_17-3);}.cls-35{fill:#fec192;}.cls-36{fill:url(#Безымянный_градиент_25);}.cls-37{fill:#d48851;}.cls-38{fill:#e19c37;}.cls-39{fill:#cc7a2f;}.cls-40{fill:#d9482d;}.cls-41{fill:#c44029;}.cls-42{fill:#754c24;}.cls-43{fill:#fdf2e6;}.cls-44{fill:#53a7b8;}.cls-45{fill:#03252e;}.cls-46{fill:#fcf2e6;}.cls-47{fill:#fbb287;}.cls-48{fill:#f2997a;}.cls-49{fill:#eb8465;}.cls-50{fill:#c27c4c;}.cls-51{fill:#d9d9d9;}.cls-52{fill:#282f39;}.cls-53{fill:#37414f;}.cls-54{fill:#999;}.cls-55{fill:#ccc;}.cls-56{fill:#ab8c51;}.cls-57{fill:#b3b3b3;}.cls-58{fill:#fff;}.cls-59{fill:#541716;}.cls-60{fill:url(#Безымянный_градиент_17-4);}.cls-61{fill:#b08469;}.cls-62{fill:#dea785;}.cls-63{fill:#831b1a;}.cls-64{fill:#9a332c;}.cls-65{fill:#a7b853;}.cls-66{fill:url(#Безымянный_градиент_17-5);}.cls-67{fill:url(#Безымянный_градиент_25-2);}</style><linearGradient id="Безымянный_градиент_17" x1="175.26" y1="536.32" x2="207.72" y2="536.32" gradientTransform="matrix(0.99, -0.14, 0.14, 0.99, -32.49, 118.35)" gradientUnits="userSpaceOnUse"><stop offset="0.25" stop-color="#feb582"/><stop offset="0.52" stop-color="#fcb280"/><stop offset="0.71" stop-color="#f7a97b"/><stop offset="0.86" stop-color="#ef9a71"/><stop offset="1" stop-color="#e48665"/></linearGradient><linearGradient id="Безымянный_градиент_17-2" x1="-410.74" y1="246.99" x2="-365.58" y2="246.99" gradientTransform="translate(638.09 610.56) rotate(21.78)" xlink:href="#Безымянный_градиент_17"/><linearGradient id="Безымянный_градиент_17-3" x1="-6.08" y1="786.42" x2="40.1" y2="786.42" gradientTransform="matrix(1.02, 0.18, -0.19, 1.05, 363.66, -146.29)" xlink:href="#Безымянный_градиент_17"/><linearGradient id="Безымянный_градиент_25" x1="292.63" y1="214.41" x2="295.52" y2="239.16" gradientTransform="matrix(1.02, -0.2, 0.19, 0.98, -154.64, 407.66)" gradientUnits="userSpaceOnUse"><stop offset="0.25" stop-color="#feb582"/><stop offset="0.73" stop-color="#ee9870"/><stop offset="1" stop-color="#e48665"/></linearGradient><linearGradient id="Безымянный_градиент_17-4" x1="476.55" y1="349.17" x2="571.73" y2="349.17" gradientTransform="translate(-36.74 38.07) rotate(-4.19)" xlink:href="#Безымянный_градиент_17"/><linearGradient id="Безымянный_градиент_17-5" x1="545.93" y1="282.17" x2="545.93" y2="310.05" gradientTransform="translate(-126.59 201.15) rotate(-20.04)" xlink:href="#Безымянный_градиент_17"/><linearGradient id="Безымянный_градиент_25-2" x1="545.92" y1="310.05" x2="545.92" y2="304.46" gradientTransform="translate(-126.59 201.15) rotate(-20.04)" xlink:href="#Безымянный_градиент_25"/></defs><path class="cls-1" d="M644,802.07c-.14,0-.28,0-.43,0H628.16l-.36,0c0-.22,0-.45,0-.67q0-13.7,0-27.38a14.37,14.37,0,0,0-.24-2.78,12.22,12.22,0,0,0-14.11-9.63,12.2,12.2,0,0,0-10.05,12v28.42l-.36,0H587.6l-.43,0c0-.1,0-.2,0-.3V725.43c0-.2,0-.4,0-.61s0-.28,0-.42V704.46c0-.15,0-.29,0-.43l0-.13c.09-.11.18-.22.28-.32q13.9-13.92,27.82-27.82c.11-.11.23-.2.36-.32l.42.41,27.65,27.64c.13.13.24.27.36.41l0,.13c0,.18,0,.37,0,.55v19.7c0,.18,0,.36,0,.54s0,.57,0,.85V801.4C644,801.63,644,801.85,644,802.07ZM636,729.2a20.42,20.42,0,0,0-6-14.68,20.33,20.33,0,1,0,0,28.73A20,20,0,0,0,636,729.2Z" transform="translate(-53.28 -188.28)"/><path class="cls-2" d="M587.15,724.82c0,.21,0,.41,0,.61v76.34c0,.1,0,.2,0,.3-.24,0-.48,0-.73,0H530.21V725.58c0-.24,0-.49,0-.73H586.6A5.28,5.28,0,0,0,587.15,724.82Zm-44.7,44.74v20.3c1.4.12,11.7.07,12.13-.05V769.56Zm20.35,20.29c1.23.12,11.71.07,12.15,0V769.57H562.8ZM542.44,757.3h12.13V737.07H542.44Zm32.49,0V737.1H562.81v20.2Z" transform="translate(-53.28 -188.28)"/><path class="cls-2" d="M644,802.07c0-.22,0-.44,0-.67V725.67c0-.28,0-.56,0-.85.26,0,.52,0,.79,0H701c0,.22,0,.45,0,.67v76.55l-.56,0H644.58Zm24.35-12.2c.13-1.38.07-19.87,0-20.31H656.27v20.31Zm8.25-20.32v20.3h12.13c.13-1.88.07-19.85-.07-20.3ZM656.28,737.1v20.2H668.4V737.1Zm20.35,20.19h12.14c.12-1.52.06-19.75-.06-20.19H676.63Z" transform="translate(-53.28 -188.28)"/><path class="cls-3" d="M701,724.85H644.86c-.27,0-.53,0-.79,0,0-.18,0-.36,0-.54v-19.7c0-.18,0-.37,0-.55h.08l.46.4,7.07,7.07.52.51V700.47l.67,0H701c0,.16,0,.3,0,.43v23.61C701,724.61,701,724.73,701,724.85Z" transform="translate(-53.28 -188.28)"/><path class="cls-3" d="M587.15,724.82a5.28,5.28,0,0,1-.55,0H530.23c0-.18,0-.37,0-.55V700.48l.5,0h47.93l.37,0v11.41l.18.11a3,3,0,0,1,.35-.5l7.07-7.07c.14-.14.3-.26.45-.4h.08c0,.14,0,.28,0,.43V724.4C587.16,724.54,587.15,724.68,587.15,724.82Z" transform="translate(-53.28 -188.28)"/><path class="cls-4" d="M603.41,802.08V773.66a12.2,12.2,0,0,1,24.16-2.41,14.37,14.37,0,0,1,.24,2.78q0,13.68,0,27.38c0,.22,0,.45,0,.67l-.49,0H603.9Z" transform="translate(-53.28 -188.28)"/><path class="cls-5" d="M587.06,704c-.15.14-.31.26-.45.4l-7.07,7.07a3,3,0,0,0-.35.5l-.18-.11V700.47c.21-.19.43-.36.63-.56l35.4-35.4c.17-.18.31-.38.5-.62l.59.57,35.44,35.45c.2.2.42.37.63.56V712l-.52-.51-7.07-7.07-.46-.4-.1-.12c-.12-.14-.23-.28-.36-.41L616,675.85l-.42-.41c-.13.12-.25.21-.36.32q-13.92,13.9-27.82,27.82c-.1.1-.19.21-.28.32Z" transform="translate(-53.28 -188.28)"/><path class="cls-6" d="M587.06,704l.1-.12,0,.13Z" transform="translate(-53.28 -188.28)"/><path class="cls-6" d="M644.05,703.9l.1.12h-.08Z" transform="translate(-53.28 -188.28)"/><path class="cls-4" d="M542.45,769.56h12.13v20.25c-.43.12-10.73.17-12.13.05Z" transform="translate(-53.28 -188.28)"/><path class="cls-4" d="M562.8,789.85V769.57H575v20.24C574.51,789.92,564,790,562.8,789.85Z" transform="translate(-53.28 -188.28)"/><path class="cls-4" d="M542.44,757.3V737.07h12.13V757.3Z" transform="translate(-53.28 -188.28)"/><path class="cls-4" d="M574.93,757.3H562.81V737.1h12.12Z" transform="translate(-53.28 -188.28)"/><path class="cls-4" d="M668.39,789.87H656.27V769.56h12.07C668.46,770,668.52,788.49,668.39,789.87Z" transform="translate(-53.28 -188.28)"/><path class="cls-4" d="M676.64,769.55H688.7c.14.45.2,18.42.07,20.3H676.64Z" transform="translate(-53.28 -188.28)"/><path class="cls-4" d="M656.28,737.1H668.4v20.2H656.28Z" transform="translate(-53.28 -188.28)"/><path class="cls-4" d="M676.63,757.29V737.1h12.08c.12.44.18,18.67.06,20.19Z" transform="translate(-53.28 -188.28)"/><path class="cls-7" d="M630,714.52a20.33,20.33,0,1,0,0,28.73,20,20,0,0,0,6-14A20.42,20.42,0,0,0,630,714.52Z" transform="translate(-53.28 -188.28)"/><path class="cls-8" d="M619.68,727.86c1.41,0,2.73,0,4.05,0a4,4,0,0,1,4,3.49,4,4,0,0,1-3.15,4.55,3.34,3.34,0,0,1-.78.05c-2.72,0-5.45,0-8.17,0a4.06,4.06,0,0,1-4.05-4c0-2.8,0-5.61,0-8.41a4,4,0,0,1,7.39-2,3.76,3.76,0,0,1,.69,2.09c0,1.2,0,2.4,0,3.6C619.66,727.38,619.67,727.58,619.68,727.86Z" transform="translate(-53.28 -188.28)"/><path class="cls-9" d="M90,1008s-68,14-17,54,239,48,346,53,122-36,74-80c-27.2-24.94,28.8-29.11,43.14-30.91,27.45-3.44,60.91,2.77,86.61-9.42,27.42-13,30.78-39.27,37.54-67.06C668.47,894,778,763,643,767c-137,4.06-144,101-330,165C208.59,967.93,90,1008,90,1008Z" transform="translate(-53.28 -188.28)"/><path class="cls-10" d="M611.46,900.27s4.91-23.35-20.06-30.67c0,0,29.21.82,31.79,27.79,0,0-10.57-47,2.44-70.11,0,0-.08,44.83,8.57,67.5,0,0,15.69-17.17,13.51-39,0,0,9.44,17.69.4,35.87C648.11,891.66,631.87,917.35,611.46,900.27Z" transform="translate(-53.28 -188.28)"/><path class="cls-10" d="M70.68,1006.05s6.86-22.86-17.4-32.27c0,0,29,3.29,29.33,30.39,0,0-6.55-47.78,8.36-69.65,0,0-3.87,44.66,2.84,68,0,0,17.08-15.78,16.75-37.71,0,0,7.91,18.43-2.63,35.78C107.93,1000.56,89.57,1024.79,70.68,1006.05Z" transform="translate(-53.28 -188.28)"/><path class="cls-11" d="M153.33,996.6s-50.56,16.29-8.49,24,185.68-18.87,267.46-33.83,89.82-33.52,49.69-43.3c-22.73-5.54,19.51-16.05,30.27-19,20.59-5.7,46.54-8.54,65.08-17.42,19.79-9.48,20.18-20.38,23-32.42C583.85,860,596.5,810,554.05,814c-46.7,4.36-157.15,91.18-237.39,117.35S153.33,996.6,153.33,996.6Z" transform="translate(-53.28 -188.28)"/><path class="cls-12" d="M270.94,727.22s-6.8,21.54-2.28,44.76c2.71,14,16.74,28.72,18.47,39.24l17.84-.66s-6.38-19.49-12.55-38.72c-3.36-10.49,8.68-19,10.05-29.45Z" transform="translate(-53.28 -188.28)"/><path class="cls-13" d="M285.1,805.39s-20.09,16.5-10.32,33c0,0,9.68-1.6,20-13.85s13.83-19,13.83-19-1.61-9.68-8.64-7.93C299.92,797.66,288.85,805.06,285.1,805.39Z" transform="translate(-53.28 -188.28)"/><path class="cls-14" d="M275.57,840.25l-.79-1.83a54.6,54.6,0,0,0,23.33-18c9.83-13.28,10.45-14.85,10.45-14.85s3.13,1.24,3,3.9c0,0-5.06,19.29-32.28,32.13A2.74,2.74,0,0,1,275.57,840.25Z" transform="translate(-53.28 -188.28)"/><path class="cls-15" d="M281,821.43l-1.09.47a2.89,2.89,0,0,0-3.92-1.54l-.47-1.09A4,4,0,0,1,281,821.43Z" transform="translate(-53.28 -188.28)"/><path class="cls-15" d="M285.14,816.24l-1.63-.26c.09-.59,0-1-.21-1.16-.71-.55-2.95,0-4.24.57l-.65-1.5c.68-.3,4.17-1.71,5.9-.37A2.66,2.66,0,0,1,285.14,816.24Z" transform="translate(-53.28 -188.28)"/><path class="cls-15" d="M290.56,803l4.41,7.17S286.91,827.5,273,834.4l.91,2.44.84,1.58s22.13-14.79,28.79-29.37c0,0,5.66-7.08-3.65-11.39C299.92,797.66,293.88,801.88,290.56,803Z" transform="translate(-53.28 -188.28)"/><path class="cls-16" d="M308.56,805.59s-1.67,11.11-6.19,15.66c-7.95,8-18.67,18.11-18.67,18.11s12.8-5.67,19.4-15.42,9.39-12.27,8.44-14.45S311.21,805.74,308.56,805.59Z" transform="translate(-53.28 -188.28)"/><path class="cls-17" d="M266.7,739.27l-5,25.72,6.43,21s31.68,3,40.54.8c2.78-.71-2.72-9.12-2.93-18.62-.45-20.84,4.58-47.79,4.58-47.79l-20.74-9.63Z" transform="translate(-53.28 -188.28)"/><rect class="cls-18" x="179.5" y="812.85" width="3.2" height="83.26" transform="translate(-429.45 -6.39) rotate(-27.68)"/><rect class="cls-18" x="165.76" y="824.58" width="3.2" height="83.26" transform="translate(-707.39 356.2) rotate(-57.68)"/><rect class="cls-18" x="218.2" y="814.25" width="3.2" height="83.26" transform="matrix(0.82, 0.57, -0.57, 0.82, 470.22, -162.22)"/><rect class="cls-18" x="195.84" y="806.09" width="3.2" height="83.26" transform="translate(-51.19 -188.76) rotate(0.14)"/><rect class="cls-18" x="233.43" y="824.34" width="3.2" height="83.26" transform="translate(839.47 67.32) rotate(62.32)"/><rect class="cls-18" x="227.8" y="845.15" width="3.2" height="83.26" transform="translate(1067.51 487.73) rotate(91.2)"/><rect class="cls-18" x="227.74" y="863.43" width="3.2" height="83.26" transform="translate(1078.74 955.26) rotate(119.02)"/><rect class="cls-18" x="167.56" y="843.52" width="3.2" height="83.26" transform="translate(1001.44 529.9) rotate(90.14)"/><rect class="cls-18" x="167.2" y="861.79" width="3.2" height="83.26" transform="translate(837.16 146.04) rotate(62.32)"/><rect class="cls-18" x="176.73" y="873.06" width="3.2" height="83.26" transform="translate(-213.35 1594.72) rotate(-147.68)"/><rect class="cls-18" x="195.66" y="882.06" width="3.43" height="72.47" transform="translate(-51.02 -188.76) rotate(0.14)"/><rect class="cls-18" x="213.94" y="871.62" width="3.2" height="83.26" transform="translate(-452.81 16.33) rotate(-27.68)"/><path class="cls-19" d="M224.66,792.76c-21.35-4.49-46.83-.2-68.32,11.07-46.6,24.44-65.95,79.37-43.23,122.69,8.61,16.4,27,29.21,42.89,37,26,12.7,53.67,12.43,82.63-2.76,25.1-13.16,42.3-35.18,49.26-59.46,6-20.79,4.44-43.25-6-63.23C269.61,814.68,249.6,798,224.66,792.76Zm3.59,148.18c-34.85,18.28-76.87,6.83-93.87-25.57s-2.52-73.49,32.33-91.77,76.88-6.82,93.87,25.58S263.1,922.66,228.25,940.94Z" transform="translate(-53.28 -188.28)"/><path class="cls-20" d="M354.72,819.34a4.41,4.41,0,0,1-4.11-2.81,86.58,86.58,0,0,1-4.41-35c1.48-17.91,9.84-42.72,41.28-59.21,31.22-16.38,55.33-12,70.06-5.49a67.74,67.74,0,0,1,24.88,18.59,4.4,4.4,0,1,1-7,5.34c-1.28-1.66-30.62-38.56-83.85-10.64C369.29,741.76,357,759.2,355,781.9a79.05,79.05,0,0,0,3.83,31.46,4.4,4.4,0,0,1-4.11,6Z" transform="translate(-53.28 -188.28)"/><path class="cls-21" d="M193.23,956.39c-26.94,0-52.32-13.61-65-37.79-9.08-17.31-10.38-37.37-3.65-56.47a82.26,82.26,0,0,1,97.77-51.28c19.55,5.32,35.31,17.79,44.39,35.1h0c18.69,35.63,2.83,80.92-35.36,100.95A82.09,82.09,0,0,1,193.23,956.39Zm8.53-140.78a74.7,74.7,0,0,0-34.69,8.68,73.19,73.19,0,0,0-35.41,40.33c-6,17.12-4.89,35,3.21,50.49,16.77,32,58.5,43.25,93,25.14s49-58.85,32.2-90.82h0c-8.09-15.44-22.2-26.57-39.71-31.34A70.78,70.78,0,0,0,201.76,815.61Z" transform="translate(-53.28 -188.28)"/><rect class="cls-18" x="410.27" y="734.29" width="2.39" height="62.27" transform="translate(-361.73 90.42) rotate(-27.68)"/><rect class="cls-18" x="400" y="743.06" width="2.39" height="62.27" transform="translate(-520.83 510.99) rotate(-57.68)"/><rect class="cls-18" x="439.22" y="735.33" width="2.39" height="62.27" transform="translate(458.39 -302.92) rotate(34.51)"/><rect class="cls-18" x="422.49" y="729.23" width="2.39" height="62.27" transform="translate(-51.41 -189.32) rotate(0.14)"/><rect class="cls-18" x="450.61" y="742.88" width="2.39" height="62.27" transform="translate(874.12 -173.89) rotate(62.32)"/><rect class="cls-18" x="446.4" y="758.45" width="2.39" height="62.27" transform="translate(1193.1 170.34) rotate(91.2)"/><rect class="cls-18" x="446.35" y="772.12" width="2.39" height="62.27" transform="translate(1313.78 613.25) rotate(119.02)"/><rect class="cls-18" x="401.34" y="757.23" width="2.39" height="62.27" transform="translate(1138.61 199.49) rotate(90.14)"/><rect class="cls-18" x="401.07" y="770.89" width="2.39" height="62.27" transform="translate(872.4 -115.02) rotate(62.32)"/><rect class="cls-18" x="408.2" y="779.32" width="2.39" height="62.27" transform="translate(268.72 1525.96) rotate(-147.68)"/><rect class="cls-18" x="422.36" y="786.05" width="2.57" height="54.2" transform="translate(-51.28 -189.32) rotate(0.14)"/><rect class="cls-18" x="436.03" y="778.25" width="2.39" height="62.27" transform="translate(-379.2 107.42) rotate(-27.68)"/><path class="cls-19" d="M444.05,719.26c-16-3.35-35-.15-51.1,8.28-34.84,18.28-49.32,59.36-32.32,91.76,6.43,12.27,20.21,21.85,32.07,27.64,19.47,9.5,40.14,9.3,61.8-2.06a73.52,73.52,0,0,0,36.84-44.48,63.38,63.38,0,0,0-4.52-47.28C477.67,735.66,462.7,723.18,444.05,719.26Zm2.69,110.83c-26.07,13.67-57.5,5.1-70.21-19.13s-1.88-55,24.18-68.63,57.5-5.1,70.21,19.13S472.8,816.42,446.74,830.09Z" transform="translate(-53.28 -188.28)"/><path class="cls-21" d="M420.53,841.68a58.78,58.78,0,0,1-15.41-2,52.06,52.06,0,0,1-35.92-68.48,61.53,61.53,0,0,1,73.13-38.36A52.5,52.5,0,0,1,475.52,759c14,26.65,2.12,60.52-26.44,75.5A61.46,61.46,0,0,1,420.53,841.68Zm6.4-105.33a55.76,55.76,0,0,0-25.95,6.5A54.67,54.67,0,0,0,374.5,773a46.44,46.44,0,0,0,32.1,61.2,54.69,54.69,0,0,0,39.87-4.64c25.82-13.54,36.62-44,24.08-67.92a46.87,46.87,0,0,0-29.7-23.44A53,53,0,0,0,426.93,736.35Z" transform="translate(-53.28 -188.28)"/><path class="cls-20" d="M208.55,734.57q-14.88,7.8-29.83,7.87a55.17,55.17,0,0,1-37.44-14.39,5.6,5.6,0,0,1,7.95-7.9,44.64,44.64,0,0,0,29.65,11.08c16.14-.13,32.78-8.87,49.46-26a5.6,5.6,0,1,1,8,7.83Q222.59,727.21,208.55,734.57Z" transform="translate(-53.28 -188.28)"/><path class="cls-22" d="M236.84,700.49c-2.2-2.18-5-2.06-7.16.14-6.52,6.59-14.26,16.8-20.71,20.85.68,3.55,2.84,6.77,5.73,9.64,7.27-4.54,17-12.66,24.14-19.92C241,709,239,702.67,236.84,700.49Z" transform="translate(-53.28 -188.28)"/><circle class="cls-18" cx="146.71" cy="698.78" r="10.81"/><path class="cls-22" d="M168,729.8c-11.67-3-13.79-9-15.28-10.49-5.84-6-9.17-1.68-11.37.47a5.61,5.61,0,0,0-.1,7.93,53.61,53.61,0,0,0,20,11.81A16.18,16.18,0,0,1,168,729.8Z" transform="translate(-53.28 -188.28)"/><path class="cls-20" d="M198.87,892.14a7.2,7.2,0,0,1-7.16-6.51L177.27,737.19a7.21,7.21,0,0,1,14.35-1.4l14.43,148.44a7.21,7.21,0,0,1-6.48,7.87A5.48,5.48,0,0,1,198.87,892.14Z" transform="translate(-53.28 -188.28)"/><path class="cls-20" d="M304.09,837.61c-6.63,0-12.94-2-17.64-7.44-3.16-3.68-6.43-8-9.89-12.62-11.45-15.21-25.69-34.14-43.28-37.1a184.11,184.11,0,0,0-42.59-2.34,4.41,4.41,0,0,1-4.79-3.9l-2.17-19.65a4.4,4.4,0,0,1,3.1-4.7c1.58-.48,38.93-11.53,61.46,3.75,7.29,4.94,14.68,11.38,21.83,17.61,12,10.47,25.62,22.33,33.18,20.7a133.92,133.92,0,0,0,13.92-3.87c6.17-2,10.63-3.45,13.83.14.71.8,2.89,3.25,10.51,32a4.41,4.41,0,0,1-1.84,4.8C338.65,825.75,320.4,837.61,304.09,837.61ZM201.2,768.93a204.84,204.84,0,0,1,33.54,2.83c21,3.55,36.47,24,48.85,40.49,3.38,4.49,6.56,8.72,9.54,12.18,8.47,9.87,29.05.82,39.07-5.08-2.69-10-5.84-20.57-7.39-24.39-1.22.28-3.13.9-4.88,1.46a140.36,140.36,0,0,1-14.78,4.11c-11.87,2.56-25.28-9.13-40.82-22.67-6.95-6.06-14.14-12.32-21-17-15.45-10.48-41.12-5.74-50.45-3.52l1.29,11.7C196,769,198.38,768.93,201.2,768.93Z" transform="translate(-53.28 -188.28)"/><path class="cls-20" d="M422.24,793a4.41,4.41,0,0,1-2.37-.7l-84.49-54.22a4.4,4.4,0,1,1,4.76-7.41l84.49,54.22a4.41,4.41,0,0,1-2.39,8.11Z" transform="translate(-53.28 -188.28)"/><path class="cls-23" d="M430.54,791.92c-5.64,6.34-18.35,12.23-21.57,14.29L384.8,821.68C373.27,829.06,362,837.25,349.54,843c-9.58,4.4-20.25,9.81-31.11,7.93s-20.75-11.37-24-21.63c-9-28.57,34.09-37.72,53.18-41.62,14.14-2.9,28.42-5,42.74-6.83,12-1.5,27.32-7.09,38.62-.36C434.81,783.92,434,788,430.54,791.92Z" transform="translate(-53.28 -188.28)"/><rect class="cls-22" x="336.86" y="844.71" width="23.22" height="12.81" rx="3.6" transform="translate(-408.74 70.96) rotate(-27.68)"/><path class="cls-23" d="M190.07,763c1.19,7-8.9,14.66-12.75,15.32s-7.94-4.45-9.14-11.42.95-13.16,4.8-13.82S188.87,756,190.07,763Z" transform="translate(-53.28 -188.28)"/><ellipse class="cls-24" cx="174.44" cy="766.06" rx="7.07" ry="12.81" transform="translate(-180.57 -147.64) rotate(-9.76)"/><path class="cls-25" d="M347.37,713s5-.81,7.64,5.94,3.79,10.67-5.46,13.71c-8.42,2.77-13.32,3.69-23.75,8.88a9.38,9.38,0,0,1-9-.19c-2.31-1.38-3.51-3.69.89-7.35C326.51,726.68,331.67,715.84,347.37,713Z" transform="translate(-53.28 -188.28)"/><path class="cls-12" d="M310.89,754.78s3.37,19.57,14.51,43.14c5.17,10.93,15,21.4,21.54,33.54l17.19-4.55S356.58,803,351.27,792c-4.95-10.2-4-21.16-4.61-31.15Z" transform="translate(-53.28 -188.28)"/><path class="cls-17" d="M318.89,694.57s27.62,8.95,24.63,29.58,11.94,58.58,11.94,58.58l-36.61,12.06-20.45-45-18.47-13.94Z" transform="translate(-53.28 -188.28)"/><path class="cls-26" d="M313.62,699.63s23.81,7.23,21.57,25,11.14,50,11.14,50l-31.16,10.9-18.23-38.24-16.05-11.65Z" transform="translate(-53.28 -188.28)"/><path class="cls-27" d="M212.83,615.21,219.89,627c.33,1.24.17,6.1-1.35,7l-.21.12a42.7,42.7,0,0,0,8.12.5,52.44,52.44,0,0,0,21.11-5.16c-5.23-5.5-12.35-12.72-17.28-16.71Z" transform="translate(-53.28 -188.28)"/><polygon class="cls-28" points="195.73 432 217.17 433.01 210.11 415.73 192.57 422.77 195.73 432"/><path class="cls-29" d="M205.59,658.57S177,686.88,170.11,700.81l-15,11.94-6.8,16.69,11.28.66,7-14,3.76,6.63a17.63,17.63,0,0,0,4.41-11.06s24.76-10.62,38-24.56C212.77,687.08,233.57,654.36,205.59,658.57Z" transform="translate(-53.28 -188.28)"/><path class="cls-30" d="M241.83,617.31a31.49,31.49,0,0,1,16.2-26.6c11.47-6.36,26.47-11.46,35.17-1.55,15.49,17.62,71,60.39,50.2,79.56s-25.82,19.94-25.82,19.94l-75.75-71.35Z" transform="translate(-53.28 -188.28)"/><path class="cls-31" d="M251.1,608s13.2-16.6,26.73-.08,57.14,60.9,49.26,69.83-10.72,8.27-10.72,8.27L247.61,622Z" transform="translate(-53.28 -188.28)"/><path class="cls-32" d="M271.23,621.64,284,631.71l47.14,49.35c-14.53,33.79-64,55.44-64,55.44-30.31-21.72-32.7-56-32.7-56l-3.73-10.68L217,679s-18.45-12.54-16.45-19.2c8.25-27.42,17.77-25.46,17.77-25.46,24.45-5.35,21.79-14,21.79-14S255.84,615.16,271.23,621.64Z" transform="translate(-53.28 -188.28)"/><path class="cls-33" d="M278.94,629.62s42.79,53.46,22.89,86.13a81.25,81.25,0,0,0,29.49-34.25Z" transform="translate(-53.28 -188.28)"/><path class="cls-30" d="M268.71,595.14l-.6.25c-17.31,7.5-22.75,32.29-12,47.78,16.37,23.53,37.68,43.28,66.15,28.74l7-5.73,2.75,3.56S314.3,689.08,299.23,688s-50.1-13-60.31-54.2C234.28,615,255,600.59,255,600.59Z" transform="translate(-53.28 -188.28)"/><path class="cls-34" d="M247.18,642.63s-23.29,36-27.39,52l-8.2,10.12L207,710.51,205.78,715l-2.45,9.28,12.55,5.19,3.46-18.05.53,11.81c5.43,1.95,6.24-17,6.88-18.26,0,0,23-16.62,33.61-34.14C260.36,670.82,274.78,632,247.18,642.63Z" transform="translate(-53.28 -188.28)"/><path class="cls-33" d="M240,653.81s17,2.44,24.16,13.89c0,0,16.81-17,11.68-38.41S240.72,628.21,240,653.81Z" transform="translate(-53.28 -188.28)"/><path class="cls-31" d="M311.34,621.85l-.91.66c-.29-.4-28.7-39.17-48.44-28.58-11.74,6.3-15.08,13.75-15.11,13.82l-1-.45c.14-.31,3.53-7.88,15.6-14.36C282.06,581.89,310.15,620.21,311.34,621.85Z" transform="translate(-53.28 -188.28)"/><path class="cls-31" d="M311,622.67s8.93,11.56,6.59,4.85S311,622.67,311,622.67Z" transform="translate(-53.28 -188.28)"/><path class="cls-35" d="M129.61,538.38c-.57,11.29.22,25.12,5.23,37.13,0,0-9.16,25.2,14.08,43.32C177.33,641,234,624.35,254.33,598.58c0,0,21.73-30.64-.07-48.31,0,0,7.07-43-25.24-54.51,0,0-32-19.6-78.18,7.6A43.14,43.14,0,0,0,129.61,538.38Z" transform="translate(-53.28 -188.28)"/><path class="cls-12" d="M146.27,552.39c-1.36.23-4.44,19.56,3.06,25.33,5.36,4.13,18.49,1.2,29.74-6.4s22.84-5.05,30-4c3.14.46,8.78-.16,14.13-1,7.27-1.16,12.4-7,11.38-12.88l-.41-8.58c-.54-3.13-2.53-7.85-5.82-9.37-8.89-4.11-29.35-8.24-51.34-.76C146.69,545.05,146.27,552.39,146.27,552.39Z" transform="translate(-53.28 -188.28)"/><path class="cls-36" d="M178.72,573s.36-1.28,1.18-3.63c1.4-4.06,5.32-1.91,6.62-4.25,5.55-10,7.28-10.55,8.35.62a15.59,15.59,0,0,0,1.81,4.46s-.66,7.41-6.53,8.79C186,580,180.11,578.19,178.72,573Z" transform="translate(-53.28 -188.28)"/><path class="cls-37" d="M186.34,553.51c3.75,5.84.4,10.39-5.07,12.82-1.23.54-2.43.63-3.15,2-1.54,2.84,1.68,7.21,3.66,8.93,6,5.19,15.61,1.85,15.42-6.46a.48.48,0,0,0-1,0c.22,9.61-12,10.07-16.11,3-3.23-5.55,2.71-6,5.69-8.57,3.74-3.21,3.9-8.17,1.35-12.14-.33-.52-1.17,0-.83.48Z" transform="translate(-53.28 -188.28)"/><path class="cls-38" d="M136.74,557.58s5.64,13-2.88,11.54-7.58-3-11.77.44c0,0-6.21-1.82-6.79-12.82,0,0-9.11-12.46-9.85-31.77,0,0-13.42,4.86-15.82-10s8.51-20.74,8.51-20.74-14-6.15-4.86-22.83S110,457.68,110,457.68s-12.14-9.21-6.8-12.81,10.11,4,10.11,4,1.14-22.37,18.47-25.06,15.45.38,15.45.38-7.51-9.93.14-13.89,11.33-3.15,16.32,5.79c0,0,.35-12.54,7-8s6.36,10.11,6.36,10.11,8.66-12.44,20.86-10.17S218.1,422.9,218.1,422.9s9.38-15.32,13.93-9.09,2.18,13.53,2.18,13.53,22-3.4,26.43,9.78,3.05,18.94-1.86,25.25c0,0,12.43,3.62,7.74,11.29s-10.9,5.85-10.9,5.85,6.08,15.7,3.63,29.95c0,0,9,4.16,2.9,10.65,0,0-2.45,14.25-12.56,10.27,0,0-7.84-.87-4.52-9.71,0,0-12.64-5-8.17-14,0,0-7.87,2.61-8.24-7,0,0-6.34,12.08-10.83-1.1,0,0-23.39,9.17-23.26-4.72,0,0-5.69,16.14-12,6,0,0-12.84,15.86-14.58,5,0,0,1.74,10.82-10.69,7.2,0,0-16.3,16.4-19.63,3,0,0,7.51,9.94.8,12.36,0,0,8.45,8.4.37,9.66C138.79,537.15,150.86,553.31,136.74,557.58Z" transform="translate(-53.28 -188.28)"/><path class="cls-39" d="M136.41,448.74s-1.23-15.07,13.5-11.8c0,0-9.47-9.2-15.67-1.73C130.27,440,136.41,448.74,136.41,448.74Z" transform="translate(-53.28 -188.28)"/><path class="cls-39" d="M112.82,478.75s-10.18,3-1.72,11.36c0,0-12.43.84-9.83-9.57C102.71,474.77,112.82,478.75,112.82,478.75Z" transform="translate(-53.28 -188.28)"/><path class="cls-39" d="M199.8,430.59s1.94-10,7.22-6.66,4.77,7.58,4.77,7.58,4.25-10.87-3.55-14.71C201.81,413.64,199.15,426.53,199.8,430.59Z" transform="translate(-53.28 -188.28)"/><path class="cls-39" d="M237.07,441.46s5.84-7.84,11,9.4c0,0,2.8-19.86-7.66-18.23C235.76,433.34,237.07,441.46,237.07,441.46Z" transform="translate(-53.28 -188.28)"/><path class="cls-39" d="M119.73,551.2s-1.45,14.07,5,16.56c0,0,1.57.25,6.88.92,0,0,5.37-6.28-.84-8.09,0,0,13.27-13.15.92-23.72,0,0,8.8-4.14,1.94-10,0,0,4-4.78-2.18-13.54,0,0,3.1-10.19,8.59-5.49s17.77,0,20.58-4.58,10.62-.25,16.68-6.74,18.83-15.41,22.95-11.88,15.39,7.32,19.07,8.14,20.94,5.08,20.94,5.08-3.38,15.78,3.77,16.06l3.9,2.17s-2.44,14.25,4.05,10.47,4.47-9,4.47-9,6.21,1.81,1.44-5.77c0,0-3.76-16.06-2.76-24.54S250.6,474,251.6,465.57c0,0-9.09,9.73-12.64-5,0,0-20.64,11.52-23.54.87s-2-5.23-2-5.23-5,13.25-13.94,9.09-9.89-2.63-14.66-10.21c0,0-.86,16.78-15.37,14.87S151,465.9,151,465.9s.3,16.59-11.68,15.68l-12-.92s-.58,13.49-20.13,29.48C105.12,511.85,117.84,532.07,119.73,551.2Z" transform="translate(-53.28 -188.28)"/><path class="cls-40" d="M113.48,553.64s27.52-42.24,83-45.59,65.9,9.51,65.9,9.51.32-22-2.73-30c0,0-33.6-24.65-81.26-12.33s-60.91,32.7-71.19,47.34C107.17,522.54,103.4,544.87,113.48,553.64Z" transform="translate(-53.28 -188.28)"/><path class="cls-41" d="M109.6,523.71s9.79-20.1,21.06-23.81c0,0-25.95,33.85-14.3,34.24s13.36-19,41.15-20c0,0-33.21,18-40.94,35.13,0,0-5.76.49-6.85-24.18Z" transform="translate(-53.28 -188.28)"/><path class="cls-42" d="M204.42,545.67c1.1,8.82,8.07,15.21,16.58,14.28,6.71-.73,9.83-7.41,9.82-16.28a98.36,98.36,0,0,0-1.4-14.91s-6.42-1.66-9.13-1.32C206.86,529.12,203.31,536.84,204.42,545.67Z" transform="translate(-53.28 -188.28)"/><path class="cls-43" d="M204.56,546.39c2.11,17.25,7.61,19.19,17.68,15.3,8.9-3.44,9.5-9.61,8.4-18.43s-2.54-15-14.67-13C209.46,531.29,203.48,537.56,204.56,546.39Z" transform="translate(-53.28 -188.28)"/><path class="cls-44" d="M224.15,550c.6,6.73-2.63,12.42-7.56,12.86s-9.68-4.54-10.28-11.26,2.91-12.54,7.84-13S223.55,543.31,224.15,550Z" transform="translate(-53.28 -188.28)"/><ellipse class="cls-45" cx="215.23" cy="550.83" rx="8.12" ry="9.02" transform="translate(-188.6 -113.74) rotate(-15.01)"/><ellipse class="cls-46" cx="217.96" cy="544.31" rx="3.1" ry="3.41" transform="translate(-100.85 -166.73) rotate(-5.1)"/><path class="cls-42" d="M171.57,552c2.24,8.6-1.85,17.12-10.1,19.41-6.51,1.8-11.89-3.24-15.16-11.49a97.79,97.79,0,0,1-4.22-14.37s5.35-3.91,8-4.6C163.17,537.52,169.33,543.37,171.57,552Z" transform="translate(-53.28 -188.28)"/><path class="cls-43" d="M171.71,552.7c4.43,16.8,0,20.65-10.76,20.76-9.53.1-12.38-5.4-14.62-14s-3.22-14.91,8.79-17.54C161.56,540.49,169.44,544.1,171.71,552.7Z" transform="translate(-53.28 -188.28)"/><path class="cls-44" d="M154.86,563.34c1.93,6.47,7,10.56,11.79,9.14s7.3-7.8,5.37-14.27-7.34-10.57-12.08-9.15S152.93,556.87,154.86,563.34Z" transform="translate(-53.28 -188.28)"/><ellipse class="cls-45" cx="163.44" cy="560.78" rx="8.12" ry="9.02" transform="translate(-117.94 -165.23) rotate(-6.74)"/><ellipse class="cls-46" cx="158.49" cy="555.73" rx="3.1" ry="3.41" transform="translate(-205.81 -119.6) rotate(-16.64)"/><ellipse class="cls-39" cx="152.75" cy="528.08" rx="12.71" ry="3.61" transform="translate(-358.01 34.98) rotate(-40.19)"/><ellipse class="cls-38" cx="152.41" cy="526.28" rx="12.71" ry="3.61" transform="matrix(0.76, -0.65, 0.65, 0.76, -356.93, 34.33)"/><ellipse class="cls-39" cx="210.67" cy="512.98" rx="3.68" ry="12.49" transform="translate(-396.61 349.52) rotate(-70.24)"/><ellipse class="cls-38" cx="210.33" cy="511.18" rx="3.68" ry="12.49" transform="translate(-395.15 348.01) rotate(-70.24)"/><path class="cls-47" d="M251.19,532.38s11.16-23.85,23.63-12.63-1.36,39.47-19,28.75C255.86,548.5,251.36,544.79,251.19,532.38Z" transform="translate(-53.28 -188.28)"/><path class="cls-48" d="M254.5,539.83s7.28.33,3.77,6.88c0,0,12.35,5.51,18.27-3.84,6.29-9.92.4-23.33-7.88-22.53C259.43,521.23,258.24,525,254.5,539.83Z" transform="translate(-53.28 -188.28)"/><path class="cls-49" d="M259.73,524.31s18.64.36,14.94,20.86c0,0-4.62,5.58-16.4,1.54,0,0,2.4-3.06.34-5.07a5.59,5.59,0,0,0-4.11-1.81S255.79,527.38,259.73,524.31Z" transform="translate(-53.28 -188.28)"/><path class="cls-47" d="M132.2,557.77s-22.93-12.95-26.57,3.43,24,31.34,32.13,12.39C137.76,573.59,139.27,568,132.2,557.77Z" transform="translate(-53.28 -188.28)"/><path class="cls-48" d="M133.83,565.75s-5.73,4.5.93,7.79c0,0-6.86,11.65-17.1,7.49-10.89-4.43-13.88-18.77-6.68-22.92C119,553.47,122.16,555.83,133.83,565.75Z" transform="translate(-53.28 -188.28)"/><path class="cls-49" d="M120.56,556.15s-15,11.12,0,25.66c0,0,7,1.86,14.25-8.27,0,0-3.73-1.09-3.22-3.93a5.57,5.57,0,0,1,2.29-3.86S125.55,556.36,120.56,556.15Z" transform="translate(-53.28 -188.28)"/><path class="cls-48" d="M247.28,562.65c.91,4.76,2.26,17.13-6.42,18.8s-20.46-8.54-21.38-13.3,5.39-10,14.08-11.64S246.37,557.89,247.28,562.65Z" transform="translate(-53.28 -188.28)"/><path class="cls-48" d="M165.85,577.33c1.38,7.22-7,15.37-13.41,16.61s-10.59-.21-12-7.43,2.7-14.07,9.13-15.31S164.46,570.11,165.85,577.33Z" transform="translate(-53.28 -188.28)"/><path class="cls-50" d="M181.66,592.15c3.19-.61,6.19-1.17,9.11-1.86a49.58,49.58,0,0,0,8.32-2.64,29.8,29.8,0,0,0,3.76-1.95,31.07,31.07,0,0,0,3.53-2.43,17.8,17.8,0,0,0,3-3,10.16,10.16,0,0,0,1.94-4,7.6,7.6,0,0,1,.08,5,13.53,13.53,0,0,1-2.44,4.53,20.58,20.58,0,0,1-3.66,3.51,21.93,21.93,0,0,1-4.4,2.57,25.71,25.71,0,0,1-9.7,2A23.86,23.86,0,0,1,181.66,592.15Z" transform="translate(-53.28 -188.28)"/><path class="cls-13" d="M345.11,822.64S320,829.34,322,848.43c0,0,9.48,2.55,23.89-4.34s20.45-11.54,20.45-11.54,2.56-9.48-4.57-10.8C361.79,821.75,348.66,823.9,345.11,822.64Z" transform="translate(-53.28 -188.28)"/><path class="cls-14" d="M322,850.42l0-2a54.68,54.68,0,0,0,28.68-6.69c14.45-8,15.66-9.19,15.66-9.19s2.34,2.43,1.11,4.79c0,0-12.61,15.46-42.71,15.86A2.74,2.74,0,0,1,322,850.42Z" transform="translate(-53.28 -188.28)"/><path class="cls-15" d="M334.75,835.56l-1.19,0a2.88,2.88,0,0,0-2.92-3l0-1.2A4,4,0,0,1,334.75,835.56Z" transform="translate(-53.28 -188.28)"/><path class="cls-15" d="M340.64,832.53l-1.37-.91c.33-.49.42-.88.29-1.14-.43-.8-2.7-1.21-4.1-1.23l0-1.65c.74,0,4.5.18,5.52,2.11A2.66,2.66,0,0,1,340.64,832.53Z" transform="translate(-53.28 -188.28)"/><path class="cls-15" d="M351.06,822.75l1,8.35s-14.51,12.41-30,12.94l-.18,2.6.11,1.79s26.27-4.29,38.37-14.79c0,0,8.09-4.1,1.4-11.89C361.79,821.75,354.55,823.09,351.06,822.75Z" transform="translate(-53.28 -188.28)"/><path class="cls-16" d="M366.36,832.55s-6.12,9.42-12.12,11.69c-10.56,4-24.49,8.74-24.49,8.74s14,.15,24-6,13.64-7.27,13.68-9.65S368.72,833.79,366.36,832.55Z" transform="translate(-53.28 -188.28)"/><path class="cls-17" d="M308.4,714.68s-6.16,16.26,7,21.85,20.44,2.26,20.44,2.26" transform="translate(-53.28 -188.28)"/><path class="cls-51" d="M407.78,547.34a21.15,21.15,0,0,1,.61,3.31,4.81,4.81,0,0,1-9.19,2c-.57-1.34-1-2.75-1.48-4.12a46.17,46.17,0,0,0-9.81-15.69,47.44,47.44,0,0,0-35.29-14.88,48.47,48.47,0,0,0-12.21,1.82,4.94,4.94,0,0,1-3.7-.22,4.64,4.64,0,0,1-2.75-4.28,4.39,4.39,0,0,1,2.75-4.42,26.62,26.62,0,0,1,4.6-1.31,55.88,55.88,0,0,1,18.28-1,57.34,57.34,0,0,1,42.59,27A67.17,67.17,0,0,1,407.78,547.34Z" transform="translate(-53.28 -188.28)"/><path class="cls-51" d="M343.19,528.35a38.44,38.44,0,0,1,43.31,19.27,36,36,0,0,1,2.86,7,4.85,4.85,0,0,1-2.26,5.72,4.73,4.73,0,0,1-6-1,6,6,0,0,1-1.15-2.13A28.81,28.81,0,0,0,344.81,538a5,5,0,0,1-3.8-.22,4.83,4.83,0,0,1,.22-8.8C341.86,528.69,342.53,528.54,343.19,528.35Z" transform="translate(-53.28 -188.28)"/><path class="cls-51" d="M372.6,561.48a5,5,0,0,1,.06,4.2,4.84,4.84,0,0,1-8.83,0,29.08,29.08,0,0,0-1.92-4.11,12.93,12.93,0,0,0-12.69-6,24.06,24.06,0,0,0-2.64.5,4.9,4.9,0,0,1-5.62-3.37,4.81,4.81,0,0,1,2.77-5.82,18.45,18.45,0,0,1,6.58-1.13,22.8,22.8,0,0,1,17.63,7.69A22,22,0,0,1,372.6,561.48Z" transform="translate(-53.28 -188.28)"/><path class="cls-51" d="M347.21,564a8.6,8.6,0,1,1-5.84,10.66A8.61,8.61,0,0,1,347.21,564Z" transform="translate(-53.28 -188.28)"/><path class="cls-52" d="M337.92,649l-15,5.49a2.11,2.11,0,0,1-2.72-1L307,622.8a1.41,1.41,0,0,1,.9-1.83l21.32-7.82a1.4,1.4,0,0,1,1.87.87l8.27,32.51A2.16,2.16,0,0,1,337.92,649Z" transform="translate(-53.28 -188.28)"/><path class="cls-53" d="M336.75,648.42,324,653.09a2.13,2.13,0,0,1-2.73-1L309,623.12a1.41,1.41,0,0,1,.9-1.83l18.49-6.78a1.39,1.39,0,0,1,1.87.86l8,30.54A2.16,2.16,0,0,1,336.75,648.42Z" transform="translate(-53.28 -188.28)"/><ellipse class="cls-54" cx="327.5" cy="618.35" rx="1.99" ry="1.81" transform="translate(-259.47 -22.47) rotate(-21.8)"/><ellipse class="cls-55" cx="327.5" cy="618.35" rx="1.33" ry="1.21" transform="translate(-259.47 -22.47) rotate(-21.8)"/><ellipse class="cls-56" cx="323.98" cy="619.76" rx="0.88" ry="0.8" transform="translate(-260.25 -23.67) rotate(-21.8)"/><path class="cls-31" d="M314.64,648.34s16.13,5.41,21.48-11.43c0,0,13.13,14.22.22,28.55C328,674.74,314.64,648.34,314.64,648.34Z" transform="translate(-53.28 -188.28)"/><path class="cls-57" d="M513,325.19h-2.37c-1.39,0-2.78,0-4.17,0l0-4.38c1.41,0,2.83,0,4.26,0H513Z" transform="translate(-53.28 -188.28)"/><path class="cls-57" d="M310.42,592.24l-.58-1.87c-1.1-3.49-2.12-7-3-10.56l4.24-1.1c.89,3.45,1.89,6.93,3,10.34l.59,1.89Zm-6.48-25.09c-.82-4.23-1.51-8.55-2.07-12.81l4.34-.57c.54,4.18,1.23,8.4,2,12.55Zm-3.33-25.73c-.28-4.31-.43-8.67-.44-13h4.38c0,4.21.15,8.48.43,12.69Zm4.32-25.68-4.37-.27c.27-4.3.68-8.65,1.22-12.92l4.34.55C305.59,507.28,305.19,511.53,304.93,515.74Zm3.19-25.18-4.3-.83c.81-4.22,1.77-8.47,2.85-12.64l4.24,1.09C309.85,482.27,308.91,486.43,308.12,490.56ZM314.47,466l-4.16-1.36c1.34-4.09,2.83-8.19,4.42-12.19l4.07,1.62C317.24,458,315.78,462,314.47,466Zm9.39-23.57-4-1.87c1.84-3.89,3.83-7.78,5.91-11.55l3.83,2.11C327.6,434.82,325.66,438.62,323.86,442.43Zm12.25-22.24-3.69-2.35c2.31-3.63,4.76-7.25,7.29-10.73l3.54,2.57C340.78,413.09,338.37,416.63,336.11,420.19ZM351,399.62l-3.38-2.78c2.74-3.33,5.62-6.61,8.56-9.76l3.2,3C356.52,393.15,353.7,396.36,351,399.62ZM368.35,381l-3-3.18c3.13-3,6.39-5.87,9.69-8.64l2.81,3.36C374.61,375.29,371.41,378.13,368.35,381Zm19.49-16.31-2.6-3.53c3.48-2.56,7.08-5,10.7-7.37l2.37,3.68C394.77,359.79,391.25,362.22,387.84,364.73ZM409.21,351l-2.14-3.82c3.77-2.11,7.65-4.12,11.54-6l1.89,4C416.7,346.92,412.9,348.89,409.21,351Zm22.91-11-1.64-4.05c4-1.62,8.09-3.13,12.18-4.49l1.38,4.16C440,336.92,436,338.39,432.12,340Zm24.09-8-1.11-4.23c4.16-1.1,8.41-2.08,12.64-2.92l.85,4.29C464.45,329.92,460.29,330.88,456.21,332ZM481.12,327l-.58-4.34c4.25-.57,8.6-1,12.9-1.33l.32,4.37C489.54,326,485.29,326.46,481.12,327Z" transform="translate(-53.28 -188.28)"/><path class="cls-57" d="M317,610.84c-1.07-2.57-1.86-4.52-2.48-6.14l4.08-1.58c.61,1.59,1.39,3.51,2.44,6Z" transform="translate(-53.28 -188.28)"/><circle class="cls-41" cx="455.07" cy="112.46" r="86.26"/><circle class="cls-58" cx="455.07" cy="112.46" r="77.38"/><path class="cls-59" d="M518.31,360.64a53.49,53.49,0,0,1-34.8.86c-8.63-2.7-19.13-6.49-26.36-10.74-14.34-8.44-34.51-23.46-35.14-79.07,0,0,3.39-73.25,40.33-72,0,0,10.22-18,30.75-8.77s69.09,30.17,75.45,67.23c4.14,24.13,14.27,39.75-22.63,84.44C545.91,342.59,537.9,353.29,518.31,360.64Z" transform="translate(-53.28 -188.28)"/><path class="cls-47" d="M458.14,298.23s-12.85-8.68-15.76.76,12.63,19.53,18.28,8.79C460.66,307.78,461.81,304.55,458.14,298.23Z" transform="translate(-53.28 -188.28)"/><path class="cls-48" d="M458.72,303s-3.58,2.37.18,4.62c0,0-4.58,6.51-10.39,3.58-6.18-3.11-7.26-11.66-2.84-13.76C450.6,295.09,452.34,296.62,458.72,303Z" transform="translate(-53.28 -188.28)"/><path class="cls-49" d="M451.38,296.73s-9.3,5.82-1.23,15.06c0,0,4,1.42,8.75-4.18,0,0-2.14-.82-1.71-2.46a3.29,3.29,0,0,1,1.53-2.16S454.3,297.09,451.38,296.73Z" transform="translate(-53.28 -188.28)"/><path class="cls-60" d="M497.35,318.48l1.24,17a20.31,20.31,0,0,1-.6,6.64c-1.87,7.2-5.09,12.71-11.86,14.42a68.63,68.63,0,0,0-11,4L465,365s11.53,9.79,34,13c35,5,61-19,61-19s-44.56-26.49-44-41.88Z" transform="translate(-53.28 -188.28)"/><polygon class="cls-61" points="444.92 153.08 471.26 143.74 462.81 128.84 444.08 141.68 444.92 153.08"/><path class="cls-35" d="M450.87,254.72s-23.51,21.37,2,46c0,0,8.23,41.66,48.35,32.41s38.05-35.89,44.05-59.61c0,0-6.77-43.19-38.6-48.25s-37.85-13.14-37.85-13.14S468.87,243.48,450.87,254.72Z" transform="translate(-53.28 -188.28)"/><path class="cls-12" d="M453.24,276.57c-.92.34-.29,15.13,5.81,18.54,4.37,2.44,13.16-1.31,20-8.33s15.3-6.49,20.47-6.56c2.27,0,6.14-1.17,9.77-2.44,4.94-1.73,7.7-6.67,6.13-11l-1.53-6.35c-.83-2.27-2.92-5.55-5.44-6.3-6.84-2-21.8-2.64-36.15,5.57C452.48,271.05,453.24,276.57,453.24,276.57Z" transform="translate(-53.28 -188.28)"/><path class="cls-62" d="M466.35,235.15S484.17,253,505.82,259.9s28,2.83,28,2.83.62-15,.34-15.78-49.25-32.48-49.25-32.48-9.71-5.15-11-3.83-10.25,2.88-10.74,3.92S466.35,235.15,466.35,235.15Z" transform="translate(-53.28 -188.28)"/><path class="cls-63" d="M489,254.06l.18,2.71a.53.53,0,0,0,.78.5c2-1.12,8-3.79,18.59-3.08,0,0-8.23-5.48-19.22-.67A.58.58,0,0,0,489,254.06Z" transform="translate(-53.28 -188.28)"/><path class="cls-17" d="M422.72,284.81a13.69,13.69,0,0,1,13.6-5.89s11.93-17.47,23.12-30.9c10.15-12.16,8.67-30.19,8.31-33.48.56,3.58,6,24.86,57.13,41.14,45.4,14.48,22.31,82.13,22.31,82.13S576.05,316.53,574,284s-6.14-48.94-36.67-69.5-54.24-30.27-63.79-23.64-10.46,9.38-10.46,9.38-15.45-7-28.66,19.87S421.06,273.24,422.72,284.81Zm65.56-60s7.91,9.37,27.21,15.78c0,0,8.09,1.46,10.48,9,0,0-5.88-4.41-18.2-7.89S490.49,231.09,488.28,224.84Z" transform="translate(-53.28 -188.28)"/><path class="cls-64" d="M559.93,236.22l-27.52,22.66s9.67,4.21,13.3,12.53c0,0,14-16.33,16.79-30.75Z" transform="translate(-53.28 -188.28)"/><path class="cls-64" d="M464.05,240.62s-19.56,2-34-10.55c0,0-4.65,12-4.55,16.08,0,0,15.53,10.28,30.05,6.62C455.58,252.77,462.59,245.89,464.05,240.62Z" transform="translate(-53.28 -188.28)"/><path class="cls-64" d="M495.22,234.93c3.86,3.81,11.27,6.37,12.4,6.75a84.47,84.47,0,0,1-9.11,3.37l-12.21-7.3C489.49,236.85,492.45,235.9,495.22,234.93Z" transform="translate(-53.28 -188.28)"/><path class="cls-64" d="M500.42,233c25.18-10.13,30.79-22.5,30.79-22.5a93.25,93.25,0,0,0,9.25,6.87C533.07,227.66,522,234.76,513,239.19,508.76,237.19,504.15,234.88,500.42,233Z" transform="translate(-53.28 -188.28)"/><path class="cls-47" d="M531.91,262.1S537,244.19,547,250.62s3.5,27.71-10,22.21C537,272.83,533.42,270.75,531.91,262.1Z" transform="translate(-53.28 -188.28)"/><path class="cls-48" d="M535.05,266.93s5.12-.59,3.41,4.38c0,0,9.24,2.45,12.32-4.74,3.28-7.64-2.35-16.34-8-14.85C536.4,253.39,536,256.13,535.05,266.93Z" transform="translate(-53.28 -188.28)"/><path class="cls-49" d="M537,255.5s13-1.85,12.78,12.88c0,0-2.6,4.42-11.28,2.93,0,0,1.33-2.41-.33-3.58a4,4,0,0,0-3.08-.8S534.55,258.09,537,255.5Z" transform="translate(-53.28 -188.28)"/><path class="cls-63" d="M462.91,264.35l.78,1.59a1.07,1.07,0,0,1-.89,1.42,21.26,21.26,0,0,0-14.15,9.13s3.67-9.5,13.07-12.57A1,1,0,0,1,462.91,264.35Z" transform="translate(-53.28 -188.28)"/><path d="M474.06,280c1.82,5-1.22,10.7-7.53,13.08A10.15,10.15,0,0,1,453.76,287c-2-5.84,1.73-10.43,6.73-12.25S472.24,275,474.06,280Z" transform="translate(-53.28 -188.28)"/><path class="cls-43" d="M474.62,280.24c1.83,5-1.22,10.7-7.53,13.08a9.59,9.59,0,0,1-12.34-5.74c-1.83-5,1.78-10.05,6.77-11.87S472.8,275.24,474.62,280.24Z" transform="translate(-53.28 -188.28)"/><path class="cls-65" d="M472.37,286c1.23,3.38-1.07,5.58-4.44,6.82s-6.56,1-7.79-2.36A6.51,6.51,0,0,1,472.37,286Z" transform="translate(-53.28 -188.28)"/><circle class="cls-45" cx="412.97" cy="99.94" r="3.25"/><circle class="cls-46" cx="415.47" cy="97.29" r="1.63"/><path d="M455.65,277.85s-4.54,3.74-7.61,4.86c0,0,1.48,1.74,5.24.1C453.28,282.81,454.89,278.65,455.65,277.85Z" transform="translate(-53.28 -188.28)"/><path d="M492.08,273.41c1.82,5,7.82,7.39,14.18,5.16a10.15,10.15,0,0,0,5.86-12.88c-2.26-5.74-8.05-6.87-13.05-5.05S490.25,268.41,492.08,273.41Z" transform="translate(-53.28 -188.28)"/><path class="cls-43" d="M491.81,274c1.83,5,7.83,7.4,14.19,5.16a9.59,9.59,0,0,0,5.75-12.35c-1.83-5-7.83-6.54-12.83-4.71S490,269,491.81,274Z" transform="translate(-53.28 -188.28)"/><path class="cls-65" d="M496.47,277.19c1.23,3.38,4.41,3.59,7.78,2.36s5.68-3.44,4.44-6.82a6.5,6.5,0,1,0-12.22,4.46Z" transform="translate(-53.28 -188.28)"/><circle class="cls-45" cx="449.3" cy="86.68" r="3.25"/><circle class="cls-46" cx="450.4" cy="83.08" r="1.63"/><path d="M504.79,259.92s5.89-.06,9-1.18c0,0,0,2.29-3.95,3.45C509.8,262.19,505.89,260,504.79,259.92Z" transform="translate(-53.28 -188.28)"/><path class="cls-66" d="M480.72,280s4.68,12.81,3,20.75a6.1,6.1,0,0,0,.17,3.13,2.7,2.7,0,0,0,.84,1.38c1,.63,4.26,1.41,8.22,0a10.78,10.78,0,0,0,5.41-4.59,1.45,1.45,0,0,0,.14-1.06,5.68,5.68,0,0,0-2.15-3.51s-6.88-2.44-11.63-17.52" transform="translate(-53.28 -188.28)"/><path class="cls-67" d="M484.28,304.78s-.88-1,1.1-1.77l11.9-4.34c1.32-.48,1.19,1.57,1.19,1.57s-.89,3.28-5.55,5C489.62,306.4,485.11,306.72,484.28,304.78Z" transform="translate(-53.28 -188.28)"/><path class="cls-50" d="M486.86,317.51c2.07-.36,4-.69,5.93-1.11a33.13,33.13,0,0,0,5.42-1.63A22.13,22.13,0,0,0,503,312a8.4,8.4,0,0,0,3.28-4.52,5,5,0,0,1,0,3.25,8.67,8.67,0,0,1-1.63,2.92,14,14,0,0,1-5.28,3.86,16.61,16.61,0,0,1-6.32,1.2A15.49,15.49,0,0,1,486.86,317.51Z" transform="translate(-53.28 -188.28)"/><path class="cls-38" d="M490,361s19.49,15.86,59.74-8.57L560,359s-20,21-54,20c-31.19-.92-41-14-41-14l19-8Z" transform="translate(-53.28 -188.28)"/></svg>