<svg xmlns="http://www.w3.org/2000/svg" xmlns:xlink="http://www.w3.org/1999/xlink" viewBox="0 0 1089.86 1603"><defs><style>.cls-1{mask:url(#mask);}.cls-13,.cls-17,.cls-2{mix-blend-mode:multiply;}.cls-2{fill:url(#linear-gradient);}.cls-3{isolation:isolate;}.cls-4{fill:#71ccc7;}.cls-5{fill:#41847d;}.cls-6{fill:#4c3039;}.cls-7{fill:#3a222b;}.cls-8{fill:#6cadab;}.cls-9{fill:#5bb5af;}.cls-10{fill:#fabe82;}.cls-11{fill:#563a44;}.cls-12{fill:#fff27b;}.cls-13{fill:#66493d;opacity:0.5;}.cls-14{fill:#3a232b;}.cls-15{fill:#efa26f;}.cls-16{mask:url(#mask-2);}.cls-17{opacity:0.3;fill:url(#linear-gradient-2);}.cls-18{fill:#684a56;}.cls-19{fill:#efa16c;}.cls-20{fill:#3f2b1a;}.cls-21{fill:#ffecde;}.cls-22{fill:#efa460;}.cls-23{fill:#87abc1;}.cls-24{fill:#bfdfef;}.cls-25{filter:url(#luminosity-noclip-2);}.cls-26{filter:url(#luminosity-noclip);}</style><filter id="luminosity-noclip" x="304.57" y="-9296" width="673.48" height="32766" filterUnits="userSpaceOnUse" color-interpolation-filters="sRGB"><feFlood flood-color="#fff" result="bg"/><feBlend in="SourceGraphic" in2="bg"/></filter><mask id="mask" x="304.57" y="-9296" width="673.48" height="32766" maskUnits="userSpaceOnUse"><g class="cls-26"/></mask><linearGradient id="linear-gradient" x1="643.31" y1="749.87" x2="645.6" y2="945.2" gradientUnits="userSpaceOnUse"><stop offset="0"/><stop offset="1" stop-color="#fff"/></linearGradient><filter id="luminosity-noclip-2" x="304.57" y="229.44" width="673.48" height="706.73" filterUnits="userSpaceOnUse" color-interpolation-filters="sRGB"><feFlood flood-color="#fff" result="bg"/><feBlend in="SourceGraphic" in2="bg"/></filter><mask id="mask-2" x="214.42" y="85.44" width="673.48" height="706.73" maskUnits="userSpaceOnUse"><g class="cls-25"><g transform="translate(-90.14 -144)"><g class="cls-1"><path class="cls-2" d="M305.43,595.8c12,180.16,118.42,344.31,333.24,340.3,259-4.82,335.24-200.19,339.26-338.29C981.56,472.72,901,226.23,638.67,229.47,476.06,231.47,290.33,370.09,305.43,595.8Z"/></g></g></g></mask><linearGradient id="linear-gradient-2" x1="643.31" y1="749.87" x2="645.6" y2="945.2" gradientUnits="userSpaceOnUse"><stop offset="0" stop-color="#c04b00"/><stop offset="1" stop-color="#b73400"/></linearGradient></defs><g class="cls-3"><g id="Слой_1" data-name="Слой 1"><path class="cls-4" d="M400.89,1504.83S454,1048.38,498.23,987s255.5-24.51,265.63-13.15c86,96.52,165.67,528.11,165.67,528.11C725.45,1627.69,554.77,1385.26,400.89,1504.83Z" transform="translate(-90.14 -144)"/><path class="cls-5" d="M409.6,1504.83s75.47-451.32,118.26-512.74S735.24,973.84,745,985.2c83.22,96.52,174.65,525.1,174.65,525.1C722.33,1636.08,558.42,1385.26,409.6,1504.83Z" transform="translate(-90.14 -144)"/><path class="cls-6" d="M756.14,987s173.79,100.16,312.67-7.07l21.84,23.62S984.92,1140.79,757,1067.41Z" transform="translate(-90.14 -144)"/><path class="cls-7" d="M1069.21,980.36c-9.09,11.06-108.85,125.22-312.39,69l.2,18c227.9,73.38,333.63-63.86,333.63-63.86Z" transform="translate(-90.14 -144)"/><polygon class="cls-8" points="896.26 831.5 956.73 969.77 1057.41 811.55 1041.42 792.59 896.26 831.5"/><path class="cls-4" d="M1015.1,1041.12c29.89-9.14,59.94-28.67,84.29-57.43a196.27,196.27,0,0,0,29.26-46.32L986.41,975.5Z" transform="translate(-90.14 -144)"/><path class="cls-6" d="M1123.43,944.22c-8.74-17-3-57.84,17.63-62.43s36,14.56,38.31,29.49S1144.11,984.43,1123.43,944.22Z" transform="translate(-90.14 -144)"/><path class="cls-6" d="M526.15,1334.54c21.1,38.54,229.72,21.6,257.72-4.42s58.3-315.25-63.73-355.13c-38.6-12.6-186.75-17.89-197.22,11.21S491.48,1271.26,526.15,1334.54Z" transform="translate(-90.14 -144)"/><path class="cls-6" d="M403.55,1686.52c-23.66-107.83-5.26-207.77,13.16-247.22s105.19-126.24,102.57-184.09L777,1247.32c0,44.7,107.83,97.31,163,186.72s47.35,239.32,47.35,239.32h-21s-55.22-207.76-97.3-234.06-106-44.25-199.88-31.56c-97.31,13.15-249.84,13.15-244.58,276.14Z" transform="translate(-90.14 -144)"/><path class="cls-7" d="M850.66,1423.21c-42.06-26.29-106-44.25-199.87-31.55-97.31,13.15-249.85,13.15-244.58,276.14l-6.18.77c1.06,6,2.21,11.93,3.52,18l21-2.64c-5.26-263,147.27-263,244.58-276.14,89.82-12.14,152.19,3.8,194.27,28.23C859.1,1430.22,854.81,1425.8,850.66,1423.21Z" transform="translate(-90.14 -144)"/><path class="cls-7" d="M940.05,1434c-38.67-62.61-103.12-107.17-138.29-143.61-15.07-15.6-21.33-18.4-6.81-4.73,36.43,34.31,92,76,126.72,132.25,55.24,89.43,47.34,239.33,47.34,239.33H961.9c2.84,10,4.45,16.08,4.45,16.08h21S995.29,1523.46,940.05,1434Z" transform="translate(-90.14 -144)"/><polygon class="cls-4" points="403.15 1170.06 546.26 1275.57 615.81 1269.78 742.9 1167.25 718.83 1124.43 411.2 1136.11 403.15 1170.06"/><path class="cls-9" d="M693.87,1346.69c-50.32,14.84-98.72,19-137.39,13.94l79.92,58.94,69.56-5.79,127.09-102.53-15.66-27.85C787.63,1308.79,744.5,1331.76,693.87,1346.69Z" transform="translate(-90.14 -144)"/><path class="cls-6" d="M551.32,977.91S369.8,1077,229.61,968.41l-23.08,23.51s105.24,138.44,341.79,66.61Z" transform="translate(-90.14 -144)"/><path class="cls-4" d="M311.5,1528.72s89.43,94.67,84.17,168.32c-1.15,16-65.75,50-65.75,50H443s-21-176.2,50-207.77Z" transform="translate(-90.14 -144)"/><path class="cls-8" d="M493,1539.23l-89.05-5.16c14.51,25.4,23.22,56.89,23.22,91.13,0,50-18.4,94.17-46.64,121.8H443S422,1570.8,493,1539.23Z" transform="translate(-90.14 -144)"/><path class="cls-4" d="M1051.81,1544.49s-71.36,87.84-58.58,156.15c2.77,14.8,65.46,46.36,65.46,46.36H954.29s1.24-163.47-67-192.75Z" transform="translate(-90.14 -144)"/><path class="cls-8" d="M1058.69,1747s-62.69-31.56-65.46-46.36c-12.78-68.31,58.58-156.15,58.58-156.15l-73.3,4.35a331.16,331.16,0,0,1,6.28,64.88c0,53.12-11.87,100.57-30.5,132.19V1747Z" transform="translate(-90.14 -144)"/><polygon class="cls-8" points="204.62 817.85 122.38 950.1 36.33 782.49 55.77 765.08 204.62 817.85"/><path class="cls-4" d="M145.92,909.08l-19.45,17.41,4,7.78c24.15,17.85,55.58,33.47,91.52,44a324.46,324.46,0,0,0,55.66,11.13l17.13-27.54Z" transform="translate(-90.14 -144)"/><path class="cls-4" d="M782.22,976.77c0-18.88-59.58-33-133.12-31.61S516,963,516,981.93s59.61,33,133.11,31.61S782.22,995.66,782.22,976.77Z" transform="translate(-90.14 -144)"/><path class="cls-10" d="M676.94,878.55l-74.41,4,4.7,88.42c15.67,15,62.42,15.59,74.44-4Z" transform="translate(-90.14 -144)"/><path class="cls-11" d="M585.9,221.45l20.52-62.66a21.48,21.48,0,0,1,40.12-1.85l29.69,68.52Z" transform="translate(-90.14 -144)"/><path class="cls-11" d="M708.15,230.11l32.2-57.52a21.47,21.47,0,0,1,39.72,5.9L796,251.44Z" transform="translate(-90.14 -144)"/><path class="cls-11" d="M479.89,269.55l-8.78-65.35a21.48,21.48,0,0,1,35.31-19.13L563,233.84Z" transform="translate(-90.14 -144)"/><rect class="cls-12" x="521.6" y="1278.04" width="15.25" height="29.77" transform="translate(-857.64 1668.79) rotate(-89.59)"/><rect class="cls-12" x="563.73" y="1284.22" width="29.77" height="15.24" transform="translate(-153.34 -113.79) rotate(-2.84)"/><polygon class="cls-12" points="554.52 1136.97 524.79 1138.44 525.54 1153.67 555.29 1152.21 554.52 1136.97"/><polygon class="cls-12" points="606.82 1134.46 577.09 1135.92 577.84 1151.16 607.57 1149.68 606.82 1134.46"/><polygon class="cls-12" points="659.1 1133.4 629.37 1134.86 630.12 1150.1 659.85 1148.63 659.1 1133.4"/><rect class="cls-12" x="774.36" y="1274.17" width="29.77" height="15.24" transform="translate(-152.93 -103.15) rotate(-2.85)"/><polygon class="cls-12" points="598.54 901.22 534.18 953.99 574.45 971.04 521.59 1014.7 558.36 1031.93 503.05 1085.26 595.24 1031.59 549.99 1012.53 639.94 964.14 572.79 946.71 598.54 901.22"/><path class="cls-13" d="M810,1010.23c-10.56-3.6-19.89-7.28-27.67-10.61-2.46-4.1-4.95-8-7.43-11.59,4.69-3.58,7.34-7.36,7.34-11.26,0-16.1-43.37-28.72-101.7-31.22l-1.31-24.72c-14.19-.74-28.87-1.13-43.92-1.13q-15.67,0-30.75.56l1.47,27.6c-24.44,2.63-45.64,6.94-61.33,12.35-20.52,5.37-37.18,13.88-46.45,26.75a81.64,81.64,0,0,0-8.16,15.47c-9.05,2.79-18.94,5.43-29.41,7.81C565.78,1094.35,755.36,1081.72,810,1010.23Z" transform="translate(-90.14 -144)"/><path class="cls-6" d="M367.66,922.06c-43-92.34-184.56-483.82,71.24-624.33h444s274.21,307.16,4.1,624.33Z" transform="translate(-90.14 -144)"/><path class="cls-14" d="M391.46,922.06c-39.31-92.34-168.87-483.82,65.19-624.33H863s250.9,307.16,3.73,624.33Z" transform="translate(-90.14 -144)"/><path class="cls-10" d="M305.43,595.8c12,180.16,118.42,344.31,333.24,340.3,259-4.82,335.24-200.19,339.26-338.29C981.56,472.72,901,226.23,638.67,229.47,476.06,231.47,290.33,370.09,305.43,595.8Z" transform="translate(-90.14 -144)"/><polygon class="cls-15" points="874.34 565.05 233.19 565.05 260.76 623.27 845.62 623.27 874.34 565.05"/><g class="cls-16"><path class="cls-17" d="M305.43,595.8c12,180.16,118.42,344.31,333.24,340.3,259-4.82,335.24-200.19,339.26-338.29C981.56,472.72,901,226.23,638.67,229.47,476.06,231.47,290.33,370.09,305.43,595.8Z" transform="translate(-90.14 -144)"/></g><path class="cls-6" d="M317.46,752.84H967.9c18.38-48.72,37.59-99,38.89-143.84,4-136.19-83.52-404.56-368.36-401-176.53,2.18-378.17,153.1-361.78,398.84C280,657.63,300.06,707.24,317.46,752.84Z" transform="translate(-90.14 -144)"/><path class="cls-11" d="M288.21,669.42c89.54-166.64,269.68-280.57,477.5-280.57a552.57,552.57,0,0,1,204,38.81C921.08,313.74,819.82,205.72,638.43,208c-176.53,2.18-378.17,153.1-361.78,398.84C278.05,628,282.43,648.88,288.21,669.42Z" transform="translate(-90.14 -144)"/><path class="cls-18" d="M303.15,620c-3.77-239.93,177.76-384.74,345.73-398.55l-.72-.05C482.56,215.46,286.72,347.83,291,578.93c.37,19.9,3.53,39.71,8,59.22,1.51-2.51,3.11-5,4.65-7.44C303.48,627.13,303.21,623.56,303.15,620Z" transform="translate(-90.14 -144)"/><path class="cls-10" d="M293.37,643c-30.11-22.1-66.25,36.13-46.16,60.23s68.24,42.15,68.24,42.15Z" transform="translate(-90.14 -144)"/><path class="cls-10" d="M991,643c28.48-22.1,62.66,36.13,43.67,60.23s-64.55,42.15-64.55,42.15Z" transform="translate(-90.14 -144)"/><path class="cls-19" d="M994.56,655.32c21.31-16.53,46.86,27,32.66,45S979,731.87,979,731.87Z" transform="translate(-90.14 -144)"/><path class="cls-10" d="M987.43,672.65c12.52-9.71,27.52,15.87,19.18,26.45s-28.35,18.52-28.35,18.52Z" transform="translate(-90.14 -144)"/><path class="cls-19" d="M287.19,659.34c-20.45-13.91-46.53,20.32-33.05,35.21s46.5,26.75,46.5,26.75Z" transform="translate(-90.14 -144)"/><path class="cls-10" d="M293.76,673.47c-12-8.17-27.34,11.94-19.41,20.69s27.31,15.71,27.31,15.71Z" transform="translate(-90.14 -144)"/><polygon class="cls-12" points="965.11 1399.62 793.91 1407.67 793.91 1426.05 965.11 1418.01 965.11 1399.62"/><polygon class="cls-12" points="403.24 1392.73 214.8 1382.39 214.8 1400.77 403.24 1411.11 403.24 1392.73"/><path class="cls-20" d="M558.88,809.4h154S649.28,946.89,558.88,809.4Z" transform="translate(-90.14 -144)"/><polygon class="cls-21" points="485.6 669.61 508.57 704.85 583.64 704.85 609.69 669.61 485.6 669.61"/><ellipse class="cls-22" cx="552.61" cy="617.14" rx="35.62" ry="21.83"/><ellipse class="cls-10" cx="554.43" cy="611.32" rx="28.24" ry="17.31"/><path class="cls-21" d="M440.93,721.3s65.87-24.51,139.41-9.19c0,0-16.86-105.71-81.21-98.05S434.79,696.79,440.93,721.3Z" transform="translate(-90.14 -144)"/><path class="cls-21" d="M830.73,721.3s-61.61-24.51-130.39-9.19c0,0,15.76-105.71,75.94-98.05S836.46,696.79,830.73,721.3Z" transform="translate(-90.14 -144)"/><path class="cls-18" d="M764.48,564.13c-15.76,14.71,77.74,40.7,86.54,35.45S799.67,531.32,764.48,564.13Z" transform="translate(-90.14 -144)"/><path class="cls-18" d="M532.44,559.41c5.65-20.8-87.56,6.31-92.29,15.4S519.8,605.84,532.44,559.41Z" transform="translate(-90.14 -144)"/><ellipse class="cls-23" cx="667.52" cy="531.34" rx="21.83" ry="27.58"/><path class="cls-24" d="M768.17,668.45c0-5.19-3.34-9.39-7.44-9.39s-7.43,4.2-7.43,9.39,3.32,9.39,7.43,9.39S768.17,673.63,768.17,668.45Z" transform="translate(-90.14 -144)"/><ellipse class="cls-23" cx="426.22" cy="531.34" rx="21.83" ry="27.58"/><path class="cls-24" d="M529.55,668.45c0-5.19-3.33-9.39-7.44-9.39s-7.43,4.2-7.43,9.39,3.34,9.39,7.43,9.39S529.55,673.63,529.55,668.45Z" transform="translate(-90.14 -144)"/><path class="cls-10" d="M1136.19,900.65c-5.47-9.44-13.93-15.06-18.88-12.55s-4.53,12.21,1,21.66,13.91,15.06,18.89,12.55S1141.67,910.1,1136.19,900.65Z" transform="translate(-90.14 -144)"/><path class="cls-10" d="M1128.4,920.37c-1-10.07-5.56-32.81-11.09-32.27-9.2.93-14.55,39.26,7.66,51.14C1129.87,941.86,1129.39,930.44,1128.4,920.37Z" transform="translate(-90.14 -144)"/><path class="cls-10" d="M1147.74,874.83c-8.57-.65-15.48,2.59-15.46,7.27s7,9,15.53,9.63,15.48-2.58,15.48-7.26S1156.3,875.49,1147.74,874.83Z" transform="translate(-90.14 -144)"/><path class="cls-10" d="M1148.49,885.18c-1.61-6.17-6.59-10.21-11.15-9s-6.91,7.12-5.29,13.28,6.59,10.21,11.13,9S1150.09,891.34,1148.49,885.18Z" transform="translate(-90.14 -144)"/><path class="cls-10" d="M1162.66,912.76c-1.62-6.17-6.59-10.21-11.13-9s-6.92,7.12-5.3,13.29,6.57,10.21,11.11,9S1164.26,918.91,1162.66,912.76Z" transform="translate(-90.14 -144)"/><path class="cls-10" d="M1157.68,895.52c-1.61-6.17-6.58-10.21-11.15-9s-6.91,7.12-5.29,13.28,6.59,10.21,11.13,9S1159.28,901.68,1157.68,895.52Z" transform="translate(-90.14 -144)"/><path class="cls-10" d="M1160.27,888.25c-8.21-.22-14.83,3.37-14.81,8s6.68,8.63,14.88,8.85,14.83-3.35,14.81-8S1168.46,888.48,1160.27,888.25Z" transform="translate(-90.14 -144)"/><path class="cls-10" d="M1163.56,902.59c-9,.08-16.4,3.93-16.38,8.61s7.38,8.42,16.45,8.35S1180,915.64,1180,911,1172.62,902.53,1163.56,902.59Z" transform="translate(-90.14 -144)"/><path class="cls-6" d="M158,911.74c6.53-18.46-7-57.51-30.4-57.94S90.8,875.24,90.94,890.4,142.54,955.41,158,911.74Z" transform="translate(-90.14 -144)"/><path class="cls-10" d="M136.29,871.39c4.33-10.37,12.57-17.57,18.44-16.08s7.13,11.13,2.82,21.5S145,894.38,139.11,892.9,132,881.78,136.29,871.39Z" transform="translate(-90.14 -144)"/><path class="cls-10" d="M148.34,889.26c-.74-10.1.25-33.39,6.39-34,10.23-.9,22.91,35.76.72,51.84C150.55,910.7,149.06,899.37,148.34,889.26Z" transform="translate(-90.14 -144)"/><path class="cls-10" d="M119.07,848.27c9.27-2.33,17.4-.52,18.23,4.1s-6,10.21-15.3,12.55-17.38.52-18.22-4.09S109.83,850.62,119.07,848.27Z" transform="translate(-90.14 -144)"/><path class="cls-10" d="M120.1,858.61c.66-6.39,5.38-11.35,10.59-11.09s8.83,5.64,8.15,12-5.38,11.35-10.55,11.1S119.43,865,120.1,858.61Z" transform="translate(-90.14 -144)"/><path class="cls-10" d="M109.51,888.55c.66-6.39,5.38-11.35,10.57-11.09s8.82,5.64,8.15,12-5.37,11.34-10.56,11.09S108.86,894.92,109.51,888.55Z" transform="translate(-90.14 -144)"/><path class="cls-10" d="M111.88,870.6c.66-6.39,5.38-11.35,10.59-11.09s8.83,5.64,8.17,12-5.41,11.35-10.58,11.1S111.23,877,111.88,870.6Z" transform="translate(-90.14 -144)"/><path class="cls-10" d="M107.75,864c8.94-1.85,16.82.38,17.64,5s-5.78,9.81-14.7,11.66-16.84-.38-17.65-5S98.82,865.81,107.75,864Z" transform="translate(-90.14 -144)"/><path class="cls-10" d="M106.7,878.72c9.92-1.72,18.64.62,19.47,5.23s-6.59,9.75-16.52,11.47S91,894.81,90.21,890.2,96.78,880.46,106.7,878.72Z" transform="translate(-90.14 -144)"/><polygon class="cls-4" points="554.34 202.24 527.62 253.47 554.34 304.71 581.05 253.47 554.34 202.24"/></g></g></svg>