<svg xmlns="http://www.w3.org/2000/svg" xmlns:xlink="http://www.w3.org/1999/xlink" viewBox="0 0 516.95 1103.62"><defs><style>.cls-1{isolation:isolate;}.cls-2{fill:#e6e6e6;}.cls-3{fill:url(#Безымянный_градиент_17);}.cls-4{fill:#50453b;}.cls-5{fill:#6a6051;}.cls-6{fill:url(#Безымянный_градиент_17-2);}.cls-7{fill:#016972;}.cls-8{fill:#005e66;}.cls-9{fill:#00474d;}.cls-10{fill:#4d3226;opacity:0.41;}.cls-11{fill:url(#Безымянный_градиент_17-3);}.cls-12{fill:url(#Безымянный_градиент_17-4);}.cls-13{fill:#d9482d;}.cls-14{fill:#c44029;}.cls-15{fill:#282f39;}.cls-16{fill:#37414f;}.cls-17{fill:#999;}.cls-18{fill:#ccc;}.cls-19{fill:#ab8c51;}.cls-20{fill:url(#Безымянный_градиент_17-5);}.cls-21{fill:#fff;}.cls-22{fill:url(#Безымянный_градиент_17-6);}.cls-23{opacity:0.13;}.cls-23,.cls-55{mix-blend-mode:multiply;}.cls-24{fill:#fbb287;}.cls-25{fill:#f2997a;}.cls-26{fill:#eb8465;}.cls-27{fill:#fec192;}.cls-28{fill:#feb582;}.cls-29,.cls-36{fill:#ba6f2b;}.cls-30{fill:#754c24;}.cls-31{fill:#fdf2e6;}.cls-32{fill:#53a7b8;}.cls-33{fill:#03252e;}.cls-34{fill:#fcf2e6;}.cls-35{fill:#cc7a2f;}.cls-36{opacity:0.42;}.cls-37{fill:#97001e;}.cls-38{fill:#fffefd;}.cls-39{fill:#af0c0d;}.cls-40{fill:url(#Безымянный_градиент_17-7);}.cls-41{fill:url(#Безымянный_градиент_25);}.cls-42{fill:#e19c37;}.cls-43{fill:#e29c36;}.cls-44{fill:#d59d74;}.cls-45{fill:#00a0a3;}.cls-46{fill:#00acb0;}.cls-47{fill:url(#Безымянный_градиент_17-8);}.cls-48{fill:#541716;}.cls-49{fill:url(#Безымянный_градиент_17-9);}.cls-50{fill:#dea785;}.cls-51{fill:#f7b683;}.cls-52{fill:#831b1a;}.cls-53{fill:#892821;}.cls-54{fill:#9a332c;}.cls-55{opacity:0.19;}.cls-56{fill:#a7b853;}.cls-57{fill:url(#Безымянный_градиент_17-10);}.cls-58{fill:url(#Безымянный_градиент_25-2);}.cls-59{fill:url(#Безымянный_градиент_43);}.cls-60{fill:url(#Безымянный_градиент_17-11);}.cls-61{fill:#b3b3b3;}.cls-62{fill:#a88a5e;}.cls-63{fill:#705c3f;}.cls-64{fill:url(#Безымянный_градиент_17-12);}.cls-65{fill:url(#Безымянный_градиент_17-13);}.cls-66{fill:url(#Безымянный_градиент_17-14);}.cls-67{fill:#d9a073;}.cls-68{fill:#971a42;}.cls-69{fill:#b5355e;}.cls-70{fill:url(#Безымянный_градиент_25-3);}.cls-71{fill:#d48851;}</style><linearGradient id="Безымянный_градиент_17" x1="138.64" y1="1053.42" x2="148.69" y2="1053.42" gradientUnits="userSpaceOnUse"><stop offset="0.25" stop-color="#feb582"/><stop offset="0.52" stop-color="#fcb280"/><stop offset="0.71" stop-color="#f7a97b"/><stop offset="0.86" stop-color="#ef9a71"/><stop offset="1" stop-color="#e48665"/></linearGradient><linearGradient id="Безымянный_градиент_17-2" x1="159.43" y1="1156.61" x2="169.49" y2="1156.61" gradientTransform="matrix(-1, 0, 0, 1, 369.48, -103.19)" xlink:href="#Безымянный_градиент_17"/><linearGradient id="Безымянный_градиент_17-3" x1="88.34" y1="603.75" x2="273.41" y2="603.75" gradientTransform="matrix(0.87, -0.09, 0.1, 0.95, -43.47, 62.63)" xlink:href="#Безымянный_градиент_17"/><linearGradient id="Безымянный_градиент_17-4" x1="355.42" y1="522.31" x2="546.54" y2="522.31" gradientTransform="translate(-145.41 198.15) rotate(-13.28)" xlink:href="#Безымянный_градиент_17"/><linearGradient id="Безымянный_градиент_17-5" x1="117.55" y1="715.46" x2="345.92" y2="715.46" gradientTransform="translate(-245.31 131.33) rotate(-20.75)" xlink:href="#Безымянный_градиент_17"/><linearGradient id="Безымянный_градиент_17-6" x1="212.18" y1="508.4" x2="299.46" y2="508.4" xlink:href="#Безымянный_градиент_17"/><linearGradient id="Безымянный_градиент_17-7" x1="255.3" y1="359.5" x2="255.3" y2="403.74" xlink:href="#Безымянный_градиент_17"/><linearGradient id="Безымянный_градиент_25" x1="255.28" y1="403.74" x2="255.28" y2="394.86" gradientUnits="userSpaceOnUse"><stop offset="0.25" stop-color="#feb582"/><stop offset="0.73" stop-color="#ee9870"/><stop offset="1" stop-color="#e48665"/></linearGradient><linearGradient id="Безымянный_градиент_17-8" x1="440.19" y1="699.61" x2="433.43" y2="644.52" xlink:href="#Безымянный_градиент_17"/><linearGradient id="Безымянный_градиент_17-9" x1="466.24" y1="611.14" x2="562.26" y2="611.14" gradientTransform="translate(-36.74 38.07) rotate(-4.19)" xlink:href="#Безымянный_градиент_17"/><linearGradient id="Безымянный_градиент_17-10" x1="457.6" y1="517.21" x2="457.6" y2="548.76" gradientTransform="translate(-126.59 201.15) rotate(-20.04)" xlink:href="#Безымянный_градиент_17"/><linearGradient id="Безымянный_градиент_25-2" x1="457.59" y1="548.76" x2="457.59" y2="542.43" gradientTransform="translate(-126.59 201.15) rotate(-20.04)" xlink:href="#Безымянный_градиент_25"/><linearGradient id="Безымянный_градиент_43" x1="539.38" y1="721.73" x2="575.03" y2="721.73" gradientUnits="userSpaceOnUse"><stop offset="0.26" stop-color="#d6986e"/><stop offset="0.55" stop-color="#d5956c"/><stop offset="0.76" stop-color="#d18c67"/><stop offset="0.93" stop-color="#ca7d5d"/><stop offset="1" stop-color="#c77558"/></linearGradient><linearGradient id="Безымянный_градиент_17-11" x1="495.28" y1="785.03" x2="560.9" y2="652.85" xlink:href="#Безымянный_градиент_17"/><linearGradient id="Безымянный_градиент_17-12" x1="501.68" y1="371.78" x2="511.83" y2="371.78" xlink:href="#Безымянный_градиент_17"/><linearGradient id="Безымянный_градиент_17-13" x1="561.09" y1="370.94" x2="566.92" y2="370.94" xlink:href="#Безымянный_градиент_17"/><linearGradient id="Безымянный_градиент_17-14" x1="527.28" y1="350.86" x2="547.4" y2="350.86" xlink:href="#Безымянный_градиент_17"/><linearGradient id="Безымянный_градиент_25-3" x1="521.54" y1="308.77" x2="523.2" y2="322.98" xlink:href="#Безымянный_градиент_25"/></defs><g class="cls-1"><g id="Слой_1" data-name="Слой 1"><ellipse class="cls-2" cx="406.34" cy="1086.52" rx="96.59" ry="15.25"/><ellipse class="cls-2" cx="172.49" cy="1085.13" rx="135.41" ry="18.49"/><polygon class="cls-3" points="138.64 1040.02 141.99 1066.82 148.69 1066.82 148.69 1040.02 138.64 1040.02"/><path class="cls-4" d="M234,1165.67l-33.3,19.67a4.9,4.9,0,0,0-2.4,4.21v3.76a4.89,4.89,0,0,0,6.48,4.63l43.83-15.07a4.89,4.89,0,0,0,3.3-4.62v-8.37A4.89,4.89,0,0,0,247,1165H236.5A4.89,4.89,0,0,0,234,1165.67Z" transform="translate(-96.52 -103.19)"/><path class="cls-5" d="M245.45,1173v6a2.71,2.71,0,0,1-1.79,2.53l-33.44,11.94a2.68,2.68,0,0,1-3.59-2.53v-3.66a2.7,2.7,0,0,1,1.63-2.47l33.44-14.33A2.69,2.69,0,0,1,245.45,1173Z" transform="translate(-96.52 -103.19)"/><polygon class="cls-6" points="210.04 1040.02 206.69 1066.82 199.99 1066.82 199.99 1040.02 210.04 1040.02"/><path class="cls-4" d="M307.72,1165.67l33.3,19.67a4.9,4.9,0,0,1,2.4,4.21v3.76a4.89,4.89,0,0,1-6.48,4.63l-43.83-15.07a4.89,4.89,0,0,1-3.3-4.62v-8.37a4.89,4.89,0,0,1,4.89-4.9h10.53A4.87,4.87,0,0,1,307.72,1165.67Z" transform="translate(-96.52 -103.19)"/><path class="cls-5" d="M296.28,1173v6a2.71,2.71,0,0,0,1.79,2.53l33.44,11.94a2.68,2.68,0,0,0,3.59-2.53v-3.66a2.7,2.7,0,0,0-1.62-2.47L300,1170.52A2.69,2.69,0,0,0,296.28,1173Z" transform="translate(-96.52 -103.19)"/><path class="cls-7" d="M201.77,838.94s94.79,9.08,134.89,0c0,0-15.8,286.15-28,317H290.48s-.73-219.88-7.9-249.36c-4.86-20-20.66-15.44-24.3,19.08-1.63,15.42-12.16,229.83-12.16,229.83H231.54L208.45,944.77Z" transform="translate(-96.52 -103.19)"/><path class="cls-8" d="M202.86,856.24s75.47-12.76,96.13,5.41,21.87,155.34,10.94,162.6-21.5-18.15-21.5-18.15L290.48,1156h18.23s31.6-282.51,28-317c0,0-75.34,10-134.89,0Z" transform="translate(-96.52 -103.19)"/><path class="cls-8" d="M215.75,1011.42s11.54,11,21.26-14.42c12.89-33.72-15.8-109,32.81-109a30.56,30.56,0,0,1,9.72,11s-19.44-17.36-21.87,31.7S248,1156,248,1156h-17Z" transform="translate(-96.52 -103.19)"/><polygon class="cls-9" points="106.74 759.44 138.91 749.37 139.27 754.82 107.25 767.6 106.74 759.44"/><polygon class="cls-9" points="240.14 759.44 207.96 749.37 207.6 754.82 239.62 767.6 240.14 759.44"/><path class="cls-9" d="M263.52,843.47s-8,26,0,26.86a81.91,81.91,0,0,0,16,0L277.66,843Z" transform="translate(-96.52 -103.19)"/><path class="cls-10" d="M204.78,856.68s76.72,16.22,131.25,0v-15s-101.67,9.36-132.18,0Z" transform="translate(-96.52 -103.19)"/><path class="cls-11" d="M222,653S265.86,591,237.36,529.88c0,0-171.6,54.74-136,185.41l73.77-20C183.42,691.72,202.9,680.91,222,653Z" transform="translate(-96.52 -103.19)"/><path class="cls-12" d="M305.65,550.07c-.17,71.19,74.44,106.7,74.44,106.7,35.87,17.79,62.52,16.54,70.7,15.56l71.2-25.9C458.75,554.19,305.65,550.07,305.65,550.07Z" transform="translate(-96.52 -103.19)"/><path class="cls-13" d="M207.48,538.71S110.12,562.88,98.71,657.55c0,0,37.87,5.13,75.2,28.87l10.74,64.46,17.46,98s96.15,20.59,135.77-6.27l4.55-91.75,47-95.34s2-67.6,44.58-76.33c0,0-6.31-35.13-132.54-49.9C301.47,529.31,258.5,513.87,207.48,538.71Z" transform="translate(-96.52 -103.19)"/><path class="cls-14" d="M399.81,609.71s-101.32-12.48-110.92-4.62-2.05,63.88-5.55,65.62-15,71.2-15,71.2l-83.92,9.22,4.62,20.33s66.2-5.11,83.66-13.84c0,0,24.44,5.24,39.28,7s26.57,2.06,26.57,2.06l3.93-29.41,40.32-77.49Z" transform="translate(-96.52 -103.19)"/><path class="cls-15" d="M365.44,759.51l-63-1.39a8.77,8.77,0,0,1-8.56-8.46l-4.87-145a5.82,5.82,0,0,1,5.94-6l89.67,2a5.81,5.81,0,0,1,5.65,6.44L374.34,751.72A8.76,8.76,0,0,1,365.44,759.51Z" transform="translate(-96.52 -103.19)"/><path class="cls-16" d="M362,755.21,308.33,754a8.77,8.77,0,0,1-8.56-8.5L295.7,609a5.82,5.82,0,0,1,5.94-6l77.76,1.72a5.82,5.82,0,0,1,5.65,6.42L370.87,747.37A8.75,8.75,0,0,1,362,755.21Z" transform="translate(-96.52 -103.19)"/><circle class="cls-17" cx="274.29" cy="515.71" r="7.86"/><circle class="cls-18" cx="274.29" cy="515.71" r="5.24"/><circle class="cls-19" cx="259.34" cy="515.9" r="3.49"/><path class="cls-20" d="M303.88,679.55c-6.3,1.62-21.47,14.28-21.47,14.28s-1.24-19.5-7.23-27.21L263,668.93l.26,29.08s-66.49,5.74-88.06-10.66a13,13,0,0,1-2.77-1.85L101.3,713.59c0,.4.09.79.14,1.19,0,0,35.92,84.69,195.26,28.93,0,0,21.85-27.48,24.95-29.42s20.75-4,20.75-4l-10.87-32.75S310.18,677.93,303.88,679.55Z" transform="translate(-96.52 -103.19)"/><path class="cls-14" d="M312.92,549.43c0,15.57-24.87,39-55.11,39s-54.39-23.45-54.39-39,24.51-28.17,54.75-28.17S312.92,533.87,312.92,549.43Z" transform="translate(-96.52 -103.19)"/><ellipse class="cls-21" cx="161.64" cy="435.52" rx="44.65" ry="15.33"/><path class="cls-22" d="M212.18,468.89l87.28,4.23-4,67.61s-39.11,14.71-71.84,2Z" transform="translate(-96.52 -103.19)"/><path class="cls-23" d="M215.24,489s19.33,9.45,42,8.11c0,0,5.48-7.39,7-5.38s5.48,6.05,7.82,5.38,19.93-2.06,26-7.54l.93-15.71-85,.92Z" transform="translate(-96.52 -103.19)"/><g id="голоа_папа" data-name="голоа папа"><path class="cls-24" d="M201.36,354.53s-17.72-24.46-29.34-9.12,10.07,44.16,27.57,28.27C199.59,373.68,203.86,368.54,201.36,354.53Z" transform="translate(-96.52 -103.19)"/><path class="cls-25" d="M199.24,363.63s-8.12,1.95-2.76,8.56c0,0-12.71,8.88-21.4-.36-9.22-9.82-5.49-26.2,4-27.09C189.67,343.75,191.82,347.71,199.24,363.63Z" transform="translate(-96.52 -103.19)"/><path class="cls-26" d="M190,347.28s-20.92,4.44-12.32,26.73c0,0,6.41,5.28,18.8-1.82,0,0-3.36-2.92-1.47-5.63a6.4,6.4,0,0,1,4.23-2.93S195.1,349.88,190,347.28Z" transform="translate(-96.52 -103.19)"/><path class="cls-24" d="M310.52,353.18s17.72-24.45,29.34-9.12-10.07,44.17-27.57,28.28C312.29,372.34,308,367.19,310.52,353.18Z" transform="translate(-96.52 -103.19)"/><path class="cls-25" d="M312.64,362.28s8.12,2,2.75,8.57c0,0,12.72,8.87,21.4-.37,9.23-9.81,5.5-26.19-4-27.08C322.21,342.41,320.06,346.36,312.64,362.28Z" transform="translate(-96.52 -103.19)"/><path class="cls-26" d="M321.88,345.94s20.91,4.44,12.32,26.73c0,0-6.41,5.28-18.81-1.82,0,0,3.36-2.92,1.48-5.63a6.4,6.4,0,0,0-4.23-2.94S316.78,348.54,321.88,345.94Z" transform="translate(-96.52 -103.19)"/><path class="cls-27" d="M215.63,262.91s-13.27,78.16-17.69,125.34-11.8,73.73,29.49,92.9,75.2-11.8,75.2-11.8,17.7-16.22,13.27-60.45-17.69-141.56-17.69-141.56S264.29,245.22,215.63,262.91Z" transform="translate(-96.52 -103.19)"/><path class="cls-28" d="M210.16,338c-1.47,0-8.23,24.41-1.34,33.57,4.93,6.55,19.34,5.66,32.62-1.71s25.06-1.48,32.44,1.47c3.23,1.3,9.31,1.74,15.12,1.83a14.18,14.18,0,0,0,14.37-14.19v-11A14.19,14.19,0,0,0,298.32,337c-8.66-7.32-27.84-20-52.46-15.17C211.94,328.53,210.16,338,210.16,338Z" transform="translate(-96.52 -103.19)"/><path class="cls-29" d="M210.47,343.43a1.25,1.25,0,0,1-2.27-.67c-.2-3.39.94-8.81,8.17-14.23,11.79-8.85,26.54-13.27,28-10.32s4.42,8.85-4.43,10.32C232.06,329.85,215.94,335.86,210.47,343.43Z" transform="translate(-96.52 -103.19)"/><path class="cls-29" d="M299.81,343.43a1.25,1.25,0,0,0,2.27-.67c.2-3.39-.94-8.81-8.17-14.23-11.79-8.85-26.54-13.27-28-10.32s-4.43,8.85,4.42,10.32C278.22,329.85,294.34,335.86,299.81,343.43Z" transform="translate(-96.52 -103.19)"/><path class="cls-30" d="M243.71,357.35c0,8.15-7.37,14.75-17.69,14.87-8.14.1-15.39-7.32-15.19-15.46.24-9.44,8-14.1,16.12-14.1S243.71,349.21,243.71,357.35Z" transform="translate(-96.52 -103.19)"/><path class="cls-31" d="M244.39,358c0,8.15-7.38,14.75-17.7,14.87a14.69,14.69,0,0,1-14.75-14.74c0-8.15,7.83-13.52,16-13.52S244.39,349.88,244.39,358Z" transform="translate(-96.52 -103.19)"/><path class="cls-32" d="M234.06,368.34c0,3.26-2.64,4.43-5.9,4.43s-5.89-1.17-5.89-4.43a5.9,5.9,0,0,1,11.79,0Z" transform="translate(-96.52 -103.19)"/><circle class="cls-33" cx="131.64" cy="265.15" r="2.95"/><circle class="cls-34" cx="134.59" cy="263.68" r="1.47"/><path class="cls-30" d="M264.54,357.35c0,8.15,7.38,14.75,17.7,14.87,8.14.1,15.38-7.32,15.18-15.46-.23-9.44-8-14.1-16.11-14.1S264.54,349.21,264.54,357.35Z" transform="translate(-96.52 -103.19)"/><path class="cls-31" d="M263.87,358c0,8.15,7.37,14.75,17.7,14.87a14.68,14.68,0,0,0,14.74-14.74c0-8.15-7.83-13.52-16-13.52S263.87,349.88,263.87,358Z" transform="translate(-96.52 -103.19)"/><path class="cls-32" d="M274.19,368.34c0,3.26,2.64,4.43,5.9,4.43s5.9-1.17,5.9-4.43a5.9,5.9,0,0,0-11.8,0Z" transform="translate(-96.52 -103.19)"/><circle class="cls-33" cx="183.57" cy="265.15" r="2.95"/><circle class="cls-34" cx="180.62" cy="263.68" r="1.47"/><path class="cls-35" d="M228,410.47l-31.9-1.34s-6,29.21,5.37,50c3.75,6.84,10.64,18.3,16.79,22.49,12.57,8.58,28.65,10.57,39.61,10.07,2.06-.09,3.18-4.45,5.37-4.7,1.42-.16,3.87,3.84,5.32,3.61a77.2,77.2,0,0,0,22.21-7c6.74-3.39,13.74-11.46,16.79-15.45,7.94-10.39,11-34.66,9.69-50.23s-1-11.53-1-11.53l-33.7,3.92c5.87,1.09,9.52,2.12,9.52,2.12s10.08,27.53,6.05,34.91-10.07-8.06-10.07-8.06a43.28,43.28,0,0,1-18.8,13.43c-12.76-13.43-24.17,0-24.17,0-20.82-6-20.15-14.77-20.15-14.77s-6,20.14-8.05,10.07,0-30.21,0-30.21" transform="translate(-96.52 -103.19)"/><ellipse class="cls-36" cx="224.02" cy="411.65" rx="10.93" ry="32.51" transform="translate(-286.63 527.87) rotate(-89.36)"/><path class="cls-37" d="M229.63,419s4.83,17.58,12.86,20.28c0,0,20.9,6.76,38.58-4.06L282.68,419S250.53,408.17,229.63,419Z" transform="translate(-96.52 -103.19)"/><path class="cls-38" d="M231.26,418.2s3.2.79,24.09,2.14S282.68,419,282.68,419,250.57,408,231.26,418.2Z" transform="translate(-96.52 -103.19)"/><path class="cls-38" d="M239.64,436.28s22.14-5.12,41.43-2.42A43.71,43.71,0,0,1,239.64,436.28Z" transform="translate(-96.52 -103.19)"/><path class="cls-39" d="M255.35,427.1s-9.64-1.35-11.25,0,4.82,4.06,14.47,4.06,14.46-4.06,9.64-5.41S263.39,424.4,255.35,427.1Z" transform="translate(-96.52 -103.19)"/><ellipse class="cls-36" cx="287.44" cy="411.12" rx="10.93" ry="32.51" transform="translate(-223.38 590.77) rotate(-89.36)"/><ellipse class="cls-35" cx="224.19" cy="409.15" rx="10.93" ry="32.51" transform="translate(-283.96 525.58) rotate(-89.36)"/><ellipse class="cls-35" cx="287.62" cy="408.63" rx="10.93" ry="32.51" transform="translate(-220.71 588.49) rotate(-89.36)"/><path class="cls-40" d="M250.28,359.5s0,21.64-9.07,32.54a8,8,0,0,0-1.9,4.76,3.4,3.4,0,0,0,.65,2.51c1.48,1.48,7.37,4.43,16.22,4.43a27.1,27.1,0,0,0,13.94-3.89,2.24,2.24,0,0,0,1-1.52,7.22,7.22,0,0,0-1.71-6.39s-11.79-7.37-10.32-32.44" transform="translate(-96.52 -103.19)"/><path class="cls-41" d="M239.46,398.4s-1-2,3.45-2h26.54c2.95,0,1.23,3,1.23,3s-4.12,4.41-14.5,4.39C248.81,403.72,239.71,401.75,239.46,398.4Z" transform="translate(-96.52 -103.19)"/><path class="cls-28" d="M211,294.93s17.3-10.68,50.2,10.13c0,0,43,0,46.33,49,0,0,2.18,3.15,3.1,1.57,0,0,13.68-64-44.06-56C266.56,299.69,214.5,270,211,294.93Z" transform="translate(-96.52 -103.19)"/><path class="cls-35" d="M207.34,293.53s-17.17-15.26-9.54-41,21-27.66,32.43-26.71c0,0-1.91-22.89,32.42-18.12S297,225.81,297,233.44c0,0,25.75,3.82,30.52,30.52s6.17,47.19-13.95,87.43c-3.82,7.63-4.7,2.69-4.7,2.69s-.67-21.49-8.53-36.23c-8.72-16.34-17.17-16.21-38.15-15.26C262.18,302.59,237.38,280.65,207.34,293.53Z" transform="translate(-96.52 -103.19)"/><path class="cls-35" d="M207.61,276.65s-11-5-17.78,4.8-11.79,29.43-1.3,47.83,12.9,26.14,12.9,26.14a50,50,0,0,0,2.95-12.93c1.91-16.93,3.2-43.6,9.81-51.53Z" transform="translate(-96.52 -103.19)"/><path class="cls-42" d="M241.19,282.56s7.64,1.91,19.08,8.59S291.75,304.5,307,295s-7.63-43.87-25.76-49.59c0,0,1.91-40.06-30.52-35.29s-15.26,23.84-15.26,23.84-27-11.3-36.36,14.57C191.6,269.21,202.09,298.78,241.19,282.56Z" transform="translate(-96.52 -103.19)"/><path class="cls-43" d="M188.28,283.31a17.75,17.75,0,0,1,13.28,1.43c7.28,3.66,5.85,10,4.57,15.62s-3.37,15.54-5.37,27.53c-2.68,16.11,1.81,20.29-1.34,22.83A74.83,74.83,0,0,1,187,331.13C182.41,320.09,175.4,305,188.28,283.31Z" transform="translate(-96.52 -103.19)"/></g><path class="cls-14" d="M528.2,103.19a29.4,29.4,0,0,0-29.4,29.4c0,16.24,29.4,57.47,29.4,57.47s29.4-41.23,29.4-57.47A29.4,29.4,0,0,0,528.2,103.19Zm0,45.88A13.81,13.81,0,1,1,542,135.26,13.81,13.81,0,0,1,528.2,149.07Z" transform="translate(-96.52 -103.19)"/><path class="cls-44" d="M454.66,1077.57l4,89.09S445.35,1176,440,1180s5.32,8,14.63,6.64,15.53-9,15.53-9,.42-5.63.42-10.95,4-22.6,5.32-33.24,8-34.57,5.32-46.54Z" transform="translate(-96.52 -103.19)"/><path class="cls-7" d="M439.83,1179.68s-14.48-4.14-15.75,6.92c-.43,3.74,15.95,5.32,31.91,2.66s15.95-5.32,15.95-8,0-5.31-1.33-5.31-9.19,6.64-17.28,6.64C444,1182.61,439.14,1182.44,439.83,1179.68Z" transform="translate(-96.52 -103.19)"/><path class="cls-44" d="M553.93,1068.34a24.75,24.75,0,0,0-20.26,30.28c5.23,21.62,11.69,50,11.48,57.56-.33,12.7-2.42,24-1.95,28.69s4.12,9.08,13.35,5,8-11.89,8-11.89a12.56,12.56,0,0,1-7-10.37c-.78-7.84.73-57.06-.36-68s-1.54-31.51-1.54-31.51Z" transform="translate(-96.52 -103.19)"/><path class="cls-7" d="M543.73,1180.17s.94,9.4,10.33,6.88,10.67-5.82,10.2-10.52c0,0,10.64,10,0,15.83S538.93,1196.47,543.73,1180.17Z" transform="translate(-96.52 -103.19)"/><path class="cls-45" d="M433.19,808.15s80.59,16.61,134.79,5.64a8,8,0,0,1,9.58,7.88c-.33,32.06-2.38,132.94-15,207.19l8.84,112.51s-6,15.33-50.15,2.11c0,0,3.72-64.79.76-105.93s-18.93-185.68-18.93-185.68l-5.37,6.6L488,1034.66,493,1140s-28.13,33.69-56.69-.77l12.4-96.89s.28-27.22-7.39-66.54S415.22,866.63,433.19,808.15Z" transform="translate(-96.52 -103.19)"/><path class="cls-46" d="M493.07,844l-57.8,1,24.43,13-26,4s21.65,179.41,30.39,154.59S483,860.15,483,860.15L464.54,852Z" transform="translate(-96.52 -103.19)"/><path class="cls-46" d="M509.79,845.07l54.06,1.4-23,11.94,24.31,3.93S543.47,1030,535.5,1006.71s-16.43-146.45-16.43-146.45l17.34-7.46Z" transform="translate(-96.52 -103.19)"/><path class="cls-47" d="M449.72,673.49,459,652.23l-10.13-15.94c-25.47,23.39-31.74,52.5-33.23,63.26a116.15,116.15,0,0,1,23.27,2.86Z" transform="translate(-96.52 -103.19)"/><path class="cls-48" d="M520.52,622.42a60.5,60.5,0,0,1-39.37,1c-9.76-3.06-21.64-7.34-29.82-12.16-16.22-9.54-39-26.53-39.76-89.44,0,0,3.84-82.86,45.63-81.45,0,0,11.56-20.39,34.78-9.91s78.16,34.12,85.36,76.05c4.68,27.3,16.14,45-25.6,95.51C551.74,602,542.68,614.1,520.52,622.42Z" transform="translate(-96.52 -103.19)"/><path class="cls-24" d="M452.45,551.81s-14.54-9.81-17.82.87,14.28,22.09,20.67,9.94C455.3,562.62,456.6,559,452.45,551.81Z" transform="translate(-96.52 -103.19)"/><path class="cls-25" d="M453.11,557.2s-4.05,2.68.2,5.22c0,0-5.18,7.37-11.75,4.06-7-3.52-8.21-13.2-3.21-15.57C443.93,548.26,445.89,550,453.11,557.2Z" transform="translate(-96.52 -103.19)"/><path class="cls-26" d="M444.81,550.12s-10.53,6.59-1.4,17c0,0,4.55,1.61,9.9-4.73,0,0-2.42-.92-1.93-2.78a3.74,3.74,0,0,1,1.73-2.44S448.11,550.53,444.81,550.12Z" transform="translate(-96.52 -103.19)"/><path class="cls-49" d="M496.8,574.73l1.41,19.19a23.09,23.09,0,0,1-21.35,24.73h0s-11.61,25.94,13.76,29.87,79.09-27,79.09-27-52.44-30.9-51.79-48.32Z" transform="translate(-96.52 -103.19)"/><polygon class="cls-50" points="401.25 497.41 431.05 486.84 421.48 469.98 400.3 484.51 401.25 497.41"/><path class="cls-27" d="M444.23,502.59s-26.6,24.18,2.23,52c0,0,9.32,47.12,54.7,36.66s43-40.61,49.84-67.43c0,0-7.67-48.86-43.67-54.58s-42.81-14.87-42.81-14.87S464.59,489.88,444.23,502.59Z" transform="translate(-96.52 -103.19)"/><path class="cls-51" d="M446.91,527.32c-1,.38-.33,17.11,6.57,21,4.94,2.76,14.89-1.49,22.58-9.42s17.31-7.35,23.16-7.43c2.57,0,6.94-1.32,11-2.76,5.59-1.95,8.71-7.54,6.93-12.4l-1.73-7.19c-.94-2.57-3.3-6.28-6.15-7.12-7.74-2.28-24.66-3-40.9,6.29C446.05,521.07,446.91,527.32,446.91,527.32Z" transform="translate(-96.52 -103.19)"/><path class="cls-50" d="M461.74,480.46s20.15,20.2,44.64,28,31.67,3.21,31.67,3.21.7-17,.38-17.85-55.71-36.74-55.71-36.74-11-5.84-12.4-4.33-11.61,3.25-12.16,4.43S461.74,480.46,461.74,480.46Z" transform="translate(-96.52 -103.19)"/><path class="cls-52" d="M487.37,501.85l.2,3.07a.61.61,0,0,0,.88.56c2.27-1.26,9.06-4.29,21-3.48,0,0-9.31-6.2-21.74-.76A.67.67,0,0,0,487.37,501.85Z" transform="translate(-96.52 -103.19)"/><path class="cls-53" d="M412.39,536.64A15.49,15.49,0,0,1,427.77,530s13.49-19.76,26.16-35c11.47-13.76,9.8-34.15,9.39-37.87.64,4,6.84,28.11,64.62,46.53,51.37,16.38,25.25,92.91,25.25,92.91S582.9,576,580.57,539.18s-4-58.83-38.53-82.08-61.36-34.24-72.17-26.75S458,441,458,441s-17.47-7.88-32.41,22.49S410.5,523.54,412.39,536.64Zm74.15-67.84s8.95,10.59,30.79,17.85c0,0,9.15,1.65,11.86,10.17,0,0-6.66-5-20.59-8.92S489,475.86,486.54,468.8Z" transform="translate(-96.52 -103.19)"/><path class="cls-54" d="M567.6,481.67,536.46,507.3s10.95,4.77,15,14.18c0,0,15.84-18.48,19-34.79Z" transform="translate(-96.52 -103.19)"/><path class="cls-54" d="M459.13,486.64s-22.12,2.22-38.42-11.93c0,0-5.26,13.55-5.15,18.2,0,0,17.57,11.62,34,7.48C449.56,500.39,457.49,492.61,459.13,486.64Z" transform="translate(-96.52 -103.19)"/><path class="cls-54" d="M494.4,480.21c4.36,4.31,12.74,7.21,14,7.63a98.24,98.24,0,0,1-10.3,3.82l-13.82-8.27C487.91,482.38,491.26,481.31,494.4,480.21Z" transform="translate(-96.52 -103.19)"/><path class="cls-54" d="M500.28,478c28.49-11.46,34.83-25.46,34.83-25.46,3.06,2.91,10.47,7.77,10.47,7.77C537.22,472,524.63,480,514.52,485,509.71,482.77,504.49,480.15,500.28,478Z" transform="translate(-96.52 -103.19)"/><path class="cls-24" d="M535.9,511s5.77-20.27,17.05-13,3.95,31.36-11.32,25.13C541.63,523.08,537.61,520.72,535.9,511Z" transform="translate(-96.52 -103.19)"/><path class="cls-25" d="M539.46,516.4s5.79-.66,3.85,5c0,0,10.46,2.78,13.94-5.36,3.7-8.64-2.66-18.48-9.09-16.79C541,501.09,540.52,504.19,539.46,516.4Z" transform="translate(-96.52 -103.19)"/><path class="cls-26" d="M541.61,503.48s14.77-2.09,14.46,14.57c0,0-2.94,5-12.76,3.31,0,0,1.51-2.72-.37-4.05a4.52,4.52,0,0,0-3.48-.91S538.89,506.41,541.61,503.48Z" transform="translate(-96.52 -103.19)"/><path class="cls-37" d="M481.86,570.64l.4,1,1.88-.1c2.12,2.69,6.09,7.88,10,8.52a14.08,14.08,0,0,0,16-17.79l-.46-1.73S494.91,569,481.86,570.64Z" transform="translate(-96.52 -103.19)"/><path class="cls-38" d="M491.75,577.91s6,2.63,14.86-5.19C506.61,572.72,501.8,583.43,491.75,577.91Z" transform="translate(-96.52 -103.19)"/><path class="cls-38" d="M485.11,570.82s4.17.79,11.71-2.28A51.41,51.41,0,0,0,507.13,563s-.84,4.39-6.44,6.92A66.77,66.77,0,0,1,490.62,573C488.24,573.34,488,571.72,485.11,570.82Z" transform="translate(-96.52 -103.19)"/><path class="cls-39" d="M497.79,574s-5.33,1.07-5.89,2.15,3.37,1.4,8.42-.44,6.72-5.09,3.92-4.94S501.43,570.93,497.79,574Z" transform="translate(-96.52 -103.19)"/><path class="cls-55" d="M486.52,574.44s14.83-8.53,23.87-10.78l-.81-3.14s-18.69,10.18-26,10.06l.86.8Z" transform="translate(-96.52 -103.19)"/><path class="cls-52" d="M457.84,513.49l.89,1.8a1.19,1.19,0,0,1-1,1.6,24.12,24.12,0,0,0-16,10.33s4.16-10.75,14.79-14.22A1.09,1.09,0,0,1,457.84,513.49Z" transform="translate(-96.52 -103.19)"/><path d="M470.46,531.17c2.06,5.65-1.38,12.1-8.52,14.8a11.49,11.49,0,0,1-14.45-6.89c-2.23-6.61,2-11.8,7.62-13.86S468.4,525.52,470.46,531.17Z" transform="translate(-96.52 -103.19)"/><path class="cls-31" d="M471.1,531.46c2.06,5.66-1.39,12.11-8.52,14.8a10.85,10.85,0,0,1-14-6.5c-2.06-5.65,2-11.36,7.67-13.42S469,525.81,471.1,531.46Z" transform="translate(-96.52 -103.19)"/><path class="cls-56" d="M468.55,538c1.39,3.82-1.21,6.32-5,7.71s-7.41,1.15-8.8-2.67a7.36,7.36,0,0,1,13.83-5Z" transform="translate(-96.52 -103.19)"/><circle class="cls-33" cx="365.11" cy="437.29" r="3.68"/><circle class="cls-34" cx="367.93" cy="434.3" r="1.84"/><path d="M449.63,528.76s-5.13,4.23-8.61,5.5c0,0,1.68,2,5.93.11C447,534.37,448.77,529.67,449.63,528.76Z" transform="translate(-96.52 -103.19)"/><path d="M490.84,523.73c2.06,5.66,8.85,8.37,16.05,5.84A11.48,11.48,0,0,0,513.51,515c-2.55-6.49-9.1-7.77-14.75-5.71S488.78,518.08,490.84,523.73Z" transform="translate(-96.52 -103.19)"/><path class="cls-31" d="M490.54,524.37c2.07,5.65,8.85,8.37,16,5.84a10.84,10.84,0,0,0,6.5-14c-2.06-5.65-8.86-7.4-14.51-5.33S488.48,518.72,490.54,524.37Z" transform="translate(-96.52 -103.19)"/><path class="cls-56" d="M495.81,528c1.39,3.81,5,4.05,8.81,2.66s6.41-3.89,5-7.71a7.36,7.36,0,0,0-13.83,5Z" transform="translate(-96.52 -103.19)"/><circle class="cls-33" cx="406.2" cy="422.3" r="3.68"/><circle class="cls-34" cx="407.44" cy="418.23" r="1.84"/><path d="M505.23,508.48s6.65-.07,10.13-1.33c0,0,0,2.58-4.47,3.9C510.89,511.05,506.47,508.62,505.23,508.48Z" transform="translate(-96.52 -103.19)"/><path class="cls-57" d="M478,531.17s5.29,14.49,3.35,23.47a6.82,6.82,0,0,0,.2,3.54,3,3,0,0,0,.94,1.56c1.11.72,4.82,1.6,9.31,0a12.25,12.25,0,0,0,6.12-5.19,1.67,1.67,0,0,0,.15-1.2,6.38,6.38,0,0,0-2.43-4s-7.78-2.76-13.15-19.82" transform="translate(-96.52 -103.19)"/><path class="cls-58" d="M482,559.22s-1-1.18,1.25-2l13.46-4.91c1.49-.54,1.35,1.78,1.35,1.78s-1,3.71-6.28,5.62C488.06,561.06,483,561.42,482,559.22Z" transform="translate(-96.52 -103.19)"/><path class="cls-42" d="M495.93,606s-29.57-6.47-33.27,5.55-17.05,27.14-17.05,27.14L459,649.45Z" transform="translate(-96.52 -103.19)"/><path class="cls-42" d="M490.41,610.64S523.69,626.35,556,619c0,0,15.07.68,18.49,6.47,12,20.34,10.17,37,10.17,37l-22.19,6.47-1.85-12-3,16.79c-6.71,36.92-18.16,62.46-.1,95.36,13.25,24.15,20,29,20,59,0,0-68,25-147-9a177.87,177.87,0,0,1,11-35c7-16.22,16.56-16.18,18.4-45.44.73-11.61-4.93-24.91-6.4-41.56,0,0-16.7-23.51-10.23-33.68s4.32-16.24,26.8-37.9S490.41,610.64,490.41,610.64Z" transform="translate(-96.52 -103.19)"/><path class="cls-35" d="M443.25,663.32s41.59,17.56,72.09,12,45.29-18.48,45.29-18.48h0a253.63,253.63,0,0,0,10,128.79c5.39,15.49,5,19.67,6.89,42.36l-25,6S557.86,714.16,459,696.59C459,696.59,434,680,443.25,663.32Z" transform="translate(-96.52 -103.19)"/><path class="cls-59" d="M560.63,656.85s19.35,65.88,13.2,86.55-9.5,37.09-24.12,43.2c0,0-6.75-8.87-7.69-20.32l13-17.6-15.65.6V738.19l11.4-3.17-4-7.92Z" transform="translate(-96.52 -103.19)"/><path class="cls-60" d="M562.48,667V719.7s-77.64,38.82-93.35,49H447l-8.32,9.24,8.32,4.62s-9.25,12.94-8.32,17.57,6.47,8.31,17.56,7.39,26.8-25,26.8-25,68.4-9.24,95.21-44.36c0,0,24-34.2,6.47-75.8Z" transform="translate(-96.52 -103.19)"/><path class="cls-27" d="M483.23,775.57l-14.07-8.17c-4.91-14.52-30.53-67.11-30.53-67.11l.24-.65a115.43,115.43,0,0,0-23.27-2.86c-.38,2.7-.45,4.25-.45,4.25-.5,40.05,38.3,73.18,38.3,73.18s-2,26.43,4.56,31.31,11.94,3.74,14.84.11,3.47-18.15,3.47-18.15l7.58-.91Z" transform="translate(-96.52 -103.19)"/><path class="cls-61" d="M337.92,596.73s-.15-2.18-.34-6.1l4-.2c.19,3.86.34,6,.34,6Z" transform="translate(-96.52 -103.19)"/><path class="cls-61" d="M337.1,578.56c-.12-4-.21-8-.27-12.09l4.05-.05c.06,4,.15,8.08.27,12Zm3.7-24.16h-4c0-4.06,0-8.13.11-12.1l4.05.08C340.85,546.31,340.81,550.36,340.8,554.4Zm.44-24.06-4.05-.14c.15-4.05.33-8.12.54-12.09l4,.22C341.56,522.27,341.38,526.31,341.24,530.34Zm1.3-24-4-.3c.3-4.08.65-8.14,1-12.07l4,.4C343.19,498.25,342.84,502.28,342.54,506.33Zm2.37-23.91-4-.5c.52-4.1,1.09-8.14,1.69-12l4,.63C346,474.36,345.42,478.36,344.91,482.42Zm3.74-23.69-4-.77c.8-4.1,1.67-8.09,2.59-11.87l3.93,1C350.3,450.76,349.44,454.7,348.65,458.73Zm60.6-15.12a33.77,33.77,0,0,1-8.27-1.09l1-3.92a28.89,28.89,0,0,0,8.5.93,22.4,22.4,0,0,0,2.61-.28l.66,4a28,28,0,0,1-3.07.32C410.21,443.59,409.73,443.61,409.25,443.61Zm16.29-5.79-2.63-3.08a24.23,24.23,0,0,0,6.42-9l3.71,1.6A28.16,28.16,0,0,1,425.54,437.82Zm-36.16-.1a64.63,64.63,0,0,1-10.14-7.18l2.63-3.07a62,62,0,0,0,9.51,6.74Zm-35.05-2.21-3.87-1.17c1.24-4.06,2.57-7.95,4-11.55l3.78,1.46C356.84,427.76,355.54,431.55,354.33,435.51Zm16.21-13.75a81.46,81.46,0,0,1-7-9.5l-.6,1.16-3.61-1.83A86.14,86.14,0,0,1,365.7,401l3.31,2.33a78.89,78.89,0,0,0-4.88,7.92l2.6-1.6a77.68,77.68,0,0,0,6.89,9.5ZM436,415l-4-.28c.06-.88.09-1.77.09-2.66a37.7,37.7,0,0,0-1-8.7l3.93-.94a41.39,41.39,0,0,1,1.12,9.64C436.05,413.09,436,414.07,436,415ZM357.62,400.8A74.48,74.48,0,0,1,353.76,389l3.93-.93a71.23,71.23,0,0,0,3.66,11.12Zm19-6.25-2.75-3A44,44,0,0,1,383,385l1.13-.58L386,388l-1.06.55A39.68,39.68,0,0,0,376.58,394.55Zm50-1.52a23.84,23.84,0,0,0-8-7.59l2-3.51a27.9,27.9,0,0,1,9.33,8.85Zm-29.81-9.27-1.07-3.9a39.71,39.71,0,0,1,12.56-1.5l-.22,4A35.38,35.38,0,0,0,396.77,383.76Zm-44.78-7c-.05-1.07-.08-2.17-.08-3.25a62.13,62.13,0,0,1,.67-9.16l4,.59a58.23,58.23,0,0,0-.63,8.57c0,1,0,2,.08,3.05Zm7.44-23.08-3.81-1.38A66,66,0,0,1,361,341.1l3.47,2.07A61.57,61.57,0,0,0,359.43,353.69Zm11.84-20-3.08-2.62a86,86,0,0,1,8.65-8.77l2.68,3A85.44,85.44,0,0,0,371.27,333.68ZM388.81,318l-2.31-3.32c2.13-1.48,4.39-2.95,6.71-4.36,1.22-.73,2.48-1.44,3.76-2.1l1.86,3.59c-1.2.62-2.38,1.28-3.52,2C393.06,315.17,390.88,316.59,388.81,318Zm20.83-10.58-1.18-3.87a78.25,78.25,0,0,1,12.07-2.64l.56,4A74,74,0,0,0,409.64,307.45Zm35-2.6a100.37,100.37,0,0,0-11.65-.69h-.13v-4.05H433a103.92,103.92,0,0,1,12.12.72Z" transform="translate(-96.52 -103.19)"/><path class="cls-61" d="M462,308.45s-2.13-.72-5.66-1.55l.92-3.94c3.75.89,6,1.63,6,1.66Z" transform="translate(-96.52 -103.19)"/><circle class="cls-14" cx="436.38" cy="202.27" r="80.57"/><circle class="cls-21" cx="436.38" cy="202.27" r="72.28"/><path class="cls-62" d="M567.27,367.94c-.38-8.39-.78-17.35-9.11-19.8-13.11-3.85-17.79,0-30.9,0s-8.23,8.61-8.23,8.61-3,8.65-6.11,18.95C531.5,378.05,551.22,376.65,567.27,367.94Z" transform="translate(-96.52 -103.19)"/><path class="cls-63" d="M564.07,369.55c-.34-8.22-.89-16.8-8.33-19.19-12-3.86-16.34,0-28.39,0s-7.56,8.65-7.56,8.65-2.41,7.53-5,16.91C531.58,377.81,549.19,376.55,564.07,369.55Z" transform="translate(-96.52 -103.19)"/><path class="cls-64" d="M501.68,371.25c3.27,1,6.67,2,10.15,2.74C510.75,370.16,508,367.77,501.68,371.25Z" transform="translate(-96.52 -103.19)"/><path class="cls-65" d="M561.09,372.33a55.1,55.1,0,0,0,5.83-2.6C563.9,369.05,562.12,370.28,561.09,372.33Z" transform="translate(-96.52 -103.19)"/><path class="cls-9" d="M537.69,361.19c7.34,0,14.76-2.39,14.76-4.42s-7.42-2.22-14.76-2.22-15.5.18-15.5,2.22S530.35,361.19,537.69,361.19Z" transform="translate(-96.52 -103.19)"/><path class="cls-66" d="M527.28,344.26l3.34,7.81c.1.79-.41,3.76-1.42,4.21l-.15.06a27.63,27.63,0,0,0,5,1,32.67,32.67,0,0,0,13.4-1.39,138.67,138.67,0,0,0-9.2-11.72Z" transform="translate(-96.52 -103.19)"/><polygon class="cls-67" points="433.79 248.41 447.07 247.67 441.62 237.46 431.25 242.92 433.79 248.41"/><path class="cls-24" d="M497.94,312.62s-8.75-10.93-13.79-3.57,5.65,20.23,13.4,12.49C497.55,321.54,499.41,319.06,497.94,312.62Z" transform="translate(-96.52 -103.19)"/><path class="cls-25" d="M497.17,316.89s-3.72,1.08-1.09,4c0,0-5.69,4.39-9.92.3-4.49-4.34-3.13-12,1.25-12.63C492.29,307.89,493.37,309.68,497.17,316.89Z" transform="translate(-96.52 -103.19)"/><path class="cls-26" d="M492.52,309.52s-9.59,2.52-5.11,12.65c0,0,3.09,2.31,8.67-1.25,0,0-1.62-1.28-.81-2.58a3,3,0,0,1,1.9-1.45S494.94,310.61,492.52,309.52Z" transform="translate(-96.52 -103.19)"/><path class="cls-27" d="M494.88,271.89c-5.09,8.82-7.28,27.83,2,44.24,0,0-14.73,35.51,31.77,32.15,24.07-1.74,44.07-20.66,44-37.1,0-2.28,1.48-5.24,1.92-7.5,1.12-5.74,6.64-3.74,5.9-18.51-1.11-22.16-21.35-34.73-37.64-36.9C524.66,245.85,506,252.7,494.88,271.89Z" transform="translate(-96.52 -103.19)"/><path class="cls-51" d="M580.5,283.7c-1.11-22.17-21.35-34.73-37.64-36.91-18.2-2.42-36.9,4.43-48,23.62-2.36,4.11-4.1,10.41-4.35,17.63a13.19,13.19,0,0,0,13.21-5.82c2.22,3.69,6.64,2.95,8.86.74,3.69-2.95,7.38-.74,11.81-1.48,0-.73.73-2.21,1.47-2.21,3.69,1.48,8.12,0,8.86-3.69.74,5.17,10.33,5.17,14.76,2.21-.74,1.48-1.48,3-.74,3.69,4.43,3.69,10.34,3,15.5,3-2.21.73-1.47,3.69-1.47,4.42,3.69,3,8.11,2.22,12.54,2.22-1.47,0-3,2.21-2.21,2.21a8.13,8.13,0,0,0,6.41.52C580.29,291.7,580.75,288.64,580.5,283.7Z" transform="translate(-96.52 -103.19)"/><path class="cls-51" d="M498.06,297.8c-.88,0-4.31,13,0,17.55,3.1,3.28,11.7,2.4,19.44-1.83s14.94-1.48,19.42-.16c2,.59,5.61.64,9.08.52,4.73-.16,8.43-3.68,8.23-7.81l.39-5.89c-.1-2.18-1-5.57-3-6.89-5.36-3.57-18.09-8.14-32.67-4.91C498.89,292.83,498.06,297.8,498.06,297.8Z" transform="translate(-96.52 -103.19)"/><path class="cls-24" d="M571.27,301.28s9.21-14.08,16.08-5.86-4.43,24.84-14.59,16.47C572.76,311.89,570.25,309.14,571.27,301.28Z" transform="translate(-96.52 -103.19)"/><path class="cls-25" d="M572.69,306.29s4.57.86,1.76,4.69c0,0,7.31,4.6,11.9-.77,4.87-5.71,2.36-14.73-2.94-15C577.49,295,576.4,297.23,572.69,306.29Z" transform="translate(-96.52 -103.19)"/><path class="cls-26" d="M577.4,297s11.75,1.91,7.56,14.54c0,0-3.42,3.11-10.51-.51,0,0,1.79-1.72.67-3.17a3.57,3.57,0,0,0-2.43-1.52S574.63,298.53,577.4,297Z" transform="translate(-96.52 -103.19)"/><path class="cls-68" d="M519.8,331.19h0c1.56,1.22,6.66,2.95,8.94,2.77,6.09-.48,8.16-5.49,5.23-10.85l-.5-.91S526.91,328.45,519.8,331.19Z" transform="translate(-96.52 -103.19)"/><path class="cls-38" d="M519.8,331.19a42.64,42.64,0,0,0,8-4.4,32.81,32.81,0,0,0,5.59-4.61s-.47,4.38-3.27,6.58a19.71,19.71,0,0,1-5.63,3.11A6.7,6.7,0,0,1,519.8,331.19Z" transform="translate(-96.52 -103.19)"/><path class="cls-69" d="M530.82,331.31s-2.85,1.33-3,2,2.09.32,4.67-1.41,3.08-3.79,1.53-3.32S532.45,329.07,530.82,331.31Z" transform="translate(-96.52 -103.19)"/><path class="cls-55" d="M522.9,332.63c-.6.58,6.61-6.2,11.44-8.76l-.89-1.65a46.46,46.46,0,0,1-13.65,9l1,.6Z" transform="translate(-96.52 -103.19)"/><path class="cls-70" d="M517.16,315.33s.32-.68,1-1.92c1.18-2.13,3.08-.49,4-1.67,4-5,5-5.14,4.46,1.27a9.27,9.27,0,0,0,.53,2.71s-1.13,4.1-4.45,4.24C520.38,320.05,517.38,318.39,517.16,315.33Z" transform="translate(-96.52 -103.19)"/><path class="cls-30" d="M513.11,303.54c.22,6.2-3.86,11.37-9.82,11.68-4.7.24-7.59-4-8.57-10.12a67.24,67.24,0,0,1-.69-10.41s4.23-1.86,6.13-1.93C509.58,292.43,512.89,297.35,513.11,303.54Z" transform="translate(-96.52 -103.19)"/><path class="cls-31" d="M513.09,304.05c.47,12.11-3.1,14.06-10.46,12.5-6.51-1.38-7.61-5.56-7.83-11.75s.07-10.63,8.64-10.6A9.88,9.88,0,0,1,513.09,304.05Z" transform="translate(-96.52 -103.19)"/><path class="cls-32" d="M508.16,306.06c.93,4.42-.78,8.45-4,9.12s-6.78-2.25-7.7-6.67.95-8.54,4.18-9.22S507.24,301.65,508.16,306.06Z" transform="translate(-96.52 -103.19)"/><ellipse class="cls-33" cx="502.31" cy="307.29" rx="5.43" ry="6.03" transform="translate(-174.59 104.58) rotate(-21.73)"/><ellipse class="cls-34" cx="503.73" cy="302.1" rx="1.85" ry="2" transform="translate(-147.73 6.4) rotate(-11.82)"/><path class="cls-30" d="M533.8,301.88c.22,6.2,4.66,11.07,10.62,10.95,4.71-.1,7.29-4.54,7.83-10.7a68.33,68.33,0,0,0,0-10.44s-4.35-1.55-6.25-1.48C536.52,290.55,533.58,295.69,533.8,301.88Z" transform="translate(-96.52 -103.19)"/><path class="cls-31" d="M533.85,302.39c.4,12.11,4.1,13.8,11.33,11.72,6.39-1.84,7.19-6.08,7-12.28s-.83-10.6-9.37-10A9.9,9.9,0,0,0,533.85,302.39Z" transform="translate(-96.52 -103.19)"/><path class="cls-32" d="M547.74,306.24c0,4.71-2.6,8.46-6,8.46s-6.43-3.75-6.43-8.45,2.79-8.53,6.24-8.53S547.74,301.54,547.74,306.24Z" transform="translate(-96.52 -103.19)"/><ellipse class="cls-33" cx="541.5" cy="306.24" rx="5.66" ry="6.29" transform="translate(-141.16 -5.41) rotate(-9.91)"/><ellipse class="cls-34" cx="447.27" cy="198.7" rx="2.16" ry="2.37"/><path class="cls-71" d="M523.15,305.68a5,5,0,0,1-.95,5.43c-1.52,1.41-2.35.86-4,1.34-.58.17-.94.2-1.33.7-1.08,1.34.06,4,.86,5.11,2.67,3.82,8.8,3.25,9.63-1.65.06-.34-.48-.49-.54-.14-.86,5.14-8.33,4.77-9.4,0-.77-3.49,1.86-3.12,3.78-4,2.69-1.29,3.45-4.22,2.44-6.88-.13-.33-.67-.19-.54.15Z" transform="translate(-96.52 -103.19)"/><path class="cls-25" d="M559.83,320.6c0,2.91-.6,10.33-5.9,10.33s-11.07-7.33-11.07-10.24,4.29-5.26,9.59-5.26S559.83,317.7,559.83,320.6Z" transform="translate(-96.52 -103.19)"/><path class="cls-25" d="M508.17,324.29c0,4.33-4.86,8.12-8.12,8.12s-5.17-1.3-5.17-5.63,2.65-7.84,5.91-7.84S508.17,320,508.17,324.29Z" transform="translate(-96.52 -103.19)"/><path class="cls-42" d="M513.17,277.58c-3.38.59-6.75,1.36-10.08,2.28C505.8,281.28,510.7,279,513.17,277.58Z" transform="translate(-96.52 -103.19)"/><path class="cls-42" d="M521.69,276.44c-2,.18-4,.41-5.93.71C519,278.45,520.76,277.64,521.69,276.44Z" transform="translate(-96.52 -103.19)"/><path class="cls-42" d="M502.33,279.29a16.13,16.13,0,0,0-1.15-3.1A4.65,4.65,0,0,0,502.33,279.29Z" transform="translate(-96.52 -103.19)"/><path class="cls-42" d="M592.59,265.58c4.11-4.33-3.73-8.19-3.73-8.19,4.09-3.44,5.78-7,4.46-16s-16.41-9.55-16.41-9.55a10.2,10.2,0,0,0,.27-9c-2.25-4.56-10.47,4.11-10.47,4.11s-3.7-9.1-11.57-12.07-15.23,3.94-15.23,3.94.9-3.56-3-7.28-5.7,4.28-5.7,4.28c-2.2-6.35-4.55-7.33-10.17-5.74-4.52,1.28-3,6.25-2.19,8.15.65.41.33.74.33.74s-.14-.28-.33-.74c-.83-.53-4-4.49-10.72-4.73-11.92-.43-14,14.76-14,14.76a5.88,5.88,0,0,0-6.65-1.47c-4,1.64,0,6.64,0,6.64s-6.51-4.39-14.76,5.17,1.48,18.45,1.48,18.45-7.82,1.22-8.12,11.07,12.55,8.12,12.55,8.12,0,0-.23,2.32c-.51,5.15,4.66,8.75,12,8,5.24-.52,11.8-6.64,12-6.62l-.15-.74a4.65,4.65,0,0,1-1.15-3.1,16.13,16.13,0,0,1,1.15,3.1,3,3,0,0,0,.76.57c3.33-.92,6.7-1.69,10.08-2.28.93-.52,1.52-.91,1.52-.91.38.19.73.34,1.07.48,2-.3,4-.53,5.93-.71a6,6,0,0,0,1.06-3.06c-.22,7.16,10.38-1.42,10.38-1.42,3,7.27,8.82-2.37,8.82-2.37-1.86,8.89,14.94,5.91,14.94,5.91,1.32,9,7.1,2.05,7.1,2.05-1,6.23,4.6,5.54,4.6,5.54a4.81,4.81,0,0,0-.93,4.77,3,3,0,0,0,4,1c2.22-.73,3.69-2.95,3.69-5.9,0,4.43,4.43,4.43,7.38,3.69.32-.16.66-.35,1-.56,2.67-8.5.85-18.11.85-18.11S588.48,269.92,592.59,265.58Z" transform="translate(-96.52 -103.19)"/><path class="cls-42" d="M518.89,218.31c.19.46.33.74.33.74S519.54,218.72,518.89,218.31Z" transform="translate(-96.52 -103.19)"/><path class="cls-35" d="M508.84,233.46s1.09-9.82,10.52-5.9c0,0-5.16-7.07-10.25-3.05C505.85,227.08,508.84,233.46,508.84,233.46Z" transform="translate(-96.52 -103.19)"/><path class="cls-35" d="M489.25,249.78s-7.18.64-2.6,7.07c0,0-8.41-1-5.34-7.36C483,246,489.25,249.78,489.25,249.78Z" transform="translate(-96.52 -103.19)"/><path class="cls-35" d="M553.5,229.69s2.58-6.18,5.68-3.38,2.22,5.45,2.22,5.45,4.22-6.44-.5-9.87C557,219.06,553.59,227,553.5,229.69Z" transform="translate(-96.52 -103.19)"/><path class="cls-35" d="M577,241.28s4.9-4.3,6.14,7.39c0,0,4.4-12.38-2.8-12.64C577.18,235.91,577,241.28,577,241.28Z" transform="translate(-96.52 -103.19)"/><path class="cls-35" d="M549.12,247.94s-1.35,12.13-13,7.29c0,0,6.38,8.73,12.67,3.77C552.82,255.82,549.12,247.94,549.12,247.94Z" transform="translate(-96.52 -103.19)"/><path class="cls-35" d="M568.62,275.17s9.07-.8,3.28-8.93c0,0,10.62,1.27,6.76,9.29C576.51,280,568.62,275.17,568.62,275.17Z" transform="translate(-96.52 -103.19)"/><path class="cls-35" d="M497.51,271s-3,7.27-6.68,4-2.62-6.42-2.62-6.42-5,7.58.59,11.62C493.38,283.5,497.41,274.15,497.51,271Z" transform="translate(-96.52 -103.19)"/><path class="cls-35" d="M513.42,257.19s-3.62,3.18-4.54-5.46c0,0-3.25,9.15,2.07,9.34C513.3,261.16,513.42,257.19,513.42,257.19Z" transform="translate(-96.52 -103.19)"/><ellipse class="cls-35" cx="498.57" cy="286.36" rx="7.08" ry="2.01" transform="translate(-163.6 80.14) rotate(-19.55)"/><ellipse class="cls-35" cx="543.25" cy="282.97" rx="2.05" ry="6.96" transform="matrix(0.15, -0.99, 0.99, 0.15, 84.88, 674.01)"/><path class="cls-8" d="M514.5,385.32l.31-.51S514.69,385,514.5,385.32Z" transform="translate(-96.52 -103.19)"/><path class="cls-8" d="M570,368.05c-4.45-8.61-11.08-16.76-19-12a31.58,31.58,0,0,1-26.57,0s-11.07-5.91-17,5.16c-1.9,3.57-3.8,7.05-5.5,10.14C524.61,381.29,549.76,380.12,570,368.05Z" transform="translate(-96.52 -103.19)"/><path class="cls-62" d="M526.61,354.46s.75-5.81-4.42-2.86c0,0-12.48,5-14.17,22.58,3,.78,6.34,1.81,9.48,2.37C520,366.65,523.14,354.79,526.61,354.46Z" transform="translate(-96.52 -103.19)"/><path class="cls-62" d="M554.93,354.83s-1.79-5.58-5.21-.71c0,0-8.54,7.15-2.6,22.43,4.74,0,5.93-1.19,8.3-2.37C553.41,365.38,552.16,356.47,554.93,354.83Z" transform="translate(-96.52 -103.19)"/></g></g></svg>