<svg xmlns="http://www.w3.org/2000/svg" xmlns:xlink="http://www.w3.org/1999/xlink" viewBox="0 0 701.44 852.81"><defs><style>.cls-1{isolation:isolate;}.cls-2{fill:#c2ddd4;}.cls-3{fill:#fec349;}.cls-4{fill:#fec247;}.cls-5{fill:#fe9c28;}.cls-6{fill:#fecd69;}.cls-7{fill:#fe9812;}.cls-8{fill:#fe9912;}.cls-9{fill:#aec8bd;}.cls-10{fill:#96b5a6;}.cls-11{fill:#85a59a;}.cls-12{fill:#badce9;}.cls-13{fill:#cbe1ec;}.cls-14{fill:#f1f6fa;}.cls-15{fill:#00a0a3;}.cls-16{fill:url(#Безымянный_градиент_17);}.cls-17{fill:#f7b683;}.cls-18{fill:#5c8965;}.cls-19{fill:#d3d5d8;}.cls-20{fill:#44664b;}.cls-21{fill:#c2c4c7;}.cls-22{fill:#892821;}.cls-23{fill:#9e2e25;}.cls-24{fill:#f2997a;}.cls-25{fill:#971a42;}.cls-26{opacity:0.19;}.cls-26,.cls-57{mix-blend-mode:multiply;}.cls-27{fill:#a88a5e;}.cls-28{fill:#705c3f;}.cls-29{fill:#00474d;}.cls-30{fill:url(#Безымянный_градиент_17-2);}.cls-31{fill:#d9a073;}.cls-32{fill:#fbb287;}.cls-33{fill:#eb8465;}.cls-34{fill:#fec192;}.cls-35{fill:#fffefd;}.cls-36{fill:#b5355e;}.cls-37{fill:url(#Безымянный_градиент_25);}.cls-38{fill:#d48851;}.cls-39{fill:#e19c37;}.cls-40{fill:#cc7a2f;}.cls-41{fill:#005e66;}.cls-42{fill:#754b31;}.cls-43{fill:url(#Безымянный_градиент_17-3);}.cls-44{fill:#c2c2c2;}.cls-45{fill:#d4d4d4;}.cls-46{fill:#e6e6e6;}.cls-47{fill:#327294;}.cls-48{fill:url(#Безымянный_градиент_2);}.cls-49{fill:#00acb0;}.cls-50{fill:#fff;}.cls-51{fill:#919191;}.cls-52,.cls-57{fill:#b67a3c;}.cls-53{fill:#d09a54;}.cls-54{fill:#c78054;}.cls-55{fill:#c16d4b;}.cls-56{fill:#a76e39;}.cls-57{opacity:0.18;}.cls-58{fill:#de724c;}.cls-59{fill:#cb5f39;}.cls-60{fill:#b64a24;}.cls-61{fill:#9e9e9e;}.cls-62{fill:#828282;}.cls-63{fill:#c44029;}.cls-64{fill:#e7e7e7;}</style><linearGradient id="Безымянный_градиент_17" x1="1098.96" y1="1506.75" x2="1148.36" y2="1506.75" gradientTransform="translate(1818.88 -417.66) rotate(93.11)" gradientUnits="userSpaceOnUse"><stop offset="0.25" stop-color="#feb582"/><stop offset="0.52" stop-color="#fcb280"/><stop offset="0.71" stop-color="#f7a97b"/><stop offset="0.86" stop-color="#ef9a71"/><stop offset="1" stop-color="#e48665"/></linearGradient><linearGradient id="Безымянный_градиент_17-2" x1="305.61" y1="377.1" x2="342.91" y2="377.1" gradientTransform="matrix(0.97, -0.23, 0.23, 0.97, -73.09, 321.15)" xlink:href="#Безымянный_градиент_17"/><linearGradient id="Безымянный_градиент_25" x1="564.93" y1="1083.98" x2="567.86" y2="1109.06" gradientTransform="translate(447.03 -682.19) rotate(34.29)" gradientUnits="userSpaceOnUse"><stop offset="0.25" stop-color="#feb582"/><stop offset="0.73" stop-color="#ee9870"/><stop offset="1" stop-color="#e48665"/></linearGradient><linearGradient id="Безымянный_градиент_17-3" x1="104.1" y1="844.43" x2="154.61" y2="844.43" gradientTransform="matrix(1.02, 0.21, -0.21, 1.05, 373.12, -204.92)" xlink:href="#Безымянный_градиент_17"/><linearGradient id="Безымянный_градиент_2" x1="421.44" y1="59" x2="544.44" y2="59" gradientUnits="userSpaceOnUse"><stop offset="0" stop-color="#d1c2b6"/><stop offset="0.01" stop-color="#d2c3b7"/><stop offset="0.32" stop-color="#e3d4c9"/><stop offset="0.65" stop-color="#eddfd4"/><stop offset="1" stop-color="#f0e2d8"/></linearGradient></defs><g class="cls-1"><g id="Слой_1" data-name="Слой 1"><polygon class="cls-2" points="85.44 706 209.44 706 209.18 705.79 209.18 842 85.44 842 85.44 706"/><path class="cls-3" d="M194.67,905.12c-1.41-1.52-2.81-3.07-4.24-4.57q-4.85-5.07-9.72-10.1c-.18-.19-.52-.22-.79-.32,0,0-.07,0-.11,0-1.32-.23-2.09.61-2.9,1.45-3.2,3.35-6.44,6.67-9.65,10-1.09,1.14-2.13,2.33-3.19,3.49l-2.86,0a12.58,12.58,0,0,1,.78-1l13.68-14.21c.18-.19.33-.41.5-.62a6.85,6.85,0,0,1-.88-1.14,6.77,6.77,0,0,1-.58-1.71.77.77,0,0,1,.58-1,1.14,1.14,0,0,1,1.34.43c.2.32.35.68.54,1a.87.87,0,0,0,1.33.41,2.21,2.21,0,0,1,1.54-.1c.75.27,1.09-.06,1.4-.61a2.61,2.61,0,0,0-1.75-3.74,1.7,1.7,0,0,1-1.47-1.9c0-.31,0-.62,0-.93a2.12,2.12,0,0,0-.56-1.79,1.78,1.78,0,0,1,0-2.34,2.29,2.29,0,0,0,.59-1.78q0-11,0-22.06v-.95c-7.85,1.62-15.73,2.52-23.54,3.77s-15.75,2.41-23.62,3.6-15.68,2.36-23.52,3.56S91.82,864.45,84,865.65c-.53,1.56-1,1.87-2.4,1.87H60c-1.83,0-2.33-.41-2.63-2.13-.74-.37-1.48-.68-2.17-1.09Q45.58,858.56,36,852.77a27.37,27.37,0,0,1-3.54-2.38A8.73,8.73,0,0,1,31,848.25v-1.86a6.77,6.77,0,0,1,.64-1.15,6.07,6.07,0,0,1,1.42-1.44c3.87-2.32,7.8-4.55,11.67-6.86q11.4-6.78,22.76-13.62a2.41,2.41,0,0,1,.43-.15H79.3a3.77,3.77,0,0,1,.58,0l25.55,5.33,20.79,4.36,20,4.18q11.47,2.38,23,4.73c2.41.49,4.84.87,7.25,1.35a3.84,3.84,0,0,1,2.72,1.56,8.89,8.89,0,0,1,1.33,4.65c.06,8.24,0,16.48,0,24.72a2.24,2.24,0,0,0,.58,1.78,1.76,1.76,0,0,1,.07,2.25,2.71,2.71,0,0,0-.59,2.54c3.85,2,4.46,4.83,1.82,8.5,1.69,1.78,3.38,3.58,5.09,5.35,3.11,3.24,6.24,6.45,9.35,9.69a10.3,10.3,0,0,1,.7.9ZM61.6,829.47q-11.08,6.62-22.16,13.27l-.53.34H57.32c.51-1.73.92-2,2.81-2H81.29c1.87,0,2.29.3,2.81,2.06h79.56l0-.13-7.08-1.47-32.32-6.74L91.73,828,80.2,825.59a8.62,8.62,0,0,0-1.14-.1,5.09,5.09,0,0,0-1.07-.22c-2.69,0-5.39,0-8.08,0a3.37,3.37,0,0,0-2.6.94C65.41,827.28,63.49,828.35,61.6,829.47Zm25.47,17.88c.88.75,1.59,1.37,2.31,2q5.39,4.4,10.78,8.76c1.09.89,1.38.92,2.31-.11q4.65-5.09,9.27-10.19c.07-.08.12-.19.28-.42ZM126,855c-.35-.29-.56-.48-.78-.65l-8.69-6.56c-.84-.63-.88-.61-1.58.17l-8.2,9c-.26.28-.5.56-.76.85l.09.23Zm-42,6.39,13.77-2.09L84,848.06Zm-48.86-14,13.21,7.93,7.19-7.93Zm85,0c.27.25.42.43.61.57,2.64,2,5.29,4,7.91,6,.57.43,1,.5,1.47-.07,1.79-2,3.61-4,5.41-6,.1-.11.17-.24.36-.49ZM57.4,848.91l-6.89,7.64,6.89,4.15Zm82-1.64-5.79,6.34.12.18,12.74-1.94Zm14.94.1h-10.3l6.12,4Zm8.23,0c1,.58,1.74,1.06,2.54,1.49a1.36,1.36,0,0,0,.78.06c3.18-.48,6.35-1,9.52-1.48v-.07Zm-4.35.37a1,1,0,0,0-.88.14c-.93.79-1.81,1.65-2.71,2.49l.09.23,6.75-1C160.29,848.88,159.28,848.26,158.23,847.73Z" transform="translate(-20.56 -237)"/><path class="cls-4" d="M62.33,1028.19h-1a2.46,2.46,0,0,0-2.38,1.84c-.82,4.33-1.58,8.68-2.37,13H84.87q-.77-4.2-1.51-8.38c-.24-1.32-.46-2.65-.74-4-.4-2-1.13-2.52-3.08-2.52H62.33Z" transform="translate(-20.56 -237)"/><path class="cls-5" d="M197.53,905.1l-2.86,0h-30.6l-2.86,0-8.23,0c-1.39,0-1.7.31-1.71,1.69,0,2.45,0,2.49,2.42,2.49q25.74,0,51.48,0a2,2,0,0,0,1.83-.71v-2.79a1.91,1.91,0,0,0-1.72-.71C202.7,905.15,200.12,905.12,197.53,905.1Z" transform="translate(-20.56 -237)"/><path class="cls-6" d="M67.92,822.94v.23H79.3v-.23Z" transform="translate(-20.56 -237)"/><path class="cls-7" d="M62.33,1028.19H79.08c0-.34,0-.69,0-1V868.57c0-.35,0-.7,0-1H62.33c0,.34,0,.69,0,1q0,79.29,0,158.58C62.34,1027.5,62.33,1027.85,62.33,1028.19Z" transform="translate(-20.56 -237)"/><path class="cls-8" d="M79.08,841.05q0-7.78,0-15.56a5.09,5.09,0,0,0-1.07-.22c-2.69,0-5.39,0-8.08,0a3.37,3.37,0,0,0-2.6.94c-.08.26-.15.52-.24.77l-4.74,14.1Z" transform="translate(-20.56 -237)"/><polygon class="cls-2" points="409.73 694.53 468.48 658.78 533.17 698.79 533.17 835 409.44 835 409.73 694.53"/><rect class="cls-2" x="542.54" y="480" width="44.27" height="22.99"/><rect class="cls-9" x="522.11" y="502.99" width="120.04" height="317.54"/><rect class="cls-10" x="576.17" y="573.22" width="12.77" height="22.99"/><rect class="cls-11" x="578.72" y="580.03" width="10.22" height="16.18"/><rect class="cls-10" x="576.59" y="531.93" width="12.77" height="22.99"/><rect class="cls-11" x="579.15" y="538.74" width="10.22" height="16.18"/><rect class="cls-10" x="576.17" y="659.2" width="12.77" height="22.99"/><rect class="cls-11" x="578.72" y="666.01" width="10.22" height="16.18"/><rect class="cls-10" x="576.59" y="617.91" width="12.77" height="22.99"/><rect class="cls-11" x="579.15" y="624.72" width="10.22" height="16.18"/><rect class="cls-10" x="461.24" y="742.63" width="12.77" height="22.99"/><rect class="cls-11" x="463.79" y="749.44" width="10.22" height="16.18"/><rect class="cls-10" x="461.66" y="701.34" width="12.77" height="22.99"/><rect class="cls-11" x="464.22" y="708.15" width="10.22" height="16.18"/><rect class="cls-10" x="461.66" y="787.33" width="12.77" height="22.99"/><rect class="cls-11" x="464.22" y="794.14" width="10.22" height="16.18"/><circle class="cls-12" cx="379.94" cy="549.57" r="3.07"/><circle class="cls-13" cx="379.82" cy="549.05" r="2.54"/><circle class="cls-14" cx="379.63" cy="548.14" r="1.73"/><polygon class="cls-15" points="492.44 0 544.44 47 456.89 112.23 421.44 69 492.44 0"/><path class="cls-16" d="M299,629.91s-39.36-19.76-56.2-22l-17.64-11.39-19.67-1.2,3.27,11.91,17,2.36-5.56,6.22c6.36,3,13,.71,13,.71s19.67,21.94,38.76,30.8C272,647.34,313.14,657.43,299,629.91Z" transform="translate(-20.56 -237)"/><path class="cls-17" d="M318.5,741.1s-2.43,62.48-4.92,93.45l19.12,4s3.87-43.94,15.29-73Z" transform="translate(-20.56 -237)"/><path class="cls-18" d="M314.74,829.16S291.79,846,301.46,864.62c0,0,10.68-1.17,22.63-13.92s16.25-19.9,16.25-19.9-1.17-10.67-8.95-9.18C331.39,821.62,318.85,829,314.74,829.16Z" transform="translate(-20.56 -237)"/><path class="cls-19" d="M302.22,866.67l-.76-2A59.86,59.86,0,0,0,328,846.39c11.54-13.91,12.31-15.59,12.31-15.59s3.35,1.54,3,4.44c0,0-6.7,20.77-37.21,33.15A3,3,0,0,1,302.22,866.67Z" transform="translate(-20.56 -237)"/><path class="cls-20" d="M309.32,846.44l-1.22.45a3.15,3.15,0,0,0-4.18-1.92l-.45-1.23A4.4,4.4,0,0,1,309.32,846.44Z" transform="translate(-20.56 -237)"/><path class="cls-20" d="M314.12,841l-1.76-.38c.14-.64.08-1.07-.16-1.28-.75-.65-3.23-.17-4.67.37l-.62-1.69c.76-.28,4.66-1.61,6.47,0A2.91,2.91,0,0,1,314.12,841Z" transform="translate(-20.56 -237)"/><path class="cls-20" d="M320.84,826.9l4.39,8.1s-9.86,18.42-25.43,25.12l.84,2.72.82,1.78s25.07-14.83,33.22-30.34c0,0,6.62-7.39-3.29-12.66C331.39,821.62,324.54,825.86,320.84,826.9Z" transform="translate(-20.56 -237)"/><path class="cls-21" d="M340.34,830.8s-2.49,12-7.7,16.74c-9.17,8.28-21.49,18.64-21.49,18.64s14.33-5.41,22.12-15.67,11-12.83,10.1-15.27S343.23,831.12,340.34,830.8Z" transform="translate(-20.56 -237)"/><path class="cls-22" d="M310.82,752.78l-10.75,50s36.09,16.79,46.09,16.74,16-75.3,16-75.3l-19.49-15.69Z" transform="translate(-20.56 -237)"/><path class="cls-17" d="M352.58,742.22s13.29,43.18,32.31,86.87L404,825.7S390.49,781,391,752.11Z" transform="translate(-20.56 -237)"/><path class="cls-22" d="M361.65,703.61s31.15,6.24,30.5,29,20.36,62.15,20.36,62.15L374.26,812.5l-27.9-46.33-21.84-12.81Z" transform="translate(-20.56 -237)"/><path class="cls-23" d="M357.29,710.41s26.69,5.34,26.13,24.88,17.45,53.25,17.45,53.25l-32.78,15.17L344.19,764l-18.71-11Z" transform="translate(-20.56 -237)"/><polygon class="cls-24" points="400.21 379.16 401.86 379.42 386.8 420.9 400.21 379.16"/><polygon class="cls-25" points="370.85 372.79 393.63 378.11 381.86 420.11 370.85 372.79"/><polygon class="cls-26" points="372.49 373.05 395.27 378.37 383.51 420.38 372.49 373.05"/><polygon class="cls-26" points="377.43 373.84 400.21 379.16 388.45 421.16 377.43 373.84"/><path class="cls-27" d="M345.07,625.06a28,28,0,0,1,23-15.52c11.63-.9,25.67.53,29,11.78,6,20,35.07,75.2,11.13,83s-28.29,6.56-28.29,6.56l-34.85-85.83Z" transform="translate(-20.56 -237)"/><path class="cls-28" d="M356.55,617.89s16.29-5.43,21.12,13,23.67,70.47,14,74.78-11.75,2.72-11.75,2.72l-22.61-88.27Z" transform="translate(-20.56 -237)"/><path class="cls-29" d="M357.48,620c.81,3.5-11,10.57-23.61,13.5s-27.6,2.08-28.41-1.42,13.15-7.07,25.76-10S356.66,616.53,357.48,620Z" transform="translate(-20.56 -237)"/><path class="cls-30" d="M307,607l11.07,13.67c.48,1.32.79,6.62-.77,7.8l-.22.16a48,48,0,0,0,8.9-.27,57.56,57.56,0,0,0,22.48-7.73c-6.25-5.46-14.73-12.62-20.5-16.48Z" transform="translate(-20.56 -237)"/><polygon class="cls-31" points="296.79 382.98 319.33 376.41 305.88 361.04 286.44 370 296.79 382.98"/><path class="cls-32" d="M291.38,525.77s-1.57-24.49-16-18.64-12,35,6.61,31.28C282,538.41,287.1,536.6,291.38,525.77Z" transform="translate(-20.56 -237)"/><path class="cls-24" d="M286.07,531.24s-6.33-2-5.52,4.83c0,0-12.38.88-14.33-9.21-2.06-10.71,7.45-20.58,14.25-17.24C288.06,513.36,287.83,517,286.07,531.24Z" transform="translate(-20.56 -237)"/><path class="cls-33" d="M286.78,516s-16-5.65-19.73,13.51c0,0,2.09,6.37,13.5,6.6,0,0-1-3.45,1.41-4.55a5,5,0,0,1,4.11-.28S289.13,519.91,286.78,516Z" transform="translate(-20.56 -237)"/><path class="cls-34" d="M307.79,452.39c-16.19,7.81-38.3,33.34-41,66.52,0,0-56.77,37.13,14.36,78.45,36.83,21.41,84.8,13.71,101-10.34,2.24-3.33,7.37-6.16,10.26-9,7.33-7.25,13.39,1.14,27-21.12,20.42-33.41,3.41-71.86-18.19-91.22C377.09,444,343,435.42,307.79,452.39Z" transform="translate(-20.56 -237)"/><path class="cls-17" d="M415.25,566.34c26.32-31.14,15.65-72.66-2.91-95.41-20.72-25.41-53.73-39-92.23-26.64-8.23,2.64-18.4,9-27.77,18.4,5.13,7.13,15.42,10.83,24.54,8.25-1.73,7.66,5,12.06,10.64,11.77,8.52.53,10.56,8,17.27,12.39.92-1,3.74-2.08,4.7-1.18,3,6.48,10.6,9.88,16.19,5.82-5.51,7.84,7,19.52,16.5,20.94-2.82,1.09-5.63,2.17-5.59,4.06,1.16,10.35,9.79,16.55,16.54,22.83-3.82-1.7-6.55,3.17-7.48,4.16,1.12,8.46,7.83,12.86,13.61,18.24-1.93-1.79-6.63-.61-5.67.29a14.18,14.18,0,0,0,7.73,8.5C405,576.85,409.38,573.29,415.25,566.34Z" transform="translate(-20.56 -237)"/><path class="cls-17" d="M286.66,493.33c-1.33-.82-19.18,14.62-17.4,25.62,1.27,7.87,14.67,15.13,30.17,16.67s23.26,12.69,28.47,19.08c2.29,2.8,7.54,6.51,12.72,9.78,7.06,4.47,16,3,19.77-3.2l6.42-8.21c2-3.28,4.05-9.14,2.48-13C365,529.51,351,510.2,326.53,500.4,292.81,486.9,286.66,493.33,286.66,493.33Z" transform="translate(-20.56 -237)"/><path class="cls-25" d="M274.41,552.2h0c-1.2,5.63-.55,20,1.67,24.66,5.93,12.52,17.8,8,26.31-8.13l1.45-2.74S285.78,562.86,274.41,552.2Z" transform="translate(-20.56 -237)"/><path class="cls-35" d="M274.41,552.2s7.86,6.95,15.49,9.67c3.44,1.23,8.28,3.7,13.92,4,0,0-9.28,6.89-16,4.7-1.91-.62-7.8-3-10.92-6.74C275,561.53,273.87,556.46,274.41,552.2Z" transform="translate(-20.56 -237)"/><path class="cls-36" d="M283.17,576.64s-5-3.85-6.57-3,1,5.18,6.68,7.73,10.21-.08,8-2.66S289,576.17,283.17,576.64Z" transform="translate(-20.56 -237)"/><path class="cls-26" d="M274,561.64c-1.66-.29,18,3.3,27.13,9.27l2.63-4.94s-17.22-2.53-29.37-13.77l-.41,3.28Z" transform="translate(-20.56 -237)"/><path class="cls-37" d="M290.14,536.86s1.15-.66,3.38-1.78c3.84-1.94,5,2.34,7.53,1.56,10.9-3.33,12.46-2.5,5.25,6.28a16.16,16.16,0,0,0-1.93,4.47s-5.72,4.87-10.69,1.76C290.14,547,287.43,541.54,290.14,536.86Z" transform="translate(-20.56 -237)"/><path class="cls-38" d="M308.47,528.78a7.92,7.92,0,0,1-4,5.77c-3.22,1.89-5.48,1-8.81-.26-1.25-.48-2.19-1.33-3.66-.86-3.23,1.05-4,6.6-3.78,9.33.73,7.77,9.93,12.22,15.63,6.14.43-.46-.26-1.15-.69-.69-4.89,5.22-12.73,1.76-13.83-4.88a10.76,10.76,0,0,1,.15-4.34c.6-2.43.87-2.89,3.42-3.4,2.76-.55,3.51.63,6,1.06,5.19.9,9.47-2.69,10.5-7.61.12-.62-.82-.88-.95-.26Z" transform="translate(-20.56 -237)"/><path class="cls-24" d="M347.14,579.91c-2.89,4.23-11.15,14.46-18.88,9.19s-8.85-21.7-6-25.93,11.49-3.4,19.22,1.87S350,575.68,347.14,579.91Z" transform="translate(-20.56 -237)"/><path class="cls-24" d="M275.06,542c-4.31,6.32-15.16,7-19.91,3.77s-6.24-7-1.94-13.34,11.65-8.81,16.41-5.57S279.36,535.69,275.06,542Z" transform="translate(-20.56 -237)"/><path class="cls-39" d="M338.67,480.36a161.67,161.67,0,0,0-14.91-9.57C324.82,476.15,333.82,479.13,338.67,480.36Z" transform="translate(-20.56 -237)"/><path class="cls-39" d="M350.11,489.52c-2.53-2.23-5.13-4.4-7.84-6.48C344.13,488.91,347.3,490,350.11,489.52Z" transform="translate(-20.56 -237)"/><path class="cls-39" d="M323.71,469.06a35.91,35.91,0,0,0,3.18-5.68C324.87,465.49,323.91,467.37,323.71,469.06Z" transform="translate(-20.56 -237)"/><path class="cls-39" d="M447.4,563.92c11-.75,7.59-15.9,7.59-15.9,9.68.44,16.74-2.24,28.28-16.2s-5-33.71-5-33.71,9.25-2.82,13.28-11.88-18-7.57-18-7.57,8.92-17.08,4.18-31-23.22-13.8-23.22-13.8,6.18-3.72,7.13-13.67-12.75-1.33-12.75-1.33c6.68-11.43,5.39-15.74-3.37-20.63-7.05-3.94-12.48,4.8-14.34,8.37.15,1.38-.69,1.44-.69,1.44s.24-.57.69-1.44c-.19-1.76,1.88-11.19-5.48-19.94-13.09-15.58-37.52,2.52-37.52,2.52s1.52-7.55-5.5-10.37-9.63,9.07-9.63,9.07-1.13-14.2-24.47-11.51-25.05,27.07-25.05,27.07-10.77-8.17-25.38,4.91,2.66,26.88,2.66,26.88l-3.63,2.88c-8,6.4-7.32,17.82,2.24,26.1,6.79,5.87,23.21,5.78,23.43,6.07.31-.39.6-.79.89-1.19.2-1.69,1.16-3.57,3.18-5.68a35.91,35.91,0,0,1-3.18,5.68,5.25,5.25,0,0,0,.05,1.73,161.67,161.67,0,0,1,14.91,9.57c1.82.46,3.06.68,3.06.68.16.73.34,1.38.54,2,2.71,2.08,5.31,4.25,7.84,6.48a13.08,13.08,0,0,0,5.66-2.84c-10.63,9.51,14,11.12,14,11.12-7.14,13.67,13.58,7.87,13.58,7.87-15,9.81,8.61,26.87,8.61,26.87-11.53,14,5.2,11.73,5.2,11.73-10.17,7.28-2.73,13.36-2.73,13.36a10.78,10.78,0,0,0-8,5.34c-.79,2.92,0,5.45,3.11,6.39,3.62,1.78,8.53.61,12.81-3.42-6.42,6-1.33,11.62,3.14,14.33.6.18,1.26.35,2,.5,15.4-8.26,27.22-23.68,27.22-23.68S436.4,564.66,447.4,563.92Z" transform="translate(-20.56 -237)"/><path class="cls-39" d="M431.15,406.57c-.45.87-.69,1.44-.69,1.44S431.3,408,431.15,406.57Z" transform="translate(-20.56 -237)"/><path class="cls-40" d="M397.63,414.63s15.49-12,20.65,5.19c0,0,4.31-16.15-7.36-17.08C403.44,402.16,397.63,414.63,397.63,414.63Z" transform="translate(-20.56 -237)"/><path class="cls-40" d="M351.45,412.28s-9.18-8.16-13.25,6.4c0,0-8.2-12,4.52-16.79C349.78,399.22,351.45,412.28,351.45,412.28Z" transform="translate(-20.56 -237)"/><path class="cls-40" d="M454.47,465.68s11.92-5.2,11.43,2.52-5.36,10.25-5.36,10.25,14.2-3.49,13.74-14.12C473.9,455.57,458.46,462.12,454.47,465.68Z" transform="translate(-20.56 -237)"/><path class="cls-40" d="M464.71,511.12s11.88.29-3.64,17.82c0,0,23-11.39,15.1-20.8C472.68,504,464.71,511.12,464.71,511.12Z" transform="translate(-20.56 -237)"/><path class="cls-40" d="M423,485.11S403.84,500,397.46,478.7c0,0-5.33,20,9.1,21.1C415.8,500.53,423,485.11,423,485.11Z" transform="translate(-20.56 -237)"/><path class="cls-40" d="M405.93,546.85s11.6,10.3,16.73-8.08c0,0,10.36,15.1-5.71,21.2C408,563.35,405.93,546.85,405.93,546.85Z" transform="translate(-20.56 -237)"/><path class="cls-40" d="M330.2,451.65s-14,6.13-13.45-3,6.3-12.06,6.3-12.06-16.71,4.11-16.17,16.62C307.32,463.55,325.51,455.85,330.2,451.65Z" transform="translate(-20.56 -237)"/><path class="cls-40" d="M368.5,452.82s-8.77-.21,2.7-13.17c0,0-17,8.42-11.16,15.37C362.61,458.09,368.5,452.82,368.5,452.82Z" transform="translate(-20.56 -237)"/><ellipse class="cls-40" cx="292.84" cy="476.3" rx="12.49" ry="3.55" transform="translate(-23.17 -235.39) rotate(-0.31)"/><ellipse class="cls-40" cx="363.33" cy="516.07" rx="3.61" ry="12.28" transform="translate(-231.58 17.42) rotate(-30.36)"/><path class="cls-32" d="M379.16,561.67s29.67.81,23.68,18.75-41.42,16.34-38.25-6.68C364.59,573.74,366.4,567.42,379.16,561.67Z" transform="translate(-20.56 -237)"/><path class="cls-24" d="M373,568.44s2.92,7.67-5.43,7c0,0-.14,15.24,12.18,17.16,13.09,2,24.3-10.07,19.76-18.26C394.39,565.18,390,565.63,373,568.44Z" transform="translate(-20.56 -237)"/><path class="cls-33" d="M391.34,566.87s8,19.43-14.85,24.83c0,0-7.85-2.27-9-16.27,0,0,4.24,1.11,5.4-1.93a6.33,6.33,0,0,0,0-5.06S386.4,564.17,391.34,566.87Z" transform="translate(-20.56 -237)"/><path class="cls-41" d="M367.35,641.45l8.14,15.85,24.4,70.55c-29.84,27-88.9,26-88.9,26-20.26-35.41-7-70.57-7-70.57L305,671l-31-14s-6.48-20.64,5-35c4-5,30,8,30,8,26.76,5.83,45.67-10.6,45.67-10.6S363.84,621.23,367.35,641.45Z" transform="translate(-20.56 -237)"/><path class="cls-29" d="M371.39,652.9s18.2,72.66-16.47,96.08c0,0,24.48-2.54,44.92-20.63Z" transform="translate(-20.56 -237)"/><path class="cls-42" d="M273.31,506.77a15,15,0,0,1,8.09-4.86A14.64,14.64,0,0,1,291.48,503a15,15,0,0,1,6.88,7.39,16.9,16.9,0,0,1,1.36,9.29c-2-2.48-3.58-4.83-5.36-6.79a19.07,19.07,0,0,0-5.59-4.55,17.69,17.69,0,0,0-6.91-1.78A56.79,56.79,0,0,0,273.31,506.77Z" transform="translate(-20.56 -237)"/><path class="cls-42" d="M326.81,533.07a15,15,0,0,1,8.88-3.2,14.77,14.77,0,0,1,9.68,3.06,15,15,0,0,1,5.3,8.59,16.93,16.93,0,0,1-.46,9.37c-1.45-2.81-2.58-5.43-3.95-7.7a18.73,18.73,0,0,0-4.6-5.54,17.59,17.59,0,0,0-6.43-3.1A59.48,59.48,0,0,0,326.81,533.07Z" transform="translate(-20.56 -237)"/><path class="cls-27" d="M375,617.08l-.58,0c-16.79-.34-30.39,17.71-27.41,34.23,4.52,25.12,14.45,49,42.89,47.79L397.7,697l.91,3.9s-21.5,9.1-33.28,2.59-35.73-29.08-28.72-66.22c3.19-16.87,25.28-20.89,25.28-20.89Z" transform="translate(-20.56 -237)"/><path class="cls-43" d="M338,660.77s-26.55,38.63-31.51,56.09l-9.28,10.82L292,733.79l-1.43,4.87-2.95,10.06,13.57,6.06,4.32-19.64.23,12.94c5.88,2.29,7.32-18.35,8.06-19.77,0,0,25.65-17.48,37.78-36.32C351.57,692,368.5,650,338,660.77Z" transform="translate(-20.56 -237)"/><path class="cls-29" d="M329.83,672.78s18.54,3.18,26,15.92c0,0,18.89-18.06,13.92-41.66S331.37,644.81,329.83,672.78Z" transform="translate(-20.56 -237)"/><path class="cls-29" d="M283,623s-8,19-6,32c10,4,11,1.92,26,8C302.88,651.44,301,626.73,283,623Z" transform="translate(-20.56 -237)"/><path class="cls-28" d="M396.33,677.84s5,8.09,15.58-3.62c0,0,11.54,18.79-4.31,25.64C397.34,704.3,396.33,677.84,396.33,677.84Z" transform="translate(-20.56 -237)"/><path class="cls-28" d="M399.64,654.5l-1,.2c-.09-.43-8.71-42.34-28.62-41.09-11.83.75-17.29,5.54-17.35,5.59l-.66-.74c.23-.21,5.77-5.08,18-5.85C390.75,611.3,399.28,652.74,399.64,654.5Z" transform="translate(-20.56 -237)"/><path class="cls-28" d="M399.07,655.05s2.94,12.66,3.53,6.37S399.07,655.05,399.07,655.05Z" transform="translate(-20.56 -237)"/><path class="cls-27" d="M411.49,662.81s3.77-19.44,20.67-21.21c0,0,6.95,1.35,7.48-1.43.46-2.38-4.83-13.28-21.66-5.25a44.21,44.21,0,0,0-13.27,9.88l-5.22,5.6Z" transform="translate(-20.56 -237)"/><path class="cls-44" d="M90.91,368.39s9.39,48.27,61.68,63l-34.86,33.52s-45.59-20.11-56.32-38.88S48,377.77,48,377.77Z" transform="translate(-20.56 -237)"/><path class="cls-45" d="M100.3,371.07s9.38,48.27,61.68,63l-34.87,33.52S81.52,447.5,70.8,428.73s-13.41-48.28-13.41-48.28Z" transform="translate(-20.56 -237)"/><path class="cls-46" d="M112.21,352.23s-2.51,49.11,44.71,76L115,452.39S75.6,421.9,69.7,401.1,68.3,351,68.3,351Z" transform="translate(-20.56 -237)"/><path class="cls-47" d="M73.8,373.72c2-3.46,3.81-6.87,4.22-10.9,0-.36-.49-.43-.65-.16-1.77,3.08-3.18,8-1.6,11.46,1.44,3.17,3.21-2.61,3.58-3.46l-.63-.25c-.16.65-1.26,3-.41,3.58s3.3-1.34,3.89-1.66l-.51-.38c-.38,1.16-.09,3.46,1.65,2.42a.35.35,0,0,0-.36-.59c-.79-.46-1-1-.62-1.66.1-.3-.27-.51-.51-.38-.63.34-1.94,1.41-2.67,1.35-.61.35-.69.1-.22-.74l.42-1.78c.09-.36-.47-.62-.63-.25-.37.87-.71,2.62-1.39,3.24-1.32,1.2-1.39-1.89-1.43-2.79A14.63,14.63,0,0,1,78,363l-.64-.16c-.39,3.87-2.23,7.22-4.14,10.54a.35.35,0,0,0,.61.34Z" transform="translate(-20.56 -237)"/><path class="cls-47" d="M85.42,371a25.76,25.76,0,0,0,2.26-4.85c.21-.71.28-1.3-.32-1.8a.37.37,0,0,0-.42-.05,1.35,1.35,0,0,0-.6,1.68c.79,2.21,3.64.39,2.5,4.45-.19.71-.86,1.18-.34,2s1,.53,1.67.19c.41-.23,3.78-3.25,4.24-1.34a.35.35,0,0,0,.58.14l.87-.88a.35.35,0,0,0-.5-.48l-.87.88.58.15c-.56-2.33-4.12-.22-4.95.83-.46.58-.92,1.42-.44,2.13a1,1,0,0,0,1.5.24.91.91,0,0,0,0-1.24c-.3-.41-.81-.34-1.15-.6-1-.77-.23-1.76,0-2.75a2.58,2.58,0,0,0-1-2.53,3.19,3.19,0,0,0-.86-.49c-1.18-.4-1.13-.07-1.61.63a32.92,32.92,0,0,0-1.66,3.37c-.21.39.39.73.6.34Z" transform="translate(-20.56 -237)"/><path class="cls-47" d="M96.52,369.51l.34-.14-.43-.24c.8,1.89,3.28-.38,4.1-1.2l-.55-.41-.17.29a.35.35,0,0,0,.22.51c.85.1,1-.39,1.74-.69.56-.24,1.26,0,1.85,0a6.63,6.63,0,0,0,1.64-.38l-.4-.5-.26.26c-.4.19,0,.78.36.59s.35-.17.51-.52a.35.35,0,0,0-.4-.5,5.45,5.45,0,0,1-2.3.29,2.37,2.37,0,0,0-.88,0c-.53.12-1.15.86-1.7.8l.22.5.17-.3a.35.35,0,0,0-.55-.41c-.12.12-2.55,2.4-2.94,1.5a.34.34,0,0,0-.43-.23l-.34.13c-.4.17-.21.83.2.67Z" transform="translate(-20.56 -237)"/><path class="cls-47" d="M69.53,392.27c1-1.28,3.12-4,2.57-5.07.29.57.77,6.14,1.07,7.16a.35.35,0,0,0,.67,0c.29-1.32,2.24-7.56,4.81-4.69a.32.32,0,0,0,.33.09c2.24-.57,4.06-2.1,6-3.33a.35.35,0,0,0-.1-.63c-.58-.23-.56-.22-1.07.15a.36.36,0,0,0-.15.4c.95,2.46,3.26.76,4.54-.68a.34.34,0,0,0-.49-.48l-.5.5a.36.36,0,0,0-.09.34c.34,1.09.31.91,1.41,1.18s2.82-1.68,3.42-1.85c1.63-.46,3.38.22,5.16-.43,3.13-1.15,4.67-3.53,5.76-6.48,1.46-4,.1-.19,0-1,.08.51-.21,2.77-.16,3.7.18,3.56.55,7.1,1,10.64,0,.43.74.42.69,0a10.17,10.17,0,0,1,0-4.46q-.6-3,2.64-3.45a.36.36,0,0,0,.64.07c2-3.35,4.4-1.14,6.36-4.13.24-.37-.36-.71-.6-.34l-3.74.62a.35.35,0,0,0-.54.08c-1.41,2.32-1.13,2.41-3,1.38a.35.35,0,0,0-.41.06c-1.47,1.63-3.11,5.67-2.26,7.93.3.78.15-4.95.15-4.84-.25-3.16-.35-6.33-.39-9.5a.35.35,0,0,0-.69,0c-.21,9.12-6,9.25-11.9,9.75-2.92.26-6.32,2.4-9.08,2.85-.74.12-2.92-.15-3.53,0-.45.08-1-.19-1.52,0-1.16.56-1.28,1.71-2.08,2.56-.28.63-.54,1.26-.79,1.9q-3-2.19-.83-7.07c.06-.43-.58-.61-.66-.16A12.06,12.06,0,0,1,69,391.79c-.28.35.22.83.49.48Z" transform="translate(-20.56 -237)"/><path class="cls-46" d="M595.35,503.1,566.82,534s-19.05-47.31-53.77-45.19l20.55-26.6S580,454.3,595.35,503.1Z" transform="translate(-20.56 -237)"/><path class="cls-46" d="M615.27,238.29,636,283.63s-58.75,0-71.42,39.37L545,288.4S556.52,233.52,615.27,238.29Z" transform="translate(-20.56 -237)"/><polygon class="cls-48" points="544.44 52 492.44 0 421.44 69 455.44 118 544.44 52"/><polygon class="cls-15" points="421.44 69 462.44 119 544.44 59 492.44 0 421.44 69"/><polygon class="cls-49" points="428.44 67.92 464.77 112.23 537.44 59.06 491.36 6.77 428.44 67.92"/><polygon class="cls-50" points="479.44 36 468.44 49 485.44 69 502.44 59 479.44 36"/><path class="cls-51" d="M497.5,282.82l16.24,14.44c.14.13.36-.08.21-.21l-16.24-14.44c-.14-.13-.36.08-.21.21Z" transform="translate(-20.56 -237)"/><path class="cls-51" d="M495.11,284.06a133.76,133.76,0,0,0,16.41,15.43c.15.12.36-.09.21-.21a134.53,134.53,0,0,1-16.41-15.43c-.13-.14-.34.07-.21.21Z" transform="translate(-20.56 -237)"/><path class="cls-51" d="M506.17,282.08c-.4.09-2,.67-2.24.44s0-2,0-2.35a.13.13,0,0,0-.05-.11c0-.15-.19-.26-.26-.1a8.64,8.64,0,0,1-2.4,3.09c-.15.12.06.33.21.21a8.84,8.84,0,0,0,2.18-2.65c0,.74-.05,1.47-.07,2.21a.14.14,0,0,0,.18.14l2.09-.49-2,2.37c-.12.15.09.36.21.21l2.28-2.72A.15.15,0,0,0,506.17,282.08Z" transform="translate(-20.56 -237)"/><path class="cls-51" d="M507.13,284.81a.19.19,0,0,0-.05-.1h0a.13.13,0,0,0-.12,0h0l-.66.14a.14.14,0,0,0,0,.28l-.74.51-.17-.08c-.17-.09-.33.17-.15.26l0,0-.55.38c-.15.11,0,.37.16.26l.7-.49.91.45a2.79,2.79,0,0,1-.48.62c-.14.13.07.34.21.21a2.8,2.8,0,0,0,.89-2.42Zm-.48,1.35-.76-.38.95-.66A2.46,2.46,0,0,1,506.65,286.16Z" transform="translate(-20.56 -237)"/><path class="cls-51" d="M510,287.69c.2,0,.2-.28,0-.3l-1.48-.15.82-1.14c.11-.16-.15-.31-.26-.15-.56.77-1.11,1.55-1.67,2.33-.11.16.15.31.26.15s.36-.51.55-.76l.11,1.83c0,.19.32.2.3,0l-.12-2Z" transform="translate(-20.56 -237)"/><path class="cls-51" d="M512.28,289a1.51,1.51,0,1,0-.29,2.21c.16-.11,0-.37-.15-.26a1.21,1.21,0,1,1,.22-1.74C512.19,289.38,512.41,289.17,512.28,289Z" transform="translate(-20.56 -237)"/><path class="cls-18" d="M384.27,827.87s-14.61,24.41,1.53,37.83c0,0,9.39-5.22,15.45-21.61s7.25-24.64,7.25-24.64-5.22-9.39-11.81-5C396.69,814.46,388,826.15,384.27,827.87Z" transform="translate(-20.56 -237)"/><path class="cls-19" d="M387.3,867.29l-1.5-1.59a59.77,59.77,0,0,0,17.41-27.11c5.23-17.3,5.29-19.14,5.29-19.14s3.69.12,4.52,2.91c0,0,1.89,21.74-21.42,45A3,3,0,0,1,387.3,867.29Z" transform="translate(-20.56 -237)"/><path class="cls-20" d="M386,845.9l-.95.89a3.15,3.15,0,0,0-4.6-.15l-.89-.95A4.39,4.39,0,0,1,386,845.9Z" transform="translate(-20.56 -237)"/><path class="cls-20" d="M388.3,839l-1.77.33c-.12-.64-.33-1-.64-1.12-.94-.3-3,1.11-4.15,2.16l-1.23-1.32c.59-.55,3.67-3.29,5.94-2.55A2.89,2.89,0,0,1,388.3,839Z" transform="translate(-20.56 -237)"/><path class="cls-20" d="M389,823.42l7.19,5.76s-1.93,20.8-13.68,33l1.83,2.18,1.44,1.32s17.35-23.39,18.84-40.85c0,0,3.23-9.38-7.95-10.39C396.69,814.46,392,821,389,823.42Z" transform="translate(-20.56 -237)"/><path class="cls-21" d="M408.5,819.45s2.38,12-.6,18.41c-5.23,11.19-12.56,25.52-12.56,25.52s11.1-10.55,14.3-23,5.16-16.1,3.38-18S411.29,818.62,408.5,819.45Z" transform="translate(-20.56 -237)"/><path class="cls-52" d="M389,866s-3.29.15,4.36-7.43S403,852,405,841a30.45,30.45,0,0,1,8.69-16.75s-.69,13.5-6.69,23.13S391,875,389,866Z" transform="translate(-20.56 -237)"/><path class="cls-52" d="M300,860s-1-6,9-3,13.81,3,13.81,3-17.75,13.45-20.81,7S300,860,300,860Z" transform="translate(-20.56 -237)"/><circle class="cls-53" cx="364.94" cy="651.5" r="1.5"/><circle class="cls-53" cx="367.94" cy="639.5" r="1.5"/><circle class="cls-53" cx="375.94" cy="640.5" r="1.5"/><path class="cls-54" d="M28,1073s57.1-45.47,94.72-62.63,49.5-23.1,64.68-42.24,62-58.08,121.44-35.64v139.4l-207.9-.14S57,1088,28,1073Z" transform="translate(-20.56 -237)"/><path class="cls-52" d="M57,1081s128.48,8,176,8c82,0,105.34-6,139-2s76.76,2.57,119,.59,81.82-1.23,130,1.41,101-2,101-2-87.78-66.07-123.42-76.63-39.6-10.56-65.34-25.74-15.18-16.5-55.44-9.24S449.42,959.53,417.08,951c-22.44-5.94-33.66,9.9-63.36,2s-19.14-27.72-54.78-24.42-21.12,14.52-52.14,27.72-50.16,15.18-72.6,42.9-35,26.4-62.7,45.54S57,1081,57,1081Z" transform="translate(-20.56 -237)"/><path class="cls-53" d="M120.74,1060.53c48.18-17.16,98.34-17.16,148.5-18.48,10.56-.66,21.12-2,31.68-2,37-1.32,73.26-2,110.22.66,11.22.66,21.78,3.3,33,3.3,17.16.66,33.66,5.28,50.16,4.62,10.56,0,25.08-7.26,17.16-19.14-14.52-21.78-39.6-24.42-60.06-37.62-8.58-5.28-17.16-9.9-23.1-18.48-4.64-6.67-5.71-13.72-6.07-20.82-1.59-.58-3.29-1.13-5.15-1.62-22.44-5.94-33.66,9.9-63.36,2s-19.14-27.72-54.78-24.42-21.12,14.52-52.14,27.72-50.16,15.18-72.6,42.9-35,26.4-62.7,45.54c-13.67,9.44-20.76,17.12-24.43,22.47a115.27,115.27,0,0,1,21.13-6C112.16,1061.19,116.78,1061.85,120.74,1060.53Z" transform="translate(-20.56 -237)"/><polygon class="cls-55" points="242.22 729.11 240.76 730.09 240.76 731.79 242.83 732.04 244.29 730.58 242.22 729.11"/><polygon class="cls-55" points="210.54 709.31 209.08 710.29 209.08 711.99 211.15 712.24 212.61 710.77 210.54 709.31"/><polygon class="cls-55" points="286.44 737.69 284.98 738.67 284.98 740.37 287.05 740.62 288.51 739.15 286.44 737.69"/><polygon class="cls-56" points="277.2 710.7 275.74 711.67 275.74 713.38 277.81 713.63 279.27 712.16 277.2 710.7"/><polygon class="cls-56" points="223.08 708.06 221.62 709.03 221.62 710.74 223.69 710.99 225.15 709.52 223.08 708.06"/><polygon class="cls-56" points="236.28 758.88 234.82 759.86 234.82 761.56 236.89 761.8 238.35 760.34 236.28 758.88"/><polygon class="cls-55" points="333.96 754.85 332.5 755.83 332.5 757.53 334.57 757.78 336.03 756.32 333.96 754.85"/><polygon class="cls-55" points="302.28 735.05 300.82 736.03 300.82 737.73 302.89 737.98 304.35 736.51 302.28 735.05"/><polygon class="cls-55" points="378.18 763.43 376.72 764.41 376.72 766.11 378.79 766.36 380.25 764.89 378.18 763.43"/><polygon class="cls-56" points="368.94 736.44 367.48 737.41 367.48 739.12 369.55 739.37 371.01 737.9 368.94 736.44"/><polygon class="cls-56" points="314.82 733.8 313.36 734.77 313.36 736.48 315.43 736.73 316.89 735.26 314.82 733.8"/><polygon class="cls-56" points="328.02 784.62 326.56 785.6 326.56 787.3 328.63 787.54 330.09 786.08 328.02 784.62"/><polygon class="cls-55" points="95.7 801.71 94.24 802.69 94.24 804.39 96.31 804.64 97.77 803.17 95.7 801.71"/><polygon class="cls-55" points="139.92 810.29 138.46 811.27 138.46 812.97 140.53 813.22 141.99 811.75 139.92 810.29"/><polygon class="cls-56" points="130.68 783.3 129.22 784.27 129.22 785.98 131.29 786.23 132.75 784.76 130.68 783.3"/><polygon class="cls-56" points="89.76 831.48 88.3 832.46 88.3 834.16 90.37 834.4 91.83 832.94 89.76 831.48"/><polygon class="cls-55" points="629.25 804.68 627.89 803.55 626.26 804.04 626.62 806.1 628.44 807.08 629.25 804.68"/><polygon class="cls-55" points="633.67 849.5 632.32 848.38 630.68 848.87 631.04 850.92 632.87 851.91 633.67 849.5"/><polygon class="cls-56" points="656.9 832.93 655.54 831.81 653.91 832.29 654.27 834.35 656.09 835.33 656.9 832.93"/><polygon class="cls-56" points="599.02 807.5 597.67 806.38 596.04 806.87 596.39 808.92 598.22 809.9 599.02 807.5"/><polygon class="cls-55" points="452.1 775.97 450.64 776.95 450.64 778.65 452.71 778.9 454.17 777.43 452.1 775.97"/><polygon class="cls-55" points="420.42 756.17 418.96 757.15 418.96 758.85 421.03 759.1 422.49 757.63 420.42 756.17"/><polygon class="cls-55" points="496.32 784.55 494.86 785.53 494.86 787.23 496.93 787.48 498.39 786.01 496.32 784.55"/><polygon class="cls-56" points="487.08 757.56 485.62 758.53 485.62 760.24 487.69 760.49 489.15 759.02 487.08 757.56"/><polygon class="cls-56" points="432.96 754.92 431.5 755.89 431.5 757.6 433.57 757.85 435.03 756.38 432.96 754.92"/><polygon class="cls-56" points="446.16 805.74 444.7 806.72 444.7 808.42 446.77 808.66 448.23 807.2 446.16 805.74"/><polygon class="cls-55" points="546.48 806.33 545.02 807.31 545.02 809.01 547.09 809.26 548.55 807.79 546.48 806.33"/><polygon class="cls-55" points="514.8 786.53 513.34 787.51 513.34 789.21 515.41 789.46 516.87 788 514.8 786.53"/><polygon class="cls-55" points="590.7 814.91 589.24 815.89 589.24 817.59 591.31 817.84 592.77 816.38 590.7 814.91"/><polygon class="cls-56" points="581.46 787.92 580 788.89 580 790.6 582.07 790.85 583.53 789.38 581.46 787.92"/><polygon class="cls-56" points="527.34 785.28 525.88 786.25 525.88 787.96 527.95 788.21 529.41 786.74 527.34 785.28"/><polygon class="cls-56" points="540.54 836.1 539.08 837.08 539.08 838.78 541.15 839.02 542.61 837.56 540.54 836.1"/><polygon class="cls-55" points="382.8 801.71 381.34 802.69 381.34 804.39 383.41 804.64 384.87 803.17 382.8 801.71"/><polygon class="cls-55" points="351.12 781.91 349.66 782.89 349.66 784.59 351.73 784.84 353.19 783.38 351.12 781.91"/><polygon class="cls-55" points="427.02 810.29 425.56 811.27 425.56 812.97 427.63 813.22 429.09 811.75 427.02 810.29"/><polygon class="cls-56" points="417.78 783.3 416.32 784.27 416.32 785.98 418.39 786.23 419.85 784.76 417.78 783.3"/><polygon class="cls-56" points="363.66 780.66 362.2 781.63 362.2 783.34 364.27 783.59 365.73 782.12 363.66 780.66"/><polygon class="cls-56" points="376.86 831.48 375.4 832.46 375.4 834.16 377.47 834.4 378.93 832.94 376.86 831.48"/><polygon class="cls-55" points="278.52 791.15 277.06 792.13 277.06 793.83 279.13 794.08 280.59 792.62 278.52 791.15"/><polygon class="cls-55" points="246.84 771.35 245.38 772.33 245.38 774.03 247.45 774.28 248.91 772.82 246.84 771.35"/><polygon class="cls-55" points="322.74 799.73 321.28 800.71 321.28 802.41 323.35 802.66 324.81 801.2 322.74 799.73"/><polygon class="cls-56" points="313.5 772.74 312.04 773.72 312.04 775.42 314.11 775.66 315.57 774.2 313.5 772.74"/><polygon class="cls-56" points="259.38 770.1 257.92 771.08 257.92 772.78 259.99 773.02 261.45 771.56 259.38 770.1"/><polygon class="cls-56" points="272.58 820.92 271.12 821.89 271.12 823.6 273.19 823.85 274.65 822.38 272.58 820.92"/><polygon class="cls-55" points="188.76 788.51 187.3 789.49 187.3 791.19 189.37 791.44 190.83 789.98 188.76 788.51"/><polygon class="cls-55" points="157.08 768.71 155.62 769.69 155.62 771.39 157.69 771.64 159.15 770.17 157.08 768.71"/><polygon class="cls-55" points="232.98 797.09 231.52 798.07 231.52 799.77 233.59 800.02 235.05 798.55 232.98 797.09"/><polygon class="cls-56" points="223.74 770.1 222.28 771.08 222.28 772.78 224.35 773.02 225.81 771.56 223.74 770.1"/><polygon class="cls-56" points="169.62 767.46 168.16 768.43 168.16 770.14 170.23 770.38 171.69 768.92 169.62 767.46"/><polygon class="cls-56" points="182.82 818.28 181.36 819.25 181.36 820.96 183.43 821.21 184.89 819.74 182.82 818.28"/><polygon class="cls-57" points="74.44 834 168.44 826 164.44 806 140.44 790 58.44 813 74.44 834"/><polygon class="cls-58" points="58.56 788.17 136.44 772 155.53 794.9 74.44 812.88 58.56 788.17"/><polygon class="cls-59" points="58.44 813 58.44 788 74.44 813 74.44 834 58.44 813"/><polygon class="cls-60" points="155.44 795 153.44 818 74.44 834 74.44 813 155.44 795"/><ellipse class="cls-59" cx="146.66" cy="1026.73" rx="6.87" ry="7.7" transform="translate(-408.51 -99.02) rotate(-22.9)"/><ellipse class="cls-59" cx="128.14" cy="1030.68" rx="6.87" ry="7.7" transform="translate(-411.51 -105.92) rotate(-22.9)"/><ellipse class="cls-59" cx="107.84" cy="1034.54" rx="6.87" ry="7.7" transform="translate(-414.61 -113.51) rotate(-22.9)"/><polygon class="cls-57" points="36.14 841.93 114.44 797 95.44 780 72.86 771.62 12.02 831.21 36.14 841.93"/><polygon class="cls-58" points="0.19 809.38 60.7 757.76 88.45 768.67 25.99 823.41 0.19 809.38"/><polygon class="cls-59" points="12.02 831.21 0 809.29 26.05 823.52 36.14 841.93 12.02 831.21"/><polygon class="cls-60" points="88.42 768.79 97.72 789.92 36.14 841.93 26.05 823.52 88.42 768.79"/><ellipse class="cls-59" cx="80.72" cy="1015.28" rx="6.87" ry="7.7" transform="translate(-785.96 211.36) rotate(-51.63)"/><ellipse class="cls-59" cx="66.38" cy="1027.65" rx="6.87" ry="7.7" transform="translate(-801.09 204.8) rotate(-51.63)"/><ellipse class="cls-59" cx="50.44" cy="1040.79" rx="6.87" ry="7.7" transform="translate(-817.44 197.29) rotate(-51.63)"/><rect class="cls-61" x="620.55" y="977.48" width="8.4" height="115.68" rx="4.2" transform="translate(1639.51 173.57) rotate(90)"/><path class="cls-62" d="M682.59,1035.32a2.74,2.74,0,0,0-.11-.76H567a2.74,2.74,0,0,0-.11.76c0,2.31,2.75,4.19,6.13,4.19H676.46C679.84,1039.51,682.59,1037.63,682.59,1035.32Z" transform="translate(-20.56 -237)"/><rect class="cls-61" x="542.56" y="709.24" width="9.27" height="138.67" rx="4.64"/><path class="cls-62" d="M567.76,946.24a2.94,2.94,0,0,0-.84.12v138.42a3,3,0,0,0,.84.13c2.56,0,4.63-3.29,4.63-7.35v-124C572.39,949.53,570.32,946.24,567.76,946.24Z" transform="translate(-20.56 -237)"/><rect class="cls-61" x="659.04" y="709.24" width="9.27" height="138.67" rx="4.64"/><path class="cls-62" d="M684.24,946.24a3,3,0,0,0-.84.12v138.42a3,3,0,0,0,.84.13c2.56,0,4.64-3.29,4.64-7.35v-124C688.88,949.53,686.8,946.24,684.24,946.24Z" transform="translate(-20.56 -237)"/><rect class="cls-63" x="531.44" y="717.84" width="148" height="59.59" rx="11.78"/><polygon class="cls-64" points="611.23 717.84 585.68 777.43 613.96 777.43 640.69 717.84 611.23 717.84"/><path class="cls-64" d="M700,968c0-1.09.1-2,0-3-.53-5.41-3-9.46-10.76-10.16h-2.75L663,1014.43h24l13-28.61Z" transform="translate(-20.56 -237)"/><path class="cls-64" d="M577.51,954.84l-22.72,55.35a10,10,0,0,0,8,4.24H579.3l25.27-59.59Z" transform="translate(-20.56 -237)"/></g></g></svg>