<svg xmlns="http://www.w3.org/2000/svg" xmlns:xlink="http://www.w3.org/1999/xlink" viewBox="0 0 578.33 986.87"><defs><style>.cls-1{isolation:isolate;}.cls-2{fill:url(#Безымянный_градиент_17);}.cls-3{fill:url(#Безымянный_градиент_17-2);}.cls-4{fill:#d9482d;}.cls-5{fill:#c44029;}.cls-6{fill:#fff;}.cls-7{fill:url(#Безымянный_градиент_17-3);}.cls-8{fill:url(#Безымянный_градиент_17-4);}.cls-9{fill:#50453b;}.cls-10{fill:#6a6051;}.cls-11{fill:url(#Безымянный_градиент_17-5);}.cls-12{fill:#016972;}.cls-13{fill:#005e66;}.cls-14{fill:#00474d;}.cls-15{fill:#4d3226;opacity:0.41;}.cls-16{fill:url(#Безымянный_градиент_17-6);}.cls-17{opacity:0.13;}.cls-17,.cls-46{mix-blend-mode:multiply;}.cls-18{fill:#fbb287;}.cls-19{fill:#f2997a;}.cls-20{fill:#eb8465;}.cls-21{fill:#fec192;}.cls-22{fill:#feb582;}.cls-23,.cls-30{fill:#ba6f2b;}.cls-24{fill:#754c24;}.cls-25{fill:#fdf2e6;}.cls-26{fill:#53a7b8;}.cls-27{fill:#03252e;}.cls-28{fill:#fcf2e6;}.cls-29{fill:#cc7a2f;}.cls-30{opacity:0.42;}.cls-31{fill:url(#Безымянный_градиент_17-7);}.cls-32{fill:url(#Безымянный_градиент_25);}.cls-33{fill:#e19c37;}.cls-34{fill:#e29c36;}.cls-35{fill:#c27c4c;}.cls-36{fill:#f7b683;}.cls-37{fill:#892821;}.cls-38{fill:#a33027;}.cls-39{fill:#5c8965;}.cls-40{fill:#d3d5d8;}.cls-41{fill:#44664b;}.cls-42{fill:url(#Безымянный_градиент_17-8);}.cls-43{fill:url(#Безымянный_градиент_17-9);}.cls-44{fill:#d9a073;}.cls-45{fill:url(#Безымянный_градиент_17-10);}.cls-46{opacity:0.09;}.cls-47{fill:url(#Безымянный_градиент_25-2);}.cls-48{fill:#d48851;}.cls-49{fill:#432528;}.cls-50{fill:#f4eee4;}.cls-51{fill:#e09e6c;}.cls-52{fill:url(#Безымянный_градиент_17-11);}.cls-53{fill:#404042;}.cls-54{fill:#555755;}.cls-55{fill:#b3e2f6;}.cls-56{fill:#ecf7fd;}.cls-57{fill:#a2a9ad;}.cls-58{fill:url(#Безымянный_градиент_17-12);}.cls-59{fill:url(#Безымянный_градиент_78);}.cls-60{fill:#6c802e;}.cls-61{fill:#dcc9b4;}.cls-62{fill:#a9c748;}.cls-63{fill:#93ad3e;}.cls-64{fill:#a37032;}.cls-65{fill:#eee4d9;}.cls-66{fill:#fef2de;}.cls-67{fill:#d45c44;}.cls-68{fill:#ed785c;}.cls-69{fill:#ed7c62;}.cls-70{fill:#ed795e;}.cls-71{fill:#ed8067;}.cls-72{fill:#516e77;}.cls-73{fill:#58747c;}.cls-74{fill:#57747c;}.cls-75{fill:#58747d;}.cls-76{fill:#59757e;}.cls-77{fill:#53717a;}.cls-78{fill:#53707a;}.cls-79{fill:#54707a;}.cls-80{fill:#5f7a82;}</style><linearGradient id="Безымянный_градиент_17" x1="87.98" y1="620.95" x2="271.77" y2="620.95" gradientTransform="matrix(0.87, -0.09, 0.1, 0.95, -43.47, 62.63)" gradientUnits="userSpaceOnUse"><stop offset="0.25" stop-color="#feb582"/><stop offset="0.52" stop-color="#fcb280"/><stop offset="0.71" stop-color="#f7a97b"/><stop offset="0.86" stop-color="#ef9a71"/><stop offset="1" stop-color="#e48665"/></linearGradient><linearGradient id="Безымянный_градиент_17-2" x1="360.06" y1="646.64" x2="611.63" y2="646.64" gradientTransform="matrix(1, 0, 0, 1, 0, 0)" xlink:href="#Безымянный_градиент_17"/><linearGradient id="Безымянный_градиент_17-3" x1="516.67" y1="500.69" x2="545.77" y2="500.69" gradientTransform="matrix(1, 0, 0, 1, 0, 0)" xlink:href="#Безымянный_градиент_17"/><linearGradient id="Безымянный_градиент_17-4" x1="197.21" y1="945.45" x2="207.22" y2="945.45" gradientTransform="matrix(1, 0, 0, 1, 0, 0)" xlink:href="#Безымянный_градиент_17"/><linearGradient id="Безымянный_градиент_17-5" x1="105.03" y1="1149.54" x2="115.03" y2="1149.54" gradientTransform="matrix(-1, 0, 0, 1, 373.33, -204.09)" xlink:href="#Безымянный_градиент_17"/><linearGradient id="Безымянный_градиент_17-6" x1="266.99" y1="507.3" x2="353.9" y2="507.3" gradientTransform="matrix(1, 0, 0, 1, 0, 0)" xlink:href="#Безымянный_градиент_17"/><linearGradient id="Безымянный_градиент_17-7" x1="309.93" y1="355.88" x2="309.93" y2="399.93" gradientTransform="matrix(1, 0, 0, 1, 0, 0)" xlink:href="#Безымянный_градиент_17"/><linearGradient id="Безымянный_градиент_25" x1="309.91" y1="399.93" x2="309.91" y2="391.1" gradientUnits="userSpaceOnUse"><stop offset="0.25" stop-color="#feb582"/><stop offset="0.73" stop-color="#ee9870"/><stop offset="1" stop-color="#e48665"/></linearGradient><linearGradient id="Безымянный_градиент_17-8" x1="5635.72" y1="-3222.6" x2="5696.55" y2="-3222.6" gradientTransform="matrix(-0.45, 0.89, 0.89, 0.45, 5756.55, -2847.93)" xlink:href="#Безымянный_градиент_17"/><linearGradient id="Безымянный_градиент_17-9" x1="5906.95" y1="4071.42" x2="5950.79" y2="4071.42" gradientTransform="matrix(-0.48, -0.88, -0.88, 0.48, 6692.48, 3950.34)" xlink:href="#Безымянный_градиент_17"/><linearGradient id="Безымянный_градиент_17-10" x1="613.94" y1="4786.76" x2="852.21" y2="4786.76" gradientTransform="matrix(0.76, 0.6, -0.62, 0.79, 2567.33, -3437.46)" xlink:href="#Безымянный_градиент_17"/><linearGradient id="Безымянный_градиент_25-2" x1="8553.87" y1="1295.89" x2="8556.56" y2="1318.97" gradientTransform="matrix(-0.99, -0.15, -0.15, 0.99, 8986.03, 658.94)" xlink:href="#Безымянный_градиент_25"/><linearGradient id="Безымянный_градиент_17-11" x1="6985.86" y1="1495.75" x2="7042.87" y2="1495.75" gradientTransform="matrix(-0.94, -0.43, -0.45, 0.97, 7487.54, 2391.09)" xlink:href="#Безымянный_градиент_17"/><linearGradient id="Безымянный_градиент_17-12" x1="560.15" y1="769.8" x2="632.38" y2="769.8" gradientTransform="matrix(1, 0, 0, 1, 0, 0)" xlink:href="#Безымянный_градиент_17"/><linearGradient id="Безымянный_градиент_78" x1="456.85" y1="544.49" x2="456.85" y2="211.34" gradientUnits="userSpaceOnUse"><stop offset="0" stop-color="#fff" stop-opacity="0"/><stop offset="0.25" stop-color="#fbfeaf" stop-opacity="0.6"/><stop offset="0.43" stop-color="#fbfeb0" stop-opacity="0.59"/><stop offset="0.55" stop-color="#fbfeb5" stop-opacity="0.55"/><stop offset="0.65" stop-color="#fcfebd" stop-opacity="0.49"/><stop offset="0.75" stop-color="#fcfec9" stop-opacity="0.41"/><stop offset="0.84" stop-color="#fdffd7" stop-opacity="0.3"/><stop offset="0.92" stop-color="#feffe9" stop-opacity="0.16"/><stop offset="1" stop-color="#fffffe" stop-opacity="0.01"/><stop offset="1" stop-color="#fff" stop-opacity="0"/></linearGradient></defs><g class="cls-1"><g id="Слой_1" data-name="Слой 1"><path class="cls-2" d="M218.21,663.91s48-58.18,19.57-119c0,0-183.38,53.71-131.84,188.07L174,712.69C182.25,709.12,196.43,690.8,218.21,663.91Z" transform="translate(-92.67 -204.09)"/><path class="cls-3" d="M568.85,636.3c-63.27-91.13-208.79-90.67-208.79-90.67-.17,70.89,74.12,106.24,74.12,106.24C460.55,665,488.47,680.31,499.82,686c10.08,5,34.48,21.46,43.26,28.53,22.36,18,32.21,33.13,32.21,33.13l35.89-13.81C616.7,708.09,569.06,636.34,568.85,636.3Z" transform="translate(-92.67 -204.09)"/><path class="cls-4" d="M262.32,534.32S135.39,557.16,108.7,639.06c0,0,69.58,5.81,106.75,29.45l17.49,39.58,24,135.08s95.74,20.5,135.18-6.24l32.21-161.06,29.45-13.8s25.77-67.18,49.7-81.91c0,0-14.21-35.91-139.89-50.61C363.62,529.55,313.12,509.59,262.32,534.32Z" transform="translate(-92.67 -204.09)"/><path class="cls-5" d="M367.3,545c0,15.49-24.77,38.85-54.87,38.85S258.27,560.49,258.27,545s24.41-28.06,54.52-28.06S367.3,529.5,367.3,545Z" transform="translate(-92.67 -204.09)"/><ellipse class="cls-6" cx="220.12" cy="330.34" rx="44.45" ry="15.37"/><polygon class="cls-7" points="516.67 513.94 543.01 505.84 545.77 493.88 535.65 487.43 516.67 512.53 516.67 513.94"/><polygon class="cls-8" points="197.22 932.11 200.55 958.8 207.22 958.8 207.22 932.11 197.22 932.11"/><path class="cls-9" d="M288.74,1158.56l-33.16,19.59a4.86,4.86,0,0,0-2.4,4.19v3.75a4.87,4.87,0,0,0,6.46,4.6l43.64-15a4.88,4.88,0,0,0,3.28-4.6v-8.34a4.87,4.87,0,0,0-4.87-4.87H291.21A4.79,4.79,0,0,0,288.74,1158.56Z" transform="translate(-92.67 -204.09)"/><path class="cls-10" d="M300.12,1165.85v6a2.67,2.67,0,0,1-1.78,2.52L265,1186.28a2.67,2.67,0,0,1-3.57-2.52v-3.64a2.68,2.68,0,0,1,1.62-2.46l33.3-14.27A2.67,2.67,0,0,1,300.12,1165.85Z" transform="translate(-92.67 -204.09)"/><polygon class="cls-11" points="268.31 932.11 264.97 958.8 258.3 958.8 258.3 932.11 268.31 932.11"/><path class="cls-9" d="M362.12,1158.56l33.16,19.59a4.88,4.88,0,0,1,2.39,4.19v3.75a4.86,4.86,0,0,1-6.45,4.6l-43.64-15a4.87,4.87,0,0,1-3.29-4.6v-8.34a4.87,4.87,0,0,1,4.87-4.87h10.48A4.79,4.79,0,0,1,362.12,1158.56Z" transform="translate(-92.67 -204.09)"/><path class="cls-10" d="M350.74,1165.85v6a2.68,2.68,0,0,0,1.77,2.52l33.3,11.89a2.67,2.67,0,0,0,3.58-2.52v-3.64a2.68,2.68,0,0,0-1.62-2.46l-33.3-14.27A2.67,2.67,0,0,0,350.74,1165.85Z" transform="translate(-92.67 -204.09)"/><path class="cls-12" d="M256.63,833.25s94.38,9,134.31,0c0,0-15.73,284.91-27.83,315.66H345s-.73-218.93-7.87-248.28c-4.84-19.9-20.57-15.38-24.2,19-1.62,15.36-12.1,228.84-12.1,228.84H286.28l-23-209.84Z" transform="translate(-92.67 -204.09)"/><path class="cls-13" d="M257.72,850.48s75.14-12.71,95.71,5.38,21.78,154.66,10.89,161.9-21.4-18.08-21.4-18.08l2,149.23h18.15s31.46-281.29,27.83-315.66c0,0-75,9.94-134.31,0Z" transform="translate(-92.67 -204.09)"/><path class="cls-13" d="M270.56,1005s11.48,11,21.16-14.36c12.83-33.57-15.73-108.53,32.67-108.53A30.45,30.45,0,0,1,334.07,893s-19.36-17.28-21.78,31.56-9.68,224.31-9.68,224.31H285.67Z" transform="translate(-92.67 -204.09)"/><polygon class="cls-14" points="165.45 652.75 197.49 642.73 197.84 648.15 165.97 660.87 165.45 652.75"/><polygon class="cls-14" points="298.27 652.75 266.24 642.73 265.88 648.15 297.76 660.87 298.27 652.75"/><path class="cls-14" d="M318.12,837.76s-8,25.85,0,26.75a82.12,82.12,0,0,0,15.95,0l-1.88-27.25Z" transform="translate(-92.67 -204.09)"/><path class="cls-15" d="M259.63,850.92s76.38,16.15,130.68,0V836s-101.23,9.31-131.6,0Z" transform="translate(-92.67 -204.09)"/><path class="cls-16" d="M267,464.8l86.91,4.55-4,72.72S311,557.9,278.36,544.24Z" transform="translate(-92.67 -204.09)"/><path class="cls-17" d="M270,484.81s19.26,9.4,41.84,8.07c0,0,5.45-7.36,7-5.35s5.45,6,7.79,5.35,19.84-2.05,25.91-7.51l.92-15.64-84.67.92Z" transform="translate(-92.67 -204.09)"/><path class="cls-18" d="M256.22,350.94s-17.64-24.35-29.21-9.09,10,44,27.45,28.16C254.46,370,258.71,364.88,256.22,350.94Z" transform="translate(-92.67 -204.09)"/><path class="cls-19" d="M254.12,360s-8.09,1.94-2.75,8.53c0,0-12.66,8.83-21.31-.37-9.19-9.78-5.47-26.08,4-27C244.58,340.21,246.72,344.14,254.12,360Z" transform="translate(-92.67 -204.09)"/><path class="cls-20" d="M244.91,343.72s-20.82,4.42-12.26,26.61c0,0,6.38,5.26,18.72-1.8,0,0-3.35-2.91-1.47-5.61a6.38,6.38,0,0,1,4.22-2.92S250,346.31,244.91,343.72Z" transform="translate(-92.67 -204.09)"/><path class="cls-18" d="M364.91,349.6s17.65-24.35,29.22-9.08-10,44-27.46,28.15C366.67,368.67,362.42,363.55,364.91,349.6Z" transform="translate(-92.67 -204.09)"/><path class="cls-19" d="M367,358.66s8.09,1.94,2.74,8.53c0,0,12.66,8.83,21.31-.37,9.19-9.77,5.47-26.08-4-27C376.55,338.87,374.41,342.81,367,358.66Z" transform="translate(-92.67 -204.09)"/><path class="cls-20" d="M376.22,342.39s20.83,4.41,12.26,26.61c0,0-6.38,5.26-18.72-1.81,0,0,3.35-2.91,1.47-5.61a6.37,6.37,0,0,0-4.21-2.92S371.14,345,376.22,342.39Z" transform="translate(-92.67 -204.09)"/><path class="cls-21" d="M270.43,259.72s-13.21,77.81-17.62,124.79-11.74,73.41,29.37,92.5,74.88-11.74,74.88-11.74,17.61-16.15,13.21-60.2-17.62-140.95-17.62-140.95S318.88,242.1,270.43,259.72Z" transform="translate(-92.67 -204.09)"/><path class="cls-22" d="M265,334.44c-1.47,0-8.2,24.31-1.34,33.43,4.91,6.52,19.26,5.63,32.48-1.71s25-1.47,32.3,1.47c3.22,1.29,9.27,1.73,15.05,1.82a14.12,14.12,0,0,0,14.31-14.13v-11a14.16,14.16,0,0,0-5-10.81c-8.63-7.29-27.73-19.92-52.24-15.1C266.76,325.05,265,334.44,265,334.44Z" transform="translate(-92.67 -204.09)"/><path class="cls-23" d="M346.88,339a1.25,1.25,0,0,0,2.26-.67c.2-3.37-.93-8.77-8.13-14.17-11.74-8.81-26.42-13.21-27.89-10.28s-4.41,8.81,4.4,10.28C325.39,325.44,341.44,331.43,346.88,339Z" transform="translate(-92.67 -204.09)"/><path class="cls-24" d="M298.39,353.75c0,8.11-7.34,14.68-17.61,14.8-8.11.1-15.32-7.28-15.12-15.39.23-9.4,7.93-14,16-14S298.39,345.64,298.39,353.75Z" transform="translate(-92.67 -204.09)"/><path class="cls-25" d="M299.06,354.42c0,8.11-7.34,14.68-17.62,14.8a14.62,14.62,0,0,1-14.68-14.68c0-8.11,7.8-13.46,15.91-13.46S299.06,346.31,299.06,354.42Z" transform="translate(-92.67 -204.09)"/><path class="cls-26" d="M293.39,362.85c0,3.25-2.63,4.41-5.88,4.41s-5.87-1.16-5.87-4.41a5.88,5.88,0,0,1,11.75,0Z" transform="translate(-92.67 -204.09)"/><circle class="cls-27" cx="194.85" cy="158.77" r="2.94"/><circle class="cls-28" cx="197.78" cy="157.3" r="1.47"/><path class="cls-24" d="M319.13,353.75c0,8.11,7.34,14.68,17.62,14.8,8.11.1,15.32-7.28,15.12-15.39-.23-9.4-7.94-14-16-14S319.13,345.64,319.13,353.75Z" transform="translate(-92.67 -204.09)"/><path class="cls-25" d="M318.46,354.42c0,8.11,7.35,14.68,17.62,14.8a14.62,14.62,0,0,0,14.69-14.68c0-8.11-7.8-13.46-15.91-13.46S318.46,346.31,318.46,354.42Z" transform="translate(-92.67 -204.09)"/><path class="cls-26" d="M337,362.85c0,3.25,2.63,4.41,5.88,4.41s5.87-1.16,5.87-4.41a5.88,5.88,0,0,0-11.75,0Z" transform="translate(-92.67 -204.09)"/><circle class="cls-27" cx="250.23" cy="158.77" r="2.94"/><circle class="cls-28" cx="247.29" cy="157.3" r="1.47"/><path class="cls-29" d="M282.7,406.64,251,405.3s-6,29.08,5.35,49.81c3.73,6.8,10.59,18.22,16.71,22.39,12.52,8.54,28.53,10.52,39.44,10,2.05-.09,3.17-4.43,5.35-4.68,1.41-.16,3.85,3.82,5.29,3.59a76.88,76.88,0,0,0,22.12-6.93c6.71-3.37,13.68-11.41,16.71-15.38,7.91-10.35,10.94-34.52,9.65-50s-1-11.49-1-11.49l-33.55,3.91c5.84,1.08,9.49,2.11,9.49,2.11s10,27.4,6,34.76-10-8-10-8a43.22,43.22,0,0,1-18.71,13.37c-12.7-13.37-24.07,0-24.07,0-20.72-6-20.05-14.71-20.05-14.71s-6,20.05-8,10,0-30.09,0-30.09" transform="translate(-92.67 -204.09)"/><ellipse class="cls-30" cx="278.78" cy="407.81" rx="10.88" ry="32.37" transform="translate(-224.78 477.94) rotate(-89.36)"/><ellipse class="cls-30" cx="341.94" cy="407.29" rx="10.88" ry="32.37" transform="translate(-161.8 540.57) rotate(-89.36)"/><ellipse class="cls-29" cx="278.96" cy="405.33" rx="10.88" ry="32.37" transform="translate(-222.12 475.66) rotate(-89.36)"/><ellipse class="cls-29" cx="342.11" cy="404.8" rx="10.88" ry="32.37" transform="translate(-159.15 538.29) rotate(-89.36)"/><path class="cls-31" d="M304.94,355.88s0,21.55-9,32.4A8,8,0,0,0,294,393a3.4,3.4,0,0,0,.65,2.51c1.47,1.46,7.34,4.4,16.15,4.4a27,27,0,0,0,13.88-3.87,2.21,2.21,0,0,0,1-1.51,7.18,7.18,0,0,0-1.7-6.36s-11.74-7.35-10.28-32.31" transform="translate(-92.67 -204.09)"/><path class="cls-32" d="M294.16,394.62s-1-2,3.43-2H324c2.94,0,1.22,3,1.22,3s-4.1,4.4-14.43,4.37C303.47,399.91,294.4,398,294.16,394.62Z" transform="translate(-92.67 -204.09)"/><path class="cls-22" d="M265.81,291.6s17.23-10.64,50,10.09c0,0,42.79,0,46.13,48.8,0,0,2.17,3.13,3.09,1.57,0,0,13.62-63.74-43.87-55.72C321.14,296.34,269.31,266.8,265.81,291.6Z" transform="translate(-92.67 -204.09)"/><path class="cls-29" d="M262.17,290.2s-17.09-15.19-9.49-40.83,20.89-27.54,32.29-26.59c0,0-1.9-22.79,32.28-18s34.19,18,34.19,25.64c0,0,25.64,3.8,30.39,30.39s6.14,47-13.89,87c-3.8,7.6-4.68,2.68-4.68,2.68s-.67-21.4-8.5-36.07c-8.67-16.27-17.09-16.14-38-15.19C316.78,299.23,292.09,277.38,262.17,290.2Z" transform="translate(-92.67 -204.09)"/><path class="cls-29" d="M262.45,273.39s-10.92-5-17.71,4.79-11.74,29.3-1.29,47.61,12.85,26,12.85,26A50.19,50.19,0,0,0,259.23,339c1.9-16.85,3.19-43.41,9.77-51.3Z" transform="translate(-92.67 -204.09)"/><path class="cls-33" d="M295.89,279.28s7.59,1.9,19,8.55,31.34,13.3,46.53,3.8-7.6-43.68-25.64-49.38c0,0,1.9-39.89-30.39-35.14s-15.19,23.74-15.19,23.74S263.32,219.6,254,245.36C246.51,266,257,295.43,295.89,279.28Z" transform="translate(-92.67 -204.09)"/><path class="cls-34" d="M243.2,280a17.62,17.62,0,0,1,13.22,1.42c7.25,3.64,5.82,10,4.56,15.56s-3.36,15.46-5.35,27.41c-2.67,16,1.8,20.2-1.34,22.72a74.53,74.53,0,0,1-12.38-19.5C237.36,316.65,230.38,301.57,243.2,280Z" transform="translate(-92.67 -204.09)"/><path class="cls-23" d="M261.62,352.77a1.25,1.25,0,0,1-2.26-.67c-.2-3.37.93-8.77,8.13-14.16,11.74-8.81,26.42-13.22,27.89-10.28s4.41,8.81-4.4,10.28C283.11,339.25,267.06,345.24,261.62,352.77Z" transform="translate(-92.67 -204.09)"/><path class="cls-35" d="M324.05,421.37c-2.1-.42-4.08-.85-6-1.16a34.35,34.35,0,0,0-5.74-.47,22.49,22.49,0,0,0-5.56.85,11.09,11.09,0,0,0-2.59,1.08,6.64,6.64,0,0,0-2.2,2,5.09,5.09,0,0,1,1.21-3.08,9.11,9.11,0,0,1,2.63-2.16,14.24,14.24,0,0,1,6.45-1.69,17.19,17.19,0,0,1,6.44,1.21A16.05,16.05,0,0,1,324.05,421.37Z" transform="translate(-92.67 -204.09)"/><path class="cls-35" d="M318.79,424.63c-1.08.09-2.11.18-3.11.31a15,15,0,0,0-2.88.71,10.74,10.74,0,0,0-2.61,1.5,5.38,5.38,0,0,0-1.93,2.77,4.09,4.09,0,0,1,.18-2.16,5.78,5.78,0,0,1,1-1.81,7,7,0,0,1,2.92-2.2,6.78,6.78,0,0,1,3.32-.34A6.6,6.6,0,0,1,318.79,424.63Z" transform="translate(-92.67 -204.09)"/><path class="cls-36" d="M196.2,810.61s-2.34,55.69-11,113.69L162.79,926s2.2-57.53-6.8-92Z" transform="translate(-92.67 -204.09)"/><path class="cls-36" d="M161.59,803.27s-10.39,76.33-12.4,114.64l-20.89,2.31s2.43-54.41-6.79-91.9Z" transform="translate(-92.67 -204.09)"/><path class="cls-37" d="M206.77,776.59s10,47.64-.85,75.85l-3.7,1.28a200.38,200.38,0,0,1-86.16,9.9h0s-10.12-65.35,7.36-80.07Z" transform="translate(-92.67 -204.09)"/><path class="cls-38" d="M166.68,808.4c4.07-10.6,12.46-19,15.61-29.77l-58.87,4.92c-17.48,14.72-7.36,80.07-7.36,80.07h0a201.06,201.06,0,0,0,44.55-.35C157.21,844.23,160.1,824.84,166.68,808.4Z" transform="translate(-92.67 -204.09)"/><path class="cls-39" d="M186.38,925.19s20.5,28.51,2,46.7c0,0-12.08-5.46-21.24-25s-11.46-29.57-11.46-29.57,5.45-12.08,14-7.36C169.72,910,181.6,923.46,186.38,925.19Z" transform="translate(-92.67 -204.09)"/><path class="cls-40" d="M186.73,974l1.67-2.11a73.85,73.85,0,0,1-24.22-31.56c-8.22-20.75-8.48-23-8.48-23s-4.52.53-5.26,4c0,0-.08,27,31,53.14A3.7,3.7,0,0,0,186.73,974Z" transform="translate(-92.67 -204.09)"/><path class="cls-41" d="M186.13,947.54l1.26,1c2.47-3.12,5.52-.76,5.65-.66l1-1.26A5.43,5.43,0,0,0,186.13,947.54Z" transform="translate(-92.67 -204.09)"/><path class="cls-41" d="M182.57,939.34l2.22.23c.08-.81.3-1.29.67-1.45,1.12-.47,3.85,1,5.33,2.22l1.38-1.74c-.79-.62-4.85-3.67-7.57-2.52C183.79,936.42,182.79,937.26,182.57,939.34Z" transform="translate(-92.67 -204.09)"/><path class="cls-41" d="M180.07,920.2,171.83,928s4.53,25.39,20.24,39.22l-2,2.87-1.65,1.77s-23.76-27-27.4-48.32c0,0-4.93-11.2,8.72-13.61C169.72,910,176.14,917.56,180.07,920.2Z" transform="translate(-92.67 -204.09)"/><path class="cls-39" d="M149.55,917.66s22.6,26.89,5.53,46.41c0,0-12.46-4.53-23.05-23.32s-13.67-28.63-13.67-28.63,4.54-12.46,13.43-8.39C131.79,903.73,144.66,916.29,149.55,917.66Z" transform="translate(-92.67 -204.09)"/><path class="cls-40" d="M153.58,966.31l1.5-2.24a73.83,73.83,0,0,1-26.52-29.65c-9.76-20.07-10.2-22.3-10.2-22.3s-4.46.87-4.93,4.43c0,0,1.95,26.88,34.91,50.66A3.7,3.7,0,0,0,153.58,966.31Z" transform="translate(-92.67 -204.09)"/><path class="cls-41" d="M151,940l1.33.9c2.22-3.29,5.44-1.17,5.58-1.08l.9-1.33A5.42,5.42,0,0,0,151,940Z" transform="translate(-92.67 -204.09)"/><path class="cls-41" d="M146.82,932.05l2.23.06c0-.8.21-1.3.56-1.48,1.09-.56,3.92.75,5.49,1.81l1.24-1.84c-.83-.56-5.12-3.3-7.74-2C147.82,929.05,146.88,930,146.82,932.05Z" transform="translate(-92.67 -204.09)"/><path class="cls-41" d="M142.89,913.16l-7.63,8.43s6.42,25,23.14,37.58l-1.81,3-1.51,1.89S129.36,939,124.13,918c0,0-5.77-10.8,7.66-14.22C131.79,903.73,138.77,910.82,142.89,913.16Z" transform="translate(-92.67 -204.09)"/><path class="cls-42" d="M291.11,761.23s54.31,2.85,73.72,10.76l25.89-1.44L403,782.05l-10.78,10.79-10.07-8.63,2.15,10.07c-8.63-.72-14.38-7.19-14.38-7.19s-34.52,11.51-60.41,9.36C309.46,796.45,259.1,782.1,291.11,761.23Z" transform="translate(-92.67 -204.09)"/><path class="cls-14" d="M242.19,698.31c-3.89,2.14-1.32,21.54,6.39,35.54S263.1,748,267,745.82s2.65-7.66-5.06-21.67S246.08,696.17,242.19,698.31Z" transform="translate(-92.67 -204.09)"/><path class="cls-43" d="M290.67,732.3l-18.41,1.83c-1.61.64-5.27,5.25-6.54,7.13-.06.09,0,.22,0,.33-2.45.55-5.21,2.39-10.73-7.74-5-9.15-6.11-18.7-7.8-27.68,10.17,1.23,23.74,3.12,32,5.24Z" transform="translate(-92.67 -204.09)"/><path class="cls-13" d="M212.69,700.72c7.65-2,23.32-5.61,32.46-2.15,0,.58,0,1.17,0,1.78,0,0,2.51,57.43,23.68,41.79,0,0,26.69,11,26.69,14.72,0,27.34-3.68,39.57-3.68,39.57l-37.73-12h0c.41-.73-25.89,15.16-25.89,15.16l-.64,1.13c-1.81,3.15-3.67,9.5-6.61,15-9.16,17.18-29.5,20.27-46,10-22-13.7-53.35-33.69-53.35-36.67,0-21,21.87-51.57,39-62.79C179.36,714,195.21,705.32,212.69,700.72Z" transform="translate(-92.67 -204.09)"/><polygon class="cls-44" points="180.81 530.13 168.26 504 193.47 503.68 193.95 529.2 180.81 530.13"/><path class="cls-45" d="M236.54,815.84c-6.16-1.12-15.15-5.43-15.15-5.43s15.83-11.21,19.39-20.23l-7.91-8.94-24.39,15.39s-37.43-52.4-34.17-78.94c0,0,5.17-9.53,7.93-11.37L116,669.81c-.31.25-18.08-.55-18.39-.3,0,0-36.34,75.16,88.77,178.83,0,0,33.87,3.86,37,5.43s29.74-9.4,29.74-9.4L259.55,814S246.66,817.68,236.54,815.84Z" transform="translate(-92.67 -204.09)"/><path class="cls-46" d="M188.76,753.18l-2.12,61.56a72.75,72.75,0,0,0,7.65,35.07h0l17.48.92s8-8.46,7-15.83,4.9-40.89,5.94-50.36,3.64-46.08,3.64-46.08Z" transform="translate(-92.67 -204.09)"/><path class="cls-18" d="M371.62,705s16.65-15.49,23-2.47-13.86,31.17-24.49,16.89C370.14,719.38,367.74,715,371.62,705Z" transform="translate(-92.67 -204.09)"/><path class="cls-19" d="M371.86,712s5.72,2.62.8,6.73c0,0,8.1,8.4,15.86,2.84,8.25-5.92,7.87-18.56,1-20.59C381.83,698.7,379.67,701.31,371.86,712Z" transform="translate(-92.67 -204.09)"/><path class="cls-20" d="M381.07,701.26s14.81,6.32,5.22,21.54c0,0-5.51,3-13.63-4.07,0,0,2.9-1.67,1.91-4a4.82,4.82,0,0,0-2.71-2.78S376.92,702.44,381.07,701.26Z" transform="translate(-92.67 -204.09)"/><path class="cls-21" d="M386.19,640.24c6.09,15.38,5.12,46.44-13.73,70.61,0,0,15.24,60.53-58.66,44.12-38.27-8.5-65.92-43.64-61.9-70,.55-3.65-1.15-8.77-1.32-12.5-.43-9.48-9.77-7.59-5.09-31.13,7-35.34,42.52-50.74,69.22-50.37C344.52,591.34,373,606.79,386.19,640.24Z" transform="translate(-92.67 -204.09)"/><path class="cls-36" d="M245.84,638.93c7-35.35,42.52-50.74,69.22-50.37,29.81.41,58.24,15.86,71.48,49.31,2.83,7.15,4.13,17.7,2.82,29.36a21.47,21.47,0,0,1-19.85-12.49c-4.43,5.41-11.37,3.17-14.4-.91-5.23-5.62-11.68-2.93-18.62-5.17.17-1.18-.67-3.73-1.85-3.9-6.28,1.49-13.05-1.93-13.36-8-2.41,8.12-17.82,5.85-24.24.06.84,2.54,1.67,5.09.31,6.1-8,4.88-17.3,2.3-25.6,1.07,3.38,1.71,1.5,6.28,1.32,7.47-6.62,3.87-13.56,1.63-20.68.58,2.37.35,4.22,4.26,3,4.09a13.18,13.18,0,0,1-10.42-.7C244.28,651.84,244.27,646.82,245.84,638.93Z" transform="translate(-92.67 -204.09)"/><path class="cls-36" d="M379.46,677.28c1.41.27,4.17,20.07-3.89,26.4-5.77,4.53-19.78,5.88-31.23-2.75s-21.82-9.72-35.58-4c-3.08,1.28-9.16-.3-14.71-1.32-7.56-1.38-12.67-7.92-11.38-14.5l.78-9.55c.68-3.49,5.34-6.67,6.45-10.36,10.66-35.54,39.15-19,61.83-10.32C383,662.77,379.46,677.28,379.46,677.28Z" transform="translate(-92.67 -204.09)"/><path class="cls-18" d="M256.51,669.37S245,644.56,232.05,656.14s1.23,41,19.54,29.92C251.59,686.06,256.28,682.24,256.51,669.37Z" transform="translate(-92.67 -204.09)"/><path class="cls-19" d="M253,677.07s-7.56.32-3.95,7.13c0,0-12.83,5.65-18.93-4.07-6.48-10.32-.3-24.21,8.27-23.34C248,657.76,249.23,661.64,253,677.07Z" transform="translate(-92.67 -204.09)"/><path class="cls-20" d="M247.68,661s-19.33.29-15.59,21.57c0,0,4.76,5.81,17,1.68,0,0-2.47-3.18-.32-5.26a5.81,5.81,0,0,1,4.27-1.87S251.76,664.15,247.68,661Z" transform="translate(-92.67 -204.09)"/><path class="cls-47" d="M340.12,704.76s-.37-1.17-1.18-3.32c-1.39-3.7-4.83-1.52-6.07-3.63-5.29-9.06-6.86-9.47-7.46,1a15,15,0,0,1-1.49,4.23s.84,6.85,6.14,7.86C333.82,711.58,339,709.62,340.12,704.76Z" transform="translate(-92.67 -204.09)"/><path class="cls-48" d="M332,687.42c-2.15,3.83-1.92,8.39,1.73,11.25,2.72,2.14,8,1.42,5.67,7.75-2.75,7.46-15,6.32-15.13-2.08a.45.45,0,0,0-.9,0c.15,7.38,8.57,10.44,14.1,5.9,1.94-1.59,5.13-6.09,3.62-8.83a3.56,3.56,0,0,0-2-1.53c-2-.92-3.15-.34-5.26-2.23-2.87-2.56-2.91-6.53-1.09-9.78.28-.5-.5-1-.78-.45Z" transform="translate(-92.67 -204.09)"/><path class="cls-19" d="M270.3,703.12c-.69,4.66-1.48,16.74,7,18s19.52-9.17,20.21-13.83-5.65-9.47-14.17-10.72S271,698.45,270.3,703.12Z" transform="translate(-92.67 -204.09)"/><path class="cls-19" d="M352.43,721.29c-1,7,5.88,14.19,11.12,15s8.61-.86,9.64-7.81-2.39-13.23-7.63-14S353.46,714.33,352.43,721.29Z" transform="translate(-92.67 -204.09)"/><path class="cls-33" d="M355.46,645.05q7.94,2.64,15.66,6.06C366.43,652.75,359.11,647.85,355.46,645.05Z" transform="translate(-92.67 -204.09)"/><path class="cls-33" d="M342.05,641.2c3.12.76,6.24,1.6,9.35,2.55C345.86,645.07,343.26,643.35,342.05,641.2Z" transform="translate(-92.67 -204.09)"/><path class="cls-33" d="M372.48,650.37a26.49,26.49,0,0,1,2.57-4.71A7.49,7.49,0,0,1,372.48,650.37Z" transform="translate(-92.67 -204.09)"/><path class="cls-33" d="M230.7,607c-5.58-7.93,7.93-12.28,7.93-12.28-5.74-6.49-7.63-12.55-3.38-26.71s28.64-11.45,28.64-11.45-3-7.65,1.68-14.45,15.85,9.08,15.85,9.08,8.1-13.74,21.44-16.64,23.55,9.92,23.55,9.92-.61-5.92,6.48-11,8.14,8.22,8.14,8.22c5-9.69,9.05-10.7,17.7-6.82,6.95,3.13,3.29,10.75,1.59,13.62-1.14.5-.71,1.11-.71,1.11s.3-.42.71-1.11c1.46-.65,7.52-6.26,18.34-5.06,19.25,2.14,19,27,19,27a9.55,9.55,0,0,1,11-.8c6.08,3.61-1.58,10.68-1.58,10.68s11.51-5.52,22.49,11.79-6.74,29.3-6.74,29.3,12.28,3.82,10.42,19.71-22.08,10.07-22.08,10.07,0,0-.18,3.79c-.41,8.39-9.56,13-21.24,10-8.29-2.09-17.4-13.47-17.74-13.49.12-.39.26-.77.41-1.15a7.49,7.49,0,0,0,2.57-4.71,26.49,26.49,0,0,0-2.57,4.71,4.87,4.87,0,0,1-1.36.74q-7.71-3.42-15.66-6.06c-1.37-1-2.23-1.81-2.23-1.81q-1,.3-1.83.51c-3.11-1-6.23-1.79-9.35-2.55a9.62,9.62,0,0,1-1-5.17c-1.35,11.56-16.35-4.74-16.35-4.74-6.48,11-13.61-5.89-13.61-5.89.88,14.72-25.4,6-25.4,6-4.25,14.15-11.89,1.6-11.89,1.6.11,10.26-8.71,7.81-8.71,7.81a7.81,7.81,0,0,1,.37,7.88,4.8,4.8,0,0,1-6.64.68c-3.38-1.71-5.22-5.62-4.53-10.36-1,7.11-8.16,6.07-12.73,4.18-.48-.33-1-.72-1.48-1.14-2.28-14.29,2.93-29.29,2.93-29.29S236.27,614.9,230.7,607Z" transform="translate(-92.67 -204.09)"/><path class="cls-33" d="M360.32,548.47c-.41.69-.71,1.11-.71,1.11S359.18,549,360.32,548.47Z" transform="translate(-92.67 -204.09)"/><path class="cls-29" d="M372.87,575.19s.57-16-15.5-12c0,0,10-10.14,17.19-2.48C379.19,565.65,372.87,575.19,372.87,575.19Z" transform="translate(-92.67 -204.09)"/><path class="cls-29" d="M400.48,606.05s11.38,2.73,2.5,12c0,0,13.75.37,10.33-10.56C411.42,601.41,400.48,606.05,400.48,606.05Z" transform="translate(-92.67 -204.09)"/><path class="cls-29" d="M302,558.55s-2.68-10.54-8.31-6.77-4.87,8.23-4.87,8.23-5.26-11.35,3.14-15.74C298.89,540.65,302.51,554.22,302,558.55Z" transform="translate(-92.67 -204.09)"/><path class="cls-29" d="M261.48,571.61s-6.86-8.08-11.62,10.41c0,0-4.13-20.94,7.49-19.65C262.49,562.94,261.48,571.61,261.48,571.61Z" transform="translate(-92.67 -204.09)"/><path class="cls-29" d="M304.72,588.92s-.71,19.81,19.16,14.78c0,0-12.31,12.53-21.24,3.07C296.92,600.71,304.72,588.92,304.72,588.92Z" transform="translate(-92.67 -204.09)"/><path class="cls-29" d="M267,628.05s-14.38-3.44-3.16-15.13c0,0-17.36-.47-13.05,13.33C253.13,633.91,267,628.05,267,628.05Z" transform="translate(-92.67 -204.09)"/><path class="cls-29" d="M382.19,638.17s3.15,12.41,9.79,8,5.72-9.7,5.72-9.7S403.89,649.82,394,655C385.86,659.25,381.6,643.28,382.19,638.17Z" transform="translate(-92.67 -204.09)"/><path class="cls-29" d="M359.89,612.23s5.07,6,8.58-7.69c0,0,3.06,15.47-5.53,14.52C359.14,618.64,359.89,612.23,359.89,612.23Z" transform="translate(-92.67 -204.09)"/><path class="cls-24" d="M322.37,678.79c-1.43,9.66-11.33,16.21-23.61,14.55-9.68-1.31-17-11.38-15.31-21,1.93-11.16,11.92-15.34,21.59-13.91S323.79,669.12,322.37,678.79Z" transform="translate(-92.67 -204.09)"/><path class="cls-25" d="M323.05,679.7c-1.43,9.67-11.33,16.21-23.61,14.55a17.62,17.62,0,0,1-14.92-20.08c1.43-9.66,11.66-14.67,21.33-13.25S324.47,670,323.05,679.7Z" transform="translate(-92.67 -204.09)"/><path class="cls-26" d="M322.9,681.29c-.77,5.17-5.45,7.87-10.62,7.11s-8.87-4.7-8.11-9.87a9.47,9.47,0,0,1,18.73,2.76Z" transform="translate(-92.67 -204.09)"/><circle class="cls-27" cx="220.87" cy="475.83" r="4.73"/><circle class="cls-28" cx="225.89" cy="474.18" r="2.37"/><path class="cls-24" d="M344,684.22c-1.43,9.66,6.17,18.79,18.39,20.74,9.65,1.54,19.55-6,20.73-15.69,1.38-11.25-7-18.13-16.66-19.55S345.41,674.55,344,684.22Z" transform="translate(-92.67 -204.09)"/><path class="cls-25" d="M343.07,684.9c-1.42,9.66,6.17,18.79,18.4,20.74a17.61,17.61,0,0,0,20.08-14.92c1.43-9.67-6.93-17.41-16.59-18.84S344.5,675.23,343.07,684.9Z" transform="translate(-92.67 -204.09)"/><path class="cls-26" d="M363.91,691.41c-.72,4.86,2.76,8.56,7.62,9.28s9.26-1.82,10-6.68a8.9,8.9,0,0,0-17.6-2.6Z" transform="translate(-92.67 -204.09)"/><circle class="cls-27" cx="280.04" cy="488.63" r="4.45"/><circle class="cls-28" cx="275.96" cy="485.78" r="2.22"/><path class="cls-49" d="M337.15,737.09s-4-4.49-.48-9.32c3.66-5.07-14.23-8.13-21.15-6.8s-15.82,10.34-9.18,10.6C312.12,731.79,325.72,733,337.15,737.09Z" transform="translate(-92.67 -204.09)"/><path class="cls-50" d="M334.87,723.92s1,.74-2.36.82-13.24-1.36-14.26-2.1a.83.83,0,0,1-.34-.48c-.29-1.07,1.34-1.81,3.32-1.63C324.63,720.85,330.63,721.7,334.87,723.92Z" transform="translate(-92.67 -204.09)"/><path class="cls-50" d="M336.15,736.9s.42-2.87-3.88-4.09-23.95-4.71-26.32-3.88a4.16,4.16,0,0,0-2.7,3.12S321.22,731.76,336.15,736.9Z" transform="translate(-92.67 -204.09)"/><path class="cls-51" d="M315.63,693.57l-1,2.65c-.55,1.5-3.08,2.16-5.4,1.4a172.79,172.79,0,0,0-23.78-5.83c-4.79-.81-4.69-5.26.11-5.17a140.74,140.74,0,0,1,26.84,3.54C314.69,690.64,316.13,692.19,315.63,693.57Z" transform="translate(-92.67 -204.09)"/><path class="cls-51" d="M344.42,700.61l.1,2.8c.05,1.59,2,2.91,4.21,2.82a138.56,138.56,0,0,1,21.84.89c4.3.53,5.43-3.76,1.32-5a111.84,111.84,0,0,0-23.82-3.93C346,698.05,344.37,699.14,344.42,700.61Z" transform="translate(-92.67 -204.09)"/><path class="cls-29" d="M355.77,661.76c-.5,1.74,10.43,8.84,16.21,11.46s10.47,4.73,11.6,1.65c.63-1.7-4.33-3.91-9.34-7.81C363.54,658.73,357.25,656.6,355.77,661.76Z" transform="translate(-92.67 -204.09)"/><path class="cls-29" d="M321.28,651.32c.06,1.81-12.27,6-18.51,7.17s-11.31,2-11.66-1.22c-.19-1.8,5.15-2.74,11-5.3C314.48,646.49,321.1,646,321.28,651.32Z" transform="translate(-92.67 -204.09)"/><path class="cls-52" d="M231.79,742s-1.74,52.87-8.92,72.06L224,830.09l.67,9-2,5.38-4.06,11.12-16.39-3.58,9.23-20.74-8.87,11.6c-6.88-1.85,5.63-21.57,5.91-23.36,0,0-11.6-33.06-10-58.3C198.56,761.26,211.32,711.74,231.79,742Z" transform="translate(-92.67 -204.09)"/><path class="cls-14" d="M231.18,758.36s-19-9.52-34.28-2.94c0,0-5.08-29.06,15.24-47.18S248.52,731.91,231.18,758.36Z" transform="translate(-92.67 -204.09)"/><polygon class="cls-14" points="168.8 544.49 162.36 580.38 173.74 584.28 168.8 544.49"/><polygon class="cls-53" points="551.83 502.88 555.44 510.23 529.41 562.54 419.38 580.05 416.97 575.14 446.57 536.29 551.83 502.88"/><polygon class="cls-54" points="551.83 502.88 525.8 555.19 416.97 575.14 446.57 536.29 551.83 502.88"/><polygon class="cls-55" points="539.58 508.89 519.74 549.04 425.57 567.88 447.77 538.74 539.58 508.89"/><polygon class="cls-56" points="483.74 526.69 492.25 553.41 482.15 555.71 475.46 529.54 483.74 526.69"/><polygon class="cls-56" points="467.96 532.11 475.79 557.15 453.24 562.28 457.54 535.69 467.96 532.11"/><ellipse class="cls-57" cx="618.54" cy="750.12" rx="4.1" ry="2.73" transform="translate(-359.88 145.14) rotate(-26.14)"/><path class="cls-58" d="M589.52,765.6s9.2-4.6,16.11-3.06c.75.16,2.46,3,2.46,3l15.94-3,8.35-17.1-2.21,21.7-10.74,18.4-12.27,3.84-4.6-1.54-4.6,3.07H585.69l-3.84,2.3-5.78.83a12.25,12.25,0,0,1-13.43-8.48l-2.17-6.94a7,7,0,0,1,5.51-9Z" transform="translate(-92.67 -204.09)"/><polygon class="cls-59" points="512.88 533.22 578.33 211.34 335.38 211.34 475.26 544.49 512.88 533.22"/><path class="cls-60" d="M619.53,450.47a18.37,18.37,0,0,1,14.7,7.7,17.63,17.63,0,0,1,3.39,7.71,16.35,16.35,0,0,1,.21,4,22.15,22.15,0,0,1-3.91,10.71,41.93,41.93,0,0,1-7,8.07,61.4,61.4,0,0,1-15.66,10.38,32.1,32.1,0,0,1-7.58,2.56,15.63,15.63,0,0,1-2.64.25q-40.25,0-80.5,0a19.58,19.58,0,0,1-6.55-1.35,59.47,59.47,0,0,1-23.79-16.47,30,30,0,0,1-5.3-8.75,19.54,19.54,0,0,1-1.05-4c-.08-.46-.1-.93-.16-1.4a2.29,2.29,0,0,0-.07-.28V468a1.25,1.25,0,0,0,.07-.31,16.69,16.69,0,0,1,1.21-5.22,19.19,19.19,0,0,1,10-10.46,15.94,15.94,0,0,1,5.72-1.46c.59,0,1.18-.06,1.77-.06H619.53Zm-58.78,7.34H502.4c-.42,0-.84,0-1.26.06a9.44,9.44,0,0,0-4.48,1.49,12.32,12.32,0,0,0-5,5.88,9.55,9.55,0,0,0-.55,5.54,16,16,0,0,0,2.45,5.7,32.12,32.12,0,0,0,5.7,6.45c1.24,1.08,2.49,2.16,3.8,3.15a59.43,59.43,0,0,0,8.87,5.56,33.71,33.71,0,0,0,5.69,2.38,9.73,9.73,0,0,0,2.59.5q40.5,0,81,0a5,5,0,0,0,.94-.1,25.07,25.07,0,0,0,6-2.13,58.3,58.3,0,0,0,8-4.62,53.33,53.33,0,0,0,6.31-5c1.13-1.06,2.19-2.2,3.22-3.34a21.51,21.51,0,0,0,3.7-5.58,12.73,12.73,0,0,0,1.14-4.36,9.3,9.3,0,0,0-.68-4.07,12.21,12.21,0,0,0-5.63-6.36,10,10,0,0,0-4.85-1.2Z" transform="translate(-92.67 -204.09)"/><path class="cls-61" d="M531.13,391.72v-.06h26.2a.13.13,0,0,0,0,.06H531.13Z" transform="translate(-92.67 -204.09)"/><path class="cls-62" d="M524.05,421.08a3.65,3.65,0,0,1-3.72-3.71c0-1.21,0-2.41,0-3.62V402.86a3.71,3.71,0,0,1,3.2-3.8,2.41,2.41,0,0,1,.38,0h36.85c2.22,0,4.44,0,6.66,0a5.37,5.37,0,0,1,2.21.46,74,74,0,0,1,7.75,3.91,62.52,62.52,0,0,1,7,4.47,18.56,18.56,0,0,1,1.75,1.56,2.47,2.47,0,0,1,.34.62v.08q0,3.64,0,7.29a9,9,0,0,1-.93,2.65,35.71,35.71,0,0,1-3.37,5.6,2.26,2.26,0,0,0-.16.26,1.72,1.72,0,0,1-.21.07c-.47,0-.93,0-1.4.07l-2.78.2-4.71.34-2.82.21-3.76.27-3.63.27-3.73.28-3.66.27-4.18.28a7,7,0,0,0-1.12.09.6.6,0,0,1-.65-.22q-3.36-3.37-6.75-6.74a.79.79,0,0,0-.49-.24Z" transform="translate(-92.67 -204.09)"/><path class="cls-63" d="M524.05,421.08h18.08a.79.79,0,0,1,.49.24q3.39,3.36,6.75,6.74a.6.6,0,0,0,.65.22,7,7,0,0,1,1.12-.09l4.18-.28,3.66-.27,3.73-.28,3.63-.27,3.76-.27,2.82-.21,4.71-.34,2.78-.2c.47,0,.93-.05,1.4-.07a1.72,1.72,0,0,0,.21-.07l2.41-.16,3-.18,4.14-.31c.66,0,1.33-.06,2-.11.87-.05,1.73-.12,2.6-.18.46,0,.93-.06,1.39-.08l2-.08a4.93,4.93,0,0,0,.54-.05s-.08.11-.13.12l-3.56.53-4.23.64-3.55.57-3.72.59-4.49.73-4.06.64-3.59.59-4.12.64-3.49.57-4,.66c-1.35.22-2.7.45-4.06.66l-3.95.64-4.36.7-4.09.67-4.39.72-4.05.65-3.92.64-4,.66-4.39.72-4,.64-4,.66-4,.64-4.75.78-4,.66-4.36.71-4,.66-4.82.79c-.94.16-1.88.29-2.82.44,0-1.44-.06-2.88.07-4.31a7.17,7.17,0,0,1,2.92-5.45,6.84,6.84,0,0,1,3.93-1.19c.94,0,1.87-.08,2.81-.12l1.91-.08,2.4-.17c.68,0,1.36-.06,2-.11s1.66-.13,2.5-.19c.49,0,1-.05,1.49-.09l2.46-.18,1.15-.08c.87-.05,1.74-.08,2.61-.14s1.78-.16,2.67-.23c.66-.05,1.32-.06,2-.11l3.79-.31c.62,0,1.25-.06,1.87-.1l3.7-.3c.95-.07,1.91-.11,2.86-.18l3.07-.26,2.33-.15c.3,0,.6-.06,1-.1l-.36-.24-12.16-7.74Z" transform="translate(-92.67 -204.09)"/><path class="cls-63" d="M586.48,417.42q0-3.65,0-7.29l.07-.06h32.59a1.8,1.8,0,0,0,.75-.18c2.23-1.11,4.46-2.23,6.69-3.33a1.28,1.28,0,0,1,.58-.15h10.4l.29,0v14.67H627.16a1.41,1.41,0,0,1-.58-.13l-6.82-3.39a1.77,1.77,0,0,0-.55-.13,2.57,2.57,0,0,0-.48,0H586.48ZM627,410.07l-.07.06q0,3.57,0,7.14a.42.42,0,0,0,0,.12h7.27v-7.32Z" transform="translate(-92.67 -204.09)"/><path class="cls-63" d="M560.76,399H527.7c0-1.24,0-2.48,0-3.73a3.61,3.61,0,0,1,3.42-3.59h26.21a3.64,3.64,0,0,1,3.41,3.63C560.76,396.58,560.76,397.81,560.76,399Z" transform="translate(-92.67 -204.09)"/><path class="cls-64" d="M586.54,410.07l-.07.06v-.08Z" transform="translate(-92.67 -204.09)"/><path class="cls-63" d="M520.33,406.38v7.37H513v-7.37Z" transform="translate(-92.67 -204.09)"/><path class="cls-65" d="M627,410.07l-.07.06Z" transform="translate(-92.67 -204.09)"/><path class="cls-62" d="M615,441.13a76,76,0,0,0-5.7-9.53,27.11,27.11,0,0,0-4.57-5.23,5.68,5.68,0,0,0-4.58-1.59s-.08.11-.13.12l-3.56.53-4.23.64-3.55.57-3.72.59-4.49.73-4.06.64-3.59.59-4.12.64-3.49.57-4,.66c-1.35.22-2.7.45-4.06.66l-3.95.64-4.36.7-4.09.67-4.39.72-4.05.65-3.93.64-4,.66-4.39.72-4,.64-4,.66-4,.64-4.75.78-4,.66-4.36.71-4,.66-4.82.79c-.94.16-1.88.29-2.82.44,0,.08,0,.15,0,.23q0,3.44,0,6.87c0,.09,0,.18,0,.28H500a5.51,5.51,0,0,1,.57.06c.59,0,1.18-.06,1.77-.06H619.53C618,447.36,616.57,444.22,615,441.13Z" transform="translate(-92.67 -204.09)"/><path class="cls-66" d="M601.74,446.06l-2.3-1.2c-.65-.34-1.31-.68-2-1a.45.45,0,0,0-.5,0l-3.87,2-.4.2c.1-.61.18-1.15.28-1.69.17-1,.33-2,.52-3a.57.57,0,0,0-.22-.58c-1.08-1-2.16-2.1-3.23-3.15l-.15-.17,1.91-.29c1-.14,2-.27,2.94-.43a.55.55,0,0,0,.32-.28c.67-1.32,1.32-2.65,2-4l.18-.34c.09.17.16.29.22.43.64,1.29,1.28,2.59,1.91,3.89a.49.49,0,0,0,.43.31l4.76.69-.24.27-3.21,3.12a.43.43,0,0,0-.16.44c.26,1.44.5,2.87.74,4.31C601.7,445.71,601.71,445.85,601.74,446.06Z" transform="translate(-92.67 -204.09)"/><path class="cls-63" d="M629.84,465.36a12.21,12.21,0,0,0-5.63-6.36,10,10,0,0,0-4.85-1.2h-117c-.42,0-.84,0-1.26.06a9.44,9.44,0,0,0-4.48,1.49,12.32,12.32,0,0,0-5,5.88,9.55,9.55,0,0,0-.55,5.54,16,16,0,0,0,2.45,5.7,32.12,32.12,0,0,0,5.7,6.45c1.24,1.08,2.49,2.16,3.8,3.15a59.43,59.43,0,0,0,8.87,5.56,33.71,33.71,0,0,0,5.69,2.38,9.73,9.73,0,0,0,2.59.5q40.5,0,81,0a5,5,0,0,0,.94-.1,25.07,25.07,0,0,0,6-2.13,58.3,58.3,0,0,0,8-4.62,53.33,53.33,0,0,0,6.31-5c1.13-1.06,2.19-2.2,3.22-3.34a21.51,21.51,0,0,0,3.7-5.58,12.73,12.73,0,0,0,1.14-4.36A9.3,9.3,0,0,0,629.84,465.36Z" transform="translate(-92.67 -204.09)"/><path class="cls-62" d="M505.93,481.41a9.17,9.17,0,1,1,9.17-9.15A9.13,9.13,0,0,1,505.93,481.41Z" transform="translate(-92.67 -204.09)"/><path class="cls-62" d="M612.45,463.07a9.18,9.18,0,1,1-9.2,8.79A9.15,9.15,0,0,1,612.45,463.07Z" transform="translate(-92.67 -204.09)"/><path class="cls-62" d="M592.26,477.77a7.34,7.34,0,1,1-.1,14.67,7.34,7.34,0,0,1,.1-14.67Z" transform="translate(-92.67 -204.09)"/><path class="cls-62" d="M526.11,477.77a7.34,7.34,0,1,1-7.34,7.3A7.36,7.36,0,0,1,526.11,477.77Z" transform="translate(-92.67 -204.09)"/><path class="cls-62" d="M570.24,477.77a7.34,7.34,0,1,1-7.39,7.25A7.38,7.38,0,0,1,570.24,477.77Z" transform="translate(-92.67 -204.09)"/><path class="cls-62" d="M548.13,477.77a7.34,7.34,0,1,1-7.32,7.35A7.36,7.36,0,0,1,548.13,477.77Z" transform="translate(-92.67 -204.09)"/><rect class="cls-62" x="405.78" y="194.78" width="3.68" height="33.13"/><polygon class="cls-4" points="409.38 208.58 389.3 203.23 408.71 193.86 409.38 208.58"/><circle class="cls-67" cx="462.83" cy="87.79" r="70.86"/><circle class="cls-6" cx="462.38" cy="88.02" r="57.98"/><path class="cls-68" d="M555.48,355.31c-34.62.35-63.63-28.46-63.46-63.67.16-34.64,28.49-63.39,63.44-63.21,17.59.09,32.72,6.3,45.09,18.8,12.56,12.67,18.57,28,18.42,45.91C618.68,326.75,590.41,355.66,555.48,355.31Zm-56-63.4a56,56,0,1,0,56-56A55.94,55.94,0,0,0,499.51,291.91Z" transform="translate(-92.67 -204.09)"/><path class="cls-55" d="M555,236v56.14l49.3,27.25s20.65-32.77-6.57-64.23C578.07,232.36,555,236,555,236Z" transform="translate(-92.67 -204.09)"/><path class="cls-69" d="M557.47,288.28c0-.33,0-.65,0-1q0-14.61,0-29.23a6,6,0,0,0-.09-1.19,2.41,2.41,0,0,0-4.71,0,5.33,5.33,0,0,0-.09,1q0,15,0,30c0,.22,0,.44,0,.66A5.63,5.63,0,0,1,557.47,288.28Z" transform="translate(-92.67 -204.09)"/><path class="cls-70" d="M557.44,296.2c1.66,1.06,3.31,2.14,5,3.19q5.55,3.51,11.11,7a8.32,8.32,0,0,0,1,.61,2.38,2.38,0,0,0,2.92-.78,2.41,2.41,0,0,0-.17-3,4.57,4.57,0,0,0-.76-.62l-16.3-10.28a2.87,2.87,0,0,0-.39-.2A5.8,5.8,0,0,1,557.44,296.2Z" transform="translate(-92.67 -204.09)"/><path class="cls-71" d="M559.25,289.77l-.93-1a11.15,11.15,0,0,1,.79-.89l20.83-19.69c.21-.2.41-.49.66-.55a1.3,1.3,0,0,1,1,.15c.14.12.08.59,0,.87s-.27.33-.43.48l-21.71,20.51A1.09,1.09,0,0,1,559.25,289.77Z" transform="translate(-92.67 -204.09)"/><path class="cls-72" d="M551.05,294.18a4.31,4.31,0,0,1-.48-1.4,5.08,5.08,0,0,1,2-4.7,5,5,0,0,1,5.56-.49,4.93,4.93,0,0,1,2.29,4.77,5.79,5.79,0,0,1-1,2.67,3.65,3.65,0,0,1-.61.57,5.36,5.36,0,0,1-4.41,1.1A5.17,5.17,0,0,1,551.05,294.18Z" transform="translate(-92.67 -204.09)"/><path class="cls-73" d="M556.25,332l-.69,1c-1.09-1-2.31-1.46-3.61-.72-1.49.83-1.72,2.33-1.83,4.05l.77-.55a3.83,3.83,0,0,1,2.54-.85,3.24,3.24,0,0,1,3.31,2.62,3.56,3.56,0,0,1-2,4.15,3.92,3.92,0,0,1-5.41-2.22,7.81,7.81,0,0,1,.35-6.77A4.1,4.1,0,0,1,556.25,332Zm-3.48,4.09a3.21,3.21,0,0,0-2.3,1.28.92.92,0,0,0-.21.69,7.44,7.44,0,0,0,1.07,2.08,2.5,2.5,0,0,0,3,.18,2.35,2.35,0,0,0,.92-2.69A2.41,2.41,0,0,0,552.77,336.05Z" transform="translate(-92.67 -204.09)"/><path class="cls-74" d="M507.64,295.05c.08-.14.17-.3.27-.44a4.35,4.35,0,0,1,.37-.45c.32.23.59.46.89.64a2.8,2.8,0,0,0,3.76-.9,5.69,5.69,0,0,0,.78-3.1l-1,.73a3.83,3.83,0,0,1-4.58-.18,3.64,3.64,0,0,1-.74-4.23,3.48,3.48,0,0,1,3-2,3.76,3.76,0,0,1,3.71,1.62,8.21,8.21,0,0,1,0,7.94A4.06,4.06,0,0,1,507.64,295.05Zm.8-6.53a2.16,2.16,0,0,0,1.06,2.1,3.15,3.15,0,0,0,3.9-.92,1,1,0,0,0,.16-.71,6.64,6.64,0,0,0-1-2,2.26,2.26,0,0,0-2.72-.43A2.2,2.2,0,0,0,508.44,288.52Z" transform="translate(-92.67 -204.09)"/><path class="cls-75" d="M594.76,294.47l.55-.48a28,28,0,0,0,2.88,1.14,3.27,3.27,0,0,0,1.6-.14,1.8,1.8,0,0,0,1.36-1.89,1.74,1.74,0,0,0-1.45-1.69,6.68,6.68,0,0,0-1.19-.15c-.36,0-.71,0-1.13,0V290a8.09,8.09,0,0,0,1.31,0,5.43,5.43,0,0,0,1.55-.45A1.38,1.38,0,0,0,601,288a1.7,1.7,0,0,0-1.28-1.49,3.83,3.83,0,0,0-4.06,1.18l-.67-.81c1.22-2.14,5-2.26,6.48-1a2.59,2.59,0,0,1-.15,4.14c-.2.15-.43.27-.72.46l.72.45a2.83,2.83,0,0,1,.3,4.52C599.84,297.07,595.83,296.61,594.76,294.47Z" transform="translate(-92.67 -204.09)"/><path class="cls-76" d="M557,249.47h4.84l.06,1.22h-7.48a1.17,1.17,0,0,1,.47-1.52c1.43-1.2,2.84-2.41,4.18-3.7a5.38,5.38,0,0,0,1.16-1.83,1.93,1.93,0,0,0-1.75-2.74,3.88,3.88,0,0,0-3.3,1.28l-.9-.84a4.86,4.86,0,0,1,4.52-1.69,3.16,3.16,0,0,1,2.6,4.82,18.55,18.55,0,0,1-2.71,3.26,20.13,20.13,0,0,1-1.77,1.54Z" transform="translate(-92.67 -204.09)"/><path class="cls-77" d="M518.31,271.13,511.19,267l1.78-3.07,7.12,4.11Z" transform="translate(-92.67 -204.09)"/><path class="cls-78" d="M536.09,327.76,532,334.89l-3.08-1.77L533,326Z" transform="translate(-92.67 -204.09)"/><path class="cls-78" d="M579.07,246.22l3.07,1.79L578,255.13,575,253.35Z" transform="translate(-92.67 -204.09)"/><path class="cls-79" d="M518.31,310l1.78,3.09L513,317.18l-1.79-3.06Z" transform="translate(-92.67 -204.09)"/><path class="cls-78" d="M578,326l4.11,7.11-3,1.8L575,327.78Z" transform="translate(-92.67 -204.09)"/><path class="cls-78" d="M591,313.07l1.77-3.08,7.12,4.11-1.77,3.08Z" transform="translate(-92.67 -204.09)"/><path class="cls-78" d="M528.9,248l3.08-1.79,4.11,7.13L533,255.12Z" transform="translate(-92.67 -204.09)"/><path class="cls-78" d="M599.86,267l-7.13,4.11L591,268.05l7.13-4.11C598.68,265,599.23,265.94,599.86,267Z" transform="translate(-92.67 -204.09)"/><path class="cls-80" d="M552.19,239.68v11h-1.32V242l-.24-.13-1.41,1.92-1-1.2c.89-.91,1.68-1.81,2.57-2.6C551.08,239.75,551.64,239.79,552.19,239.68Z" transform="translate(-92.67 -204.09)"/></g></g></svg>