<svg width="81" height="24" viewBox="0 0 81 24" fill="none" xmlns="http://www.w3.org/2000/svg">
<path d="M80.346 21.0395C80.346 22.2978 79.3116 23.3171 78.0323 23.3171H2.31669C1.03795 23.3171 0 22.2978 0 21.0395V2.87628C0 1.61855 1.03795 0.595703 2.31669 0.595703H78.0317C79.3116 0.595703 80.3454 1.61855 80.3454 2.87628L80.346 21.0395Z" fill="#DFDFDF"/>
<path d="M17.6807 11.829C17.6632 9.92648 19.2689 9.00087 19.3424 8.95778C18.433 7.65733 17.0235 7.47964 16.5281 7.46548C15.3443 7.34328 14.196 8.16027 13.593 8.16027C12.9779 8.16027 12.0492 7.47728 11.0484 7.49735C9.76042 7.51683 8.55553 8.24823 7.89471 9.38398C6.53094 11.6998 7.54805 15.1029 8.85465 16.9748C9.50825 17.8915 10.272 18.9151 11.2716 18.8791C12.2496 18.8396 12.615 18.2676 13.7952 18.2676C14.9646 18.2676 15.3076 18.8791 16.3271 18.8561C17.3767 18.8396 18.0376 17.9352 18.6683 17.0102C19.4236 15.9594 19.7269 14.9246 19.739 14.8715C19.7143 14.8632 17.7005 14.1094 17.6807 11.829Z" fill="white"/>
<path d="M15.7548 6.23409C16.2808 5.58888 16.6407 4.71109 16.5408 3.82031C15.7794 3.85337 14.8273 4.33683 14.2791 4.96788C13.794 5.52395 13.3606 6.43539 13.4726 7.29252C14.3278 7.35509 15.2059 6.86926 15.7548 6.23409Z" fill="white"/>
<path d="M31.834 18.7465H30.4672L29.7185 16.439H27.1161L26.4029 18.7465H25.0723L27.6506 10.8906H29.243L31.834 18.7465ZM29.4928 15.4708L28.8157 13.4195C28.7441 13.21 28.6099 12.7165 28.4119 11.9396H28.3878C28.309 12.2737 28.182 12.7672 28.0074 13.4195L27.3424 15.4708H29.4928V15.4708Z" fill="white"/>
<path d="M38.4649 15.8438C38.4649 16.8072 38.1995 17.5687 37.6687 18.1277C37.1933 18.6253 36.6028 18.8738 35.8981 18.8738C35.1374 18.8738 34.5909 18.6058 34.2581 18.0698H34.234V21.0539H32.9509V14.9459C32.9509 14.3403 32.9346 13.7187 32.9033 13.0811H34.0318L34.1034 13.979H34.1275C34.5554 13.3025 35.2048 12.9648 36.0762 12.9648C36.7575 12.9648 37.3263 13.2287 37.7813 13.757C38.2375 14.286 38.4649 14.9813 38.4649 15.8438ZM37.1577 15.8898C37.1577 15.3385 37.0314 14.8839 36.7774 14.5262C36.4999 14.1531 36.1274 13.9666 35.6604 13.9666C35.3438 13.9666 35.0561 14.0705 34.7991 14.2753C34.5415 14.4819 34.373 14.7517 34.2942 15.0858C34.2545 15.2417 34.2346 15.3692 34.2346 15.4695V16.414C34.2346 16.8261 34.3634 17.1738 34.621 17.4577C34.8786 17.7416 35.2132 17.8833 35.6249 17.8833C36.1081 17.8833 36.4843 17.7003 36.7533 17.3355C37.0229 16.9701 37.1577 16.4884 37.1577 15.8898Z" fill="white"/>
<path d="M45.1069 15.8457C45.1069 16.8091 44.8415 17.5706 44.3101 18.1297C43.8352 18.6273 43.2448 18.8758 42.5401 18.8758C41.7793 18.8758 41.2329 18.6078 40.9006 18.0718H40.8766V21.0558H39.5934V14.9479C39.5934 14.3422 39.5772 13.7206 39.5459 13.0831H40.6744L40.746 13.981H40.77C41.1974 13.3045 41.8467 12.9668 42.7188 12.9668C43.3995 12.9668 43.9682 13.2307 44.4244 13.759C44.8788 14.2879 45.1069 14.9833 45.1069 15.8457ZM43.7997 15.8918C43.7997 15.3404 43.6727 14.8859 43.4188 14.5282C43.1413 14.1551 42.77 13.9686 42.3023 13.9686C41.9852 13.9686 41.6981 14.0724 41.4405 14.2773C41.1829 14.4839 41.015 14.7537 40.9362 15.0878C40.897 15.2436 40.8766 15.3711 40.8766 15.4715V16.416C40.8766 16.828 41.0054 17.1757 41.2618 17.4596C41.5193 17.743 41.854 17.8853 42.2668 17.8853C42.7501 17.8853 43.1263 17.7023 43.3953 17.3375C43.6649 16.9721 43.7997 16.4904 43.7997 15.8918Z" fill="white"/>
<path d="M52.5333 16.5433C52.5333 17.2115 52.2967 17.7552 51.8219 18.1749C51.3001 18.6336 50.5737 18.8626 49.6402 18.8626C48.7784 18.8626 48.0875 18.6997 47.5645 18.3733L47.8618 17.3243C48.4251 17.6584 49.0432 17.8261 49.7166 17.8261C50.1999 17.8261 50.5761 17.7186 50.8463 17.5049C51.1153 17.2912 51.2495 17.0043 51.2495 16.6466C51.2495 16.3279 51.1388 16.0593 50.9167 15.8414C50.6958 15.6236 50.3269 15.4211 49.8117 15.234C48.4094 14.721 47.7089 13.9696 47.7089 12.9814C47.7089 12.3356 47.9544 11.8061 48.4462 11.394C48.9361 10.9814 49.5897 10.7754 50.407 10.7754C51.1358 10.7754 51.7412 10.8999 52.2245 11.1485L51.9037 12.1744C51.4524 11.9336 50.942 11.8132 50.3708 11.8132C49.9195 11.8132 49.5668 11.9224 49.314 12.1396C49.1004 12.3338 48.9932 12.5705 48.9932 12.8509C48.9932 13.1614 49.1154 13.4182 49.361 13.6201C49.5746 13.8066 49.9628 14.0085 50.5261 14.2263C51.2152 14.4985 51.7214 14.8167 52.047 15.1815C52.3714 15.5451 52.5333 16.0002 52.5333 16.5433Z" fill="white"/>
<path d="M56.776 14.0278H55.3616V16.7781C55.3616 17.4776 55.6108 17.827 56.1103 17.827C56.3396 17.827 56.5298 17.8076 56.6803 17.7686L56.7158 18.7243C56.463 18.817 56.1302 18.8636 55.7179 18.8636C55.2112 18.8636 54.8152 18.7119 54.5293 18.4091C54.2446 18.1057 54.1014 17.5968 54.1014 16.882V14.0266H53.2588V13.0821H54.1014V12.045L55.3616 11.6719V13.0821H56.776V14.0278Z" fill="white"/>
<path d="M63.1577 15.8682C63.1577 16.7389 62.9037 17.4537 62.397 18.0128C61.8655 18.5883 61.1602 18.8752 60.2809 18.8752C59.4335 18.8752 58.7588 18.5995 58.2557 18.0482C57.7525 17.4968 57.501 16.8009 57.501 15.962C57.501 15.0842 57.7598 14.3652 58.2792 13.8062C58.7973 13.2466 59.4967 12.9668 60.376 12.9668C61.2234 12.9668 61.9053 13.2425 62.4198 13.7944C62.9121 14.3298 63.1577 15.0211 63.1577 15.8682ZM61.8264 15.9089C61.8264 15.3865 61.7127 14.9384 61.4822 14.5648C61.2131 14.1126 60.8286 13.8871 60.3302 13.8871C59.8145 13.8871 59.4227 14.1132 59.1536 14.5648C58.9231 14.939 58.8094 15.3942 58.8094 15.9325C58.8094 16.4549 58.9231 16.903 59.1536 17.2761C59.4311 17.7282 59.8187 17.9537 60.3188 17.9537C60.8087 17.9537 61.1933 17.7235 61.4707 17.2643C61.7073 16.8835 61.8264 16.4307 61.8264 15.9089Z" fill="white"/>
<path d="M67.3282 14.1899C67.2012 14.1669 67.0657 14.1551 66.9237 14.1551C66.4723 14.1551 66.1233 14.3221 65.8777 14.6569C65.6641 14.952 65.5569 15.3251 65.5569 15.7755V18.7477H64.2744L64.2864 14.867C64.2864 14.2141 64.2702 13.6197 64.2383 13.0837H65.3559L65.4029 14.1675H65.4384C65.5738 13.795 65.7874 13.4951 66.0799 13.2702C66.3658 13.0677 66.6745 12.9668 67.0074 12.9668C67.1259 12.9668 67.2331 12.9751 67.3282 12.9898V14.1899Z" fill="white"/>
<path d="M73.0661 15.6443C73.0661 15.8698 73.0511 16.0599 73.0192 16.2152H69.1698C69.1848 16.7748 69.3708 17.2028 69.7283 17.4979C70.0527 17.7618 70.4722 17.894 70.9873 17.894C71.5573 17.894 72.0773 17.8049 72.5449 17.626L72.7459 18.4997C72.1994 18.7334 71.5543 18.8497 70.8098 18.8497C69.9143 18.8497 69.2113 18.5912 68.6997 18.0747C68.1894 17.5581 67.9336 16.8645 67.9336 15.9944C67.9336 15.1402 68.1713 14.4289 68.6474 13.8616C69.1457 13.256 69.8192 12.9531 70.6666 12.9531C71.4989 12.9531 72.129 13.256 72.5569 13.8616C72.8958 14.3427 73.0661 14.9377 73.0661 15.6443ZM71.8426 15.3179C71.851 14.9448 71.7673 14.6225 71.5934 14.3504C71.3713 14.0003 71.0301 13.8256 70.5709 13.8256C70.1514 13.8256 69.8101 13.9962 69.5495 14.3386C69.3359 14.6107 69.2089 14.9372 69.1698 15.3173H71.8426V15.3179Z" fill="white"/>
<path d="M29.0683 6.05856C29.0683 6.75335 28.8558 7.27637 28.4315 7.6276C28.0385 7.95168 27.48 8.11402 26.7566 8.11402C26.3979 8.11402 26.091 8.09867 25.834 8.06797V4.27169C26.1692 4.21856 26.5303 4.19141 26.9203 4.19141C27.6094 4.19141 28.1288 4.33839 28.4791 4.63237C28.8715 4.96471 29.0683 5.43991 29.0683 6.05856ZM28.4033 6.07568C28.4033 5.62527 28.2817 5.27994 28.0385 5.03909C27.7954 4.79884 27.4403 4.67841 26.9727 4.67841C26.7741 4.67841 26.6049 4.6914 26.4647 4.71855V7.60458C26.5424 7.61639 26.6844 7.6217 26.8908 7.6217C27.3735 7.6217 27.746 7.49006 28.0084 7.22678C28.2708 6.9635 28.4033 6.5798 28.4033 6.07568Z" fill="white"/>
<path d="M32.5941 6.66329C32.5941 7.09126 32.4696 7.44191 32.2204 7.71699C31.9592 7.99975 31.6131 8.14084 31.181 8.14084C30.7645 8.14084 30.4329 8.00565 30.1856 7.73411C29.9388 7.46316 29.8154 7.12137 29.8154 6.70933C29.8154 6.27841 29.9424 5.92481 30.1976 5.65032C30.4528 5.37582 30.7958 5.23828 31.228 5.23828C31.6444 5.23828 31.9791 5.37346 32.2324 5.64441C32.4732 5.90769 32.5941 6.24771 32.5941 6.66329ZM31.9399 6.68336C31.9399 6.42658 31.8834 6.20639 31.7708 6.0228C31.6384 5.80085 31.45 5.68987 31.2051 5.68987C30.9517 5.68987 30.7591 5.80085 30.6267 6.0228C30.5136 6.20639 30.4576 6.43012 30.4576 6.69458C30.4576 6.95136 30.5142 7.17155 30.6267 7.35513C30.7633 7.57709 30.9535 7.68807 31.1991 7.68807C31.4398 7.68807 31.6288 7.57532 31.7648 7.34923C31.8816 7.1621 31.9399 6.94015 31.9399 6.68336Z" fill="white"/>
<path d="M37.3225 5.29688L36.4348 8.0796H35.857L35.4893 6.87123C35.396 6.56958 35.3202 6.26971 35.2612 5.97219H35.2498C35.195 6.27797 35.1192 6.57726 35.0217 6.87123L34.6311 8.0796H34.0467L33.2119 5.29688H33.8601L34.1809 6.61976C34.2585 6.93263 34.3223 7.23073 34.3735 7.5129H34.3849C34.4318 7.28032 34.5095 6.98398 34.619 6.62566L35.0217 5.29747H35.5356L35.9214 6.59733C36.0147 6.91433 36.0905 7.21952 36.1489 7.51349H36.1664C36.2091 7.22719 36.2735 6.922 36.3589 6.59733L36.7032 5.29747H37.3225V5.29688Z" fill="white"/>
<path d="M40.5923 8.07945H39.9615V6.48561C39.9615 5.99447 39.7714 5.7489 39.3898 5.7489C39.2026 5.7489 39.0516 5.8162 38.9342 5.95138C38.818 6.08656 38.7591 6.24594 38.7591 6.42835V8.07886H38.1283V6.09187C38.1283 5.84748 38.1205 5.58243 38.1055 5.29554H38.6598L38.6893 5.7306H38.7067C38.7801 5.59542 38.8897 5.48385 39.0335 5.39471C39.2044 5.29082 39.3958 5.23828 39.6053 5.23828C39.8701 5.23828 40.0903 5.32211 40.2655 5.49034C40.4833 5.69636 40.5923 6.00391 40.5923 6.41241V8.07945V8.07945Z" fill="white"/>
<path d="M42.3313 8.07909H41.7012V4.01953H42.3313V8.07909Z" fill="white"/>
<path d="M46.0453 6.66329C46.0453 7.09126 45.9207 7.44191 45.6716 7.71699C45.4104 7.99975 45.0637 8.14084 44.6322 8.14084C44.2151 8.14084 43.8835 8.00565 43.6367 7.73411C43.39 7.46316 43.2666 7.12137 43.2666 6.70933C43.2666 6.27841 43.3936 5.92481 43.6488 5.65032C43.904 5.37582 44.247 5.23828 44.6785 5.23828C45.0956 5.23828 45.4296 5.37346 45.6836 5.64441C45.9243 5.90769 46.0453 6.24771 46.0453 6.66329ZM45.3905 6.68336C45.3905 6.42658 45.3339 6.20639 45.2214 6.0228C45.0896 5.80085 44.9006 5.68987 44.6563 5.68987C44.4023 5.68987 44.2097 5.80085 44.0779 6.0228C43.9647 6.20639 43.9088 6.43012 43.9088 6.69458C43.9088 6.95136 43.9653 7.17155 44.0779 7.35513C44.2145 7.57709 44.4047 7.68807 44.6502 7.68807C44.891 7.68807 45.0794 7.57532 45.2154 7.34923C45.3327 7.1621 45.3905 6.94015 45.3905 6.68336Z" fill="white"/>
<path d="M49.0977 8.07767H48.5313L48.4844 7.75713H48.467C48.2732 8.01274 47.9969 8.14084 47.6382 8.14084C47.3704 8.14084 47.1537 8.05642 46.9906 7.88877C46.8426 7.73647 46.7686 7.54698 46.7686 7.32208C46.7686 6.98206 46.913 6.72291 47.2037 6.54346C47.4938 6.364 47.9018 6.27605 48.4272 6.28018V6.22823C48.4272 5.86165 48.231 5.67865 47.838 5.67865C47.5582 5.67865 47.3114 5.74772 47.0984 5.88467L46.9702 5.47854C47.2338 5.31856 47.5594 5.23828 47.9434 5.23828C48.6848 5.23828 49.0568 5.62198 49.0568 6.38939V7.41416C49.0568 7.6922 49.0706 7.91357 49.0977 8.07767ZM48.4429 7.12137V6.69222C47.7471 6.68041 47.3993 6.86754 47.3993 7.25301C47.3993 7.39823 47.439 7.50684 47.5203 7.57945C47.6015 7.65206 47.705 7.68807 47.8284 7.68807C47.9668 7.68807 48.0962 7.64498 48.2142 7.55938C48.3327 7.4732 48.4056 7.36399 48.4326 7.22999C48.4393 7.19988 48.4429 7.16328 48.4429 7.12137Z" fill="white"/>
<path d="M52.6819 8.07909H52.1222L52.0927 7.63223H52.0753C51.8965 7.97225 51.592 8.14226 51.1641 8.14226C50.8222 8.14226 50.5376 8.01062 50.3119 7.74734C50.0862 7.48406 49.9736 7.14227 49.9736 6.72256C49.9736 6.27216 50.0958 5.90734 50.3414 5.62872C50.5791 5.36898 50.8704 5.23911 51.217 5.23911C51.598 5.23911 51.8646 5.36485 52.0163 5.61691H52.0283V4.01953H52.6597V7.3294C52.6597 7.60035 52.6669 7.85005 52.6819 8.07909ZM52.0283 6.90556V6.44157C52.0283 6.36129 52.0223 6.29636 52.0109 6.24677C51.9754 6.09801 51.8989 5.97287 51.7828 5.87192C51.6654 5.77098 51.524 5.72022 51.3609 5.72022C51.1256 5.72022 50.9414 5.81171 50.806 5.9953C50.6718 6.17889 50.6038 6.41324 50.6038 6.69954C50.6038 6.97462 50.6682 7.19776 50.7976 7.36954C50.9342 7.55254 51.1183 7.64404 51.3488 7.64404C51.5559 7.64404 51.7214 7.56789 51.8472 7.415C51.9687 7.27391 52.0283 7.1039 52.0283 6.90556Z" fill="white"/>
<path d="M58.0756 6.66329C58.0756 7.09126 57.951 7.44191 57.7018 7.71699C57.4406 7.99975 57.0952 8.14084 56.6625 8.14084C56.2466 8.14084 55.915 8.00565 55.667 7.73411C55.4203 7.46316 55.2969 7.12137 55.2969 6.70933C55.2969 6.27841 55.4239 5.92481 55.679 5.65032C55.9342 5.37582 56.2773 5.23828 56.71 5.23828C57.1259 5.23828 57.4611 5.37346 57.7139 5.64441C57.9546 5.90769 58.0756 6.24771 58.0756 6.66329ZM57.422 6.68336C57.422 6.42658 57.3654 6.20639 57.2529 6.0228C57.1199 5.80085 56.9321 5.68987 56.6865 5.68987C56.4338 5.68987 56.2412 5.80085 56.1082 6.0228C55.995 6.20639 55.939 6.43012 55.939 6.69458C55.939 6.95136 55.9956 7.17155 56.1082 7.35513C56.2448 7.57709 56.435 7.68807 56.6805 7.68807C56.9212 7.68807 57.1108 7.57532 57.2468 7.34923C57.363 7.1621 57.422 6.94015 57.422 6.68336Z" fill="white"/>
<path d="M61.4677 8.07945H60.8375V6.48561C60.8375 5.99447 60.6473 5.7489 60.2652 5.7489C60.078 5.7489 59.9269 5.8162 59.8102 5.95138C59.6934 6.08656 59.635 6.24594 59.635 6.42835V8.07886H59.0037V6.09187C59.0037 5.84748 58.9965 5.58243 58.9814 5.29554H59.5351L59.5646 5.7306H59.5821C59.6561 5.59542 59.7656 5.48385 59.9089 5.39471C60.0804 5.29082 60.2712 5.23828 60.4812 5.23828C60.7454 5.23828 60.9657 5.32211 61.1409 5.49034C61.3593 5.69636 61.4677 6.00391 61.4677 6.41241V8.07945V8.07945Z" fill="white"/>
<path d="M65.7123 5.75798H65.0177V7.10979C65.0177 7.45335 65.1411 7.62513 65.3855 7.62513C65.4986 7.62513 65.5925 7.61569 65.6665 7.59621L65.6828 8.0655C65.5582 8.11155 65.3945 8.13457 65.1929 8.13457C64.9437 8.13457 64.7499 8.06019 64.6097 7.91143C64.4689 7.76267 64.399 7.51238 64.399 7.16115V5.75798H63.9844V5.29459H64.399V4.78456L65.0171 4.60156V5.294H65.7117V5.75798H65.7123Z" fill="white"/>
<path d="M69.0509 8.07909H68.4195V6.49706C68.4195 5.99825 68.2294 5.74855 67.8484 5.74855C67.5559 5.74855 67.3561 5.89318 67.2465 6.18243C67.2279 6.24323 67.217 6.31761 67.217 6.40497V8.0785H66.5869V4.01953H67.217V5.6966H67.2291C67.4277 5.39141 67.7124 5.23911 68.0813 5.23911C68.3425 5.23911 68.5586 5.32294 68.7301 5.49117C68.9437 5.70073 69.0509 6.01242 69.0509 6.42445V8.07909V8.07909Z" fill="white"/>
<path d="M72.496 6.55608C72.496 6.66706 72.4875 6.76033 72.4725 6.83648H70.5809C70.5893 7.11156 70.6796 7.32112 70.8547 7.46634C71.0148 7.59621 71.2213 7.66114 71.474 7.66114C71.7539 7.66114 72.0091 7.61746 72.239 7.5295L72.3377 7.95925C72.0686 8.07377 71.7521 8.13103 71.3856 8.13103C70.9462 8.13103 70.6002 8.00411 70.3498 7.75028C70.0982 7.49644 69.9736 7.15583 69.9736 6.72845C69.9736 6.30874 70.0898 5.95928 70.3239 5.68065C70.5683 5.38313 70.8987 5.23438 71.3157 5.23438C71.7238 5.23438 72.0337 5.38313 72.2432 5.68065C72.4123 5.91677 72.496 6.20898 72.496 6.55608ZM71.8941 6.39611C71.8989 6.21252 71.8574 6.05432 71.7719 5.92091C71.6624 5.74913 71.4957 5.66294 71.27 5.66294C71.0642 5.66294 70.8963 5.74676 70.7681 5.915C70.6633 6.049 70.6014 6.20898 70.5809 6.39611H71.8941Z" fill="white"/>
</svg>
