<svg width="13" height="22" viewBox="0 0 13 22" fill="none" xmlns="http://www.w3.org/2000/svg">
<path d="M0.529843 12.2133L9.84616 21.5131C9.99917 21.6674 10.1812 21.7898 10.3818 21.8734C10.5824 21.957 10.7975 22 11.0148 22C11.2321 22 11.4472 21.957 11.6478 21.8734C11.8484 21.7898 12.0305 21.6674 12.1835 21.5131C12.49 21.2047 12.6621 20.7875 12.6621 20.3527C12.6621 19.9178 12.49 19.5007 12.1835 19.1923L4.03581 10.9623L12.1835 2.81465C12.49 2.50625 12.6621 2.08907 12.6621 1.65422C12.6621 1.21937 12.49 0.802193 12.1835 0.493795C12.031 0.33827 11.8492 0.214539 11.6486 0.129776C11.448 0.0450133 11.2326 0.000903958 11.0148 -1.44011e-07C10.797 0.00090392 10.5816 0.0450132 10.381 0.129776C10.1804 0.214538 9.9986 0.33827 9.84616 0.493795L0.529843 9.79365C0.362767 9.94779 0.229427 10.1349 0.138228 10.3431C0.0470276 10.5513 -5.62392e-05 10.7761 -5.62591e-05 11.0035C-5.6279e-05 11.2308 0.0470276 11.4556 0.138227 11.6638C0.229427 11.8721 0.362767 12.0591 0.529843 12.2133Z" fill="#C4C4C4"/>
</svg>
