<svg width="82" height="24" viewBox="0 0 82 24" fill="none" xmlns="http://www.w3.org/2000/svg">
<path d="M78.9953 23.7637H3.86836C2.21632 23.7637 0.863281 22.4347 0.863281 20.8121V3.10282C0.863281 1.4802 2.21632 0.151267 3.86836 0.151267H78.9953C80.6473 0.151267 82.0003 1.4802 82.0003 3.10282V20.8121C82.0003 22.4347 80.6473 23.7637 78.9953 23.7637Z" fill="#DFDFDF"/>
<path d="M29.362 6.19764C29.362 6.69054 29.2117 7.08531 28.9157 7.37973C28.5754 7.72875 28.1321 7.90437 27.589 7.90437C27.0698 7.90437 26.6266 7.7258 26.263 7.37383C25.8986 7.01669 25.7168 6.57839 25.7168 6.05375C25.7168 5.52911 25.8986 5.0908 26.263 4.73662C26.6266 4.38169 27.0698 4.20312 27.589 4.20312C27.8474 4.20312 28.0938 4.25552 28.329 4.35292C28.5634 4.45106 28.7542 4.58387 28.8924 4.74769L28.5784 5.05908C28.3372 4.77942 28.0089 4.64143 27.589 4.64143C27.2103 4.64143 26.882 4.7713 26.6033 5.03325C26.3276 5.29594 26.1893 5.6361 26.1893 6.05375C26.1893 6.47139 26.3276 6.81451 26.6033 7.0772C26.882 7.3362 27.2103 7.46902 27.589 7.46902C27.9909 7.46902 28.329 7.3362 28.5957 7.07425C28.7715 6.90084 28.8714 6.66177 28.8977 6.35628H27.589V5.92978H29.3349C29.3559 6.02202 29.362 6.1113 29.362 6.19764Z" fill="white" stroke="white" stroke-width="0.0722211" stroke-miterlimit="10"/>
<path d="M32.1316 4.71977H30.4916V5.84136H31.9701V6.26786H30.4916V7.38945H32.1316V7.82407H30.0273V4.28516H32.1316V4.71977Z" fill="white" stroke="white" stroke-width="0.0722211" stroke-miterlimit="10"/>
<path d="M34.0874 7.82602H33.6231V4.72172H32.6172V4.28711H35.0941V4.72172H34.0874V7.82602Z" fill="white" stroke="white" stroke-width="0.0722211" stroke-miterlimit="10"/>
<path d="M36.8857 7.82602V4.28711H37.3493V7.82602H36.8857Z" fill="white" stroke="white" stroke-width="0.0722211" stroke-miterlimit="10"/>
<path d="M39.4048 7.82407H38.9443V4.71977H37.9346V4.28516H40.4145V4.71977H39.4048V7.82407Z" fill="white" stroke="white" stroke-width="0.0722211" stroke-miterlimit="10"/>
<path d="M45.1024 7.36793C44.747 7.7258 44.3068 7.90437 43.7816 7.90437C43.2535 7.90437 42.8133 7.7258 42.4579 7.36793C42.1033 7.01079 41.9268 6.57248 41.9268 6.05375C41.9268 5.53501 42.1033 5.09671 42.4579 4.73957C42.8133 4.38169 43.2535 4.20312 43.7816 4.20312C44.3038 4.20312 44.744 4.38169 45.0994 4.74252C45.457 5.10261 45.6335 5.53796 45.6335 6.05375C45.6335 6.57248 45.457 7.01079 45.1024 7.36793ZM42.8012 7.07129C43.0687 7.3362 43.394 7.46902 43.7816 7.46902C44.1663 7.46902 44.4946 7.3362 44.759 7.07129C45.0257 6.80639 45.161 6.46623 45.161 6.05375C45.161 5.64127 45.0257 5.3011 44.759 5.0362C44.4946 4.7713 44.1663 4.63848 43.7816 4.63848C43.394 4.63848 43.0687 4.7713 42.8012 5.0362C42.5345 5.3011 42.3993 5.64127 42.3993 6.05375C42.3993 6.46623 42.5345 6.80639 42.8012 7.07129Z" fill="white" stroke="white" stroke-width="0.0722211" stroke-miterlimit="10"/>
<path d="M46.2852 7.82407V4.28516H46.8486L48.6006 7.03748H48.6209L48.6006 6.35714V4.28516H49.0641V7.82407H48.5803L46.7457 4.93597H46.7254L46.7457 5.61926V7.82407H46.2852Z" fill="white" stroke="white" stroke-width="0.0722211" stroke-miterlimit="10"/>
<path d="M41.8128 12.9901C40.4012 12.9901 39.248 14.0452 39.248 15.5011C39.248 16.9451 40.4012 18.0114 41.8128 18.0114C43.2275 18.0114 44.3807 16.9451 44.3807 15.5011C44.3807 14.0452 43.2275 12.9901 41.8128 12.9901ZM41.8128 17.0226C41.0383 17.0226 40.3719 16.3947 40.3719 15.5011C40.3719 14.5957 41.0383 13.9788 41.8128 13.9788C42.5874 13.9788 43.2568 14.5957 43.2568 15.5011C43.2568 16.3947 42.5874 17.0226 41.8128 17.0226ZM36.2166 12.9901C34.802 12.9901 33.6518 14.0452 33.6518 15.5011C33.6518 16.9451 34.802 18.0114 36.2166 18.0114C37.6305 18.0114 38.7815 16.9451 38.7815 15.5011C38.7815 14.0452 37.6305 12.9901 36.2166 12.9901ZM36.2166 17.0226C35.4413 17.0226 34.7727 16.3947 34.7727 15.5011C34.7727 14.5957 35.4413 13.9788 36.2166 13.9788C36.9912 13.9788 37.6576 14.5957 37.6576 15.5011C37.6576 16.3947 36.9912 17.0226 36.2166 17.0226ZM29.5574 13.7597V14.8267H32.1515C32.0756 15.4229 31.8728 15.8612 31.5618 16.1667C31.1831 16.5356 30.5934 16.9451 29.5574 16.9451C27.9609 16.9451 26.7108 15.6797 26.7108 14.1116C26.7108 12.5436 27.9609 11.2782 29.5574 11.2782C30.4206 11.2782 31.0486 11.6095 31.5122 12.0389L32.2777 11.287C31.6294 10.679 30.7669 10.2119 29.5574 10.2119C27.3682 10.2119 25.5283 11.9614 25.5283 14.1116C25.5283 16.2618 27.3682 18.0114 29.5574 18.0114C30.7406 18.0114 31.6294 17.6306 32.3281 16.9164C33.044 16.2131 33.2671 15.2244 33.2671 14.426C33.2671 14.1781 33.2461 13.95 33.2085 13.7597H29.5574ZM56.7879 14.5868C56.5768 14.0253 55.9254 12.9901 54.5987 12.9901C53.2839 12.9901 52.1893 14.0076 52.1893 15.5011C52.1893 16.9075 53.2727 18.0114 54.7249 18.0114C55.8991 18.0114 56.5768 17.3082 56.8555 16.8986L55.984 16.3283C55.6933 16.7459 55.2973 17.0226 54.7249 17.0226C54.1562 17.0226 53.7482 16.7666 53.4868 16.2618L56.9058 14.8724L56.7879 14.5868ZM53.302 15.4229C53.2727 14.4548 54.0675 13.9589 54.637 13.9589C55.0832 13.9589 55.4619 14.1781 55.5881 14.4917L53.302 15.4229ZM50.523 17.8586H51.6469V10.4798H50.523V17.8586ZM48.6824 13.5494H48.6449C48.3924 13.2557 47.9109 12.9901 47.3008 12.9901C46.0207 12.9901 44.8502 14.0939 44.8502 15.5092C44.8502 16.9164 46.0207 18.0114 47.3008 18.0114C47.9109 18.0114 48.3924 17.7435 48.6449 17.441H48.6824V17.8011C48.6824 18.7611 48.1603 19.2769 47.3181 19.2769C46.6315 19.2769 46.2055 18.7899 46.0297 18.3803L45.0523 18.781C45.334 19.4466 46.08 20.2656 47.3181 20.2656C48.6358 20.2656 49.7477 19.5041 49.7477 17.6513V13.1428H48.6824V13.5494ZM47.397 17.0226C46.6224 17.0226 45.9741 16.3858 45.9741 15.5092C45.9741 14.6245 46.6224 13.9788 47.397 13.9788C48.1603 13.9788 48.7621 14.6245 48.7621 15.5092C48.7621 16.3858 48.1603 17.0226 47.397 17.0226ZM62.0497 10.4798H59.3617V17.8586H60.4826V15.0628H62.0497C63.2946 15.0628 64.5154 14.1781 64.5154 12.7709C64.5154 11.3645 63.2916 10.4798 62.0497 10.4798ZM62.079 14.0364H60.4826V11.5062H62.079C62.916 11.5062 63.3938 12.1887 63.3938 12.7709C63.3938 13.342 62.916 14.0364 62.079 14.0364ZM69.008 12.976C68.1981 12.976 67.356 13.3273 67.0096 14.1057L68.0043 14.5153C68.2184 14.1057 68.6121 13.9729 69.0283 13.9729C69.6098 13.9729 70.1995 14.316 70.2085 14.9218V14.9993C70.0057 14.8842 69.5715 14.7138 69.0373 14.7138C67.966 14.7138 66.8744 15.293 66.8744 16.374C66.8744 17.3628 67.7519 17.9996 68.7383 17.9996C69.4926 17.9996 69.9088 17.6653 70.1702 17.2764H70.2085V17.8468H71.2911V15.0163C71.2911 13.708 70.2964 12.976 69.008 12.976ZM68.8728 17.0197C68.5062 17.0197 67.9953 16.8411 67.9953 16.3947C67.9953 15.8235 68.6324 15.6044 69.1838 15.6044C69.6774 15.6044 69.9088 15.7114 70.2085 15.8523C70.1206 16.5356 69.5219 17.0197 68.8728 17.0197ZM75.2353 13.1376L73.9468 16.3364H73.9085L72.5765 13.1376H71.3677L73.3691 17.6078L72.2272 20.0952H73.3984L76.4824 13.1376H75.2353ZM65.1315 17.8586H66.2553V10.4798H65.1315V17.8586Z" fill="white"/>
<path d="M7.13517 4.60262C6.95862 4.78414 6.85645 5.06675 6.85645 5.43274V18.4875C6.85645 18.8534 6.95862 19.1361 7.13517 19.3176L7.17874 19.3574L14.6268 12.045V11.8723L7.17874 4.55982L7.13517 4.60262Z" fill="url(#paint0_linear_1469_19918)"/>
<path d="M17.1059 14.4844L14.626 12.0457V11.873L17.1089 9.43427L17.1645 9.466L20.105 11.1093C20.9441 11.5756 20.9441 12.343 20.105 12.8123L17.1645 14.4526L17.1059 14.4844Z" fill="url(#paint1_linear_1469_19918)"/>
<path d="M17.165 14.4492L14.6264 11.9559L7.13477 19.3149C7.41349 19.6026 7.868 19.6373 8.38488 19.3496L17.165 14.4492Z" fill="url(#paint2_linear_1469_19918)"/>
<path d="M17.165 9.46371L8.38488 4.5634C7.868 4.27857 7.41349 4.31325 7.13477 4.60103L14.6264 11.957L17.165 9.46371Z" fill="url(#paint3_linear_1469_19918)"/>
<defs>
<linearGradient id="paint0_linear_1469_19918" x1="13.9655" y1="18.6234" x2="4.0603" y2="8.53856" gradientUnits="userSpaceOnUse">
<stop stop-color="#00A0FF"/>
<stop offset="0.0066" stop-color="#00A1FF"/>
<stop offset="0.2601" stop-color="#00BEFF"/>
<stop offset="0.5122" stop-color="#00D2FF"/>
<stop offset="0.7604" stop-color="#00DFFF"/>
<stop offset="1" stop-color="#00E3FF"/>
</linearGradient>
<linearGradient id="paint1_linear_1469_19918" x1="21.1977" y1="11.9585" x2="6.65501" y2="11.9585" gradientUnits="userSpaceOnUse">
<stop stop-color="#FFE000"/>
<stop offset="0.4087" stop-color="#FFBD00"/>
<stop offset="0.7754" stop-color="#FFA500"/>
<stop offset="1" stop-color="#FF9C00"/>
</linearGradient>
<linearGradient id="paint2_linear_1469_19918" x1="15.7846" y1="10.6005" x2="2.35229" y2="-3.07537" gradientUnits="userSpaceOnUse">
<stop stop-color="#FF3A44"/>
<stop offset="1" stop-color="#C31162"/>
</linearGradient>
<linearGradient id="paint3_linear_1469_19918" x1="5.24896" y1="23.6592" x2="11.2471" y2="17.5524" gradientUnits="userSpaceOnUse">
<stop stop-color="#32A071"/>
<stop offset="0.0685" stop-color="#2DA771"/>
<stop offset="0.4762" stop-color="#15CF74"/>
<stop offset="0.8009" stop-color="#06E775"/>
<stop offset="1" stop-color="#00F076"/>
</linearGradient>
</defs>
</svg>
