<svg width="85" height="85" viewBox="0 0 89 86" fill="none" xmlns="http://www.w3.org/2000/svg">
    <rect y="12" width="74" height="74" rx="19" fill="#FF4D77" />
    <path
        d="M55.6271 32.2161L42.7186 27.0055C41.0607 26.3369 39.2778 26 37.5 26C35.7222 26 33.9398 26.3369 32.2814 27.0055L19.3735 32.2161C16.7178 33.291 15 35.7254 15 38.4106V46.1034C15 58.6154 24.516 70.1599 37.1426 72.963C37.2619 72.9898 37.3813 73.0006 37.5 73.0006C37.6187 73.0006 37.7386 72.9898 37.8574 72.963C50.484 70.1599 60 58.6159 60 46.1034V38.4106C60 35.7254 58.2822 33.2916 55.6265 32.2161H55.6271ZM46.9238 65.2378C44.1764 67.3506 40.9737 68.9234 37.5 69.7474C34.0263 68.9234 30.8236 67.3506 28.0762 65.2378V41.8397C28.0762 41.3366 28.493 40.9246 29.0031 40.9246H37.0106C37.4072 40.9246 37.6383 41.3674 37.4072 41.686C36.5523 42.7057 35.4772 43.4386 34.3065 43.8751C34.1664 43.9274 34.2096 44.1329 34.3589 44.1249C36.1407 44.0356 37.8828 43.3157 39.223 42.0064C39.0737 42.3307 38.9296 42.6636 38.7221 42.9646C37.5179 44.7133 35.9315 45.6015 34.2961 46.4614C34.1647 46.5302 34.2379 46.7271 34.3843 46.7009C37.2671 46.1905 40.1355 45.0826 41.877 42.1555C42.0084 41.9347 42.13 41.7111 42.2425 41.4851C42.4119 41.1443 42.7584 40.9241 43.1434 40.9241H45.9963C46.5059 40.9241 46.9232 41.3355 46.9232 41.8391V65.2372L46.9238 65.2378ZM56.7488 46.1029C56.7488 52.1159 54.2557 57.8716 50.1756 62.2743V41.8397C50.1756 39.5607 48.3061 37.7153 45.9974 37.7153H29.0031C26.6944 37.7153 24.825 39.5607 24.825 41.8397V62.2743C20.7443 57.8716 18.2518 52.1159 18.2518 46.1029V38.4106C18.2518 37.0307 19.1729 35.7681 20.6089 35.1905L33.5115 29.9804C36.0479 28.9533 38.9521 28.9533 41.4885 29.9804L54.3911 35.1905C55.8271 35.7681 56.7482 37.0307 56.7482 38.4106V46.1034L56.7488 46.1029ZM31.2426 53.7729V53.3768C31.2426 52.2723 32.1523 51.3744 33.2712 51.3744C34.3901 51.3744 35.2997 52.2723 35.2997 53.3768V53.7729H31.2426ZM39.7009 53.7729V53.3768C39.7009 52.2723 40.6105 51.3744 41.7294 51.3744C42.8483 51.3744 43.7579 52.2723 43.7579 53.3768V53.7729H39.7009ZM37.5 63.0544C35.3423 63.0544 33.364 61.633 32.2076 59.251L32.0698 58.9676H42.9302L42.7924 59.251C41.636 61.6324 39.6577 63.0544 37.4994 63.0544H37.5Z"
        fill="white" />
    <g filter="url(#filter0_d_1573_19767)">
        <circle cx="70.25" cy="16.5" r="13.5" fill="#35D287" />
    </g>
    <path
        d="M77.4064 10.8256C77.3072 10.7224 77.1891 10.6405 77.0591 10.5846C76.929 10.5288 76.7895 10.5 76.6486 10.5C76.5077 10.5 76.3682 10.5288 76.2381 10.5846C76.1081 10.6405 75.99 10.7224 75.8908 10.8256L67.9392 19.0361L64.5985 15.5802C64.4955 15.4776 64.3739 15.3969 64.2406 15.3427C64.1074 15.2886 63.9651 15.262 63.8219 15.2646C63.6786 15.2671 63.5373 15.2987 63.406 15.3576C63.2746 15.4165 63.1558 15.5015 63.0562 15.6077C62.9567 15.7139 62.8785 15.8394 62.826 15.9768C62.7734 16.1142 62.7477 16.2609 62.7502 16.4086C62.7526 16.5563 62.7833 16.702 62.8404 16.8375C62.8975 16.9729 62.9799 17.0955 63.0829 17.1981L67.1814 21.4244C67.2807 21.5276 67.3987 21.6095 67.5288 21.6654C67.6588 21.7212 67.7983 21.75 67.9392 21.75C68.0801 21.75 68.2196 21.7212 68.3497 21.6654C68.4798 21.6095 68.5978 21.5276 68.697 21.4244L77.4064 12.4435C77.5147 12.3404 77.6012 12.2153 77.6603 12.0761C77.7195 11.9369 77.75 11.7865 77.75 11.6345C77.75 11.4825 77.7195 11.3322 77.6603 11.1929C77.6012 11.0537 77.5147 10.9286 77.4064 10.8256Z"
        fill="white" />
    <defs>
        <filter id="filter0_d_1573_19767" x="52.43" y="0.84" width="35.64" height="35.64" filterUnits="userSpaceOnUse"
            color-interpolation-filters="sRGB">
            <feFlood flood-opacity="0" result="BackgroundImageFix" />
            <feColorMatrix in="SourceAlpha" type="matrix" values="0 0 0 0 0 0 0 0 0 0 0 0 0 0 0 0 0 0 127 0"
                result="hardAlpha" />
            <feOffset dy="2.16" />
            <feGaussianBlur stdDeviation="2.16" />
            <feComposite in2="hardAlpha" operator="out" />
            <feColorMatrix type="matrix" values="0 0 0 0 0 0 0 0 0 0 0 0 0 0 0 0 0 0 0.1 0" />
            <feBlend mode="normal" in2="BackgroundImageFix" result="effect1_dropShadow_1573_19767" />
            <feBlend mode="normal" in="SourceGraphic" in2="effect1_dropShadow_1573_19767" result="shape" />
        </filter>
    </defs>
</svg>