<svg width="51" height="51" viewBox="0 0 74 73" fill="none" xmlns="http://www.w3.org/2000/svg">
    <g clip-path="url(#clip0_1063_17858)">
        <mask id="mask0_1063_17858" style="mask-type:luminance" maskUnits="userSpaceOnUse" x="0" y="0" width="74"
            height="74">
            <path
                d="M21.8684 0H51.2292C58.8435 0 61.5847 0.79189 64.3868 2.25384C67.1279 3.71579 69.3818 5.96963 70.8437 8.71079C72.3057 11.5129 73.0976 14.254 73.0976 21.8684V51.2292C73.0976 58.8435 72.3057 61.5847 70.8437 64.3868C69.3818 67.1279 67.1279 69.3818 64.3868 70.8437C61.5847 72.3057 58.8435 73.0976 51.2292 73.0976H21.8684C14.254 73.0976 11.5129 72.3057 8.71079 70.8437C5.96963 69.3818 3.71579 67.1279 2.25384 64.3868C0.79189 61.5847 0 58.8435 0 51.2292V21.8684C0 14.254 0.79189 11.5129 2.25384 8.71079C3.71579 5.96963 5.96963 3.71579 8.71079 2.25384C11.5129 0.79189 14.254 0 21.8684 0Z"
                fill="white" />
        </mask>

        <g mask="url(#mask0_1063_17858)">
            <path d="M74 0H0V74H74V0Z" fill="#FA7716" />
        </g>
        <g>
            <path
                d="M57.9687 15.5497L42.7299 9.32324C38.7519 7.72038 34.3455 7.72038 30.3675 9.32324L15.1287 15.5497C12.0688 16.7827 9.98796 19.7418 9.92676 23.0709V34.2909C9.92676 49.3948 21.1875 63.2657 36.1203 66.6563L36.5487 66.7796L36.9771 66.6563C51.9099 63.2657 63.1707 49.3331 63.1707 34.2909V23.0709C63.0483 19.7418 61.0287 16.7827 57.9687 15.5497Z"
                fill="white" />
            <path
                d="M61.3659 22.8226V33.8841C61.3659 47.818 50.9407 60.8962 37 64.0741V9.92773C38.8183 9.92773 40.6973 10.2944 42.3944 10.9667L57.4867 17.2002C59.79 18.1169 61.3052 20.317 61.3659 22.8226Z"
                fill="#FA7716" />
        </g>
        <path
            d="M57.7429 28.783C57.4335 24.6534 54.0923 21.3867 49.9468 21.2018H49.5756C47.41 21.2018 45.3681 22.0647 43.8213 23.544C43.3263 23.3591 42.7694 23.1742 42.2126 23.0509C42.0888 22.5578 41.9032 21.8182 41.7794 21.3867C41.5319 20.2773 40.4182 19.6609 39.3664 19.9075C38.7476 20.0307 38.2526 20.4622 38.0051 21.0169C37.6958 20.832 37.3245 20.7087 36.9533 20.7087C36.3345 20.7087 35.7777 20.9553 35.4064 21.4484C35.2827 21.5716 35.2208 21.7566 35.1589 21.9415L34.7877 21.8182C34.6021 21.7566 34.4783 21.7566 34.2927 21.7566C33.5502 21.7566 32.8696 22.188 32.5602 22.866C32.5602 22.9276 32.4983 22.9893 32.4983 23.0509C32.0034 23.1742 31.5084 23.3591 31.0134 23.544C29.4665 22.0031 27.4247 21.2018 25.2591 21.2018H24.9497C20.4329 21.3867 16.968 25.1465 17.1536 29.6459C17.2155 31.495 17.958 33.2825 19.1954 34.7001C18.3292 36.6724 17.8961 38.768 17.8342 40.8637C17.8342 43.8222 20.0617 47.2122 23.7122 49.8009C31.9415 55.5946 42.955 55.5946 51.1843 49.8009C54.8967 47.1505 57.0623 43.8222 57.0623 40.8637C57.0623 38.768 56.5673 36.6724 55.7011 34.7001C57.1242 33.0359 57.8667 30.9403 57.7429 28.783Z"
            fill="#FA7716" stroke="black" stroke-width="2" />

        <g mask="url(#mask1_1063_18038)">
            <path
                d="M16.795 37.7606C17.2357 37.9386 17.6765 37.9386 18.1172 37.8199L19.2504 37.5827C20.8244 37.2267 22.3984 37.1081 23.9724 37.2267C24.7908 37.2861 25.6093 37.3454 26.4278 37.464C26.7426 37.5233 26.9944 37.2861 27.0574 37.0488C27.1203 36.8115 26.9944 36.6336 26.7426 36.5149C25.1056 35.7438 23.3428 35.2692 21.517 35.2099C20.3207 35.1506 19.1875 35.2692 18.0542 35.6251C17.4246 35.7438 16.921 36.0997 16.4802 36.5149C16.1654 36.8115 16.1654 37.2861 16.4802 37.642C16.5432 37.642 16.6691 37.7013 16.795 37.7606Z"
                fill="black" />
            <path
                d="M16.0088 43.2287C16.4479 43.3551 16.8871 43.3551 17.3262 43.1655L18.4553 42.7863C19.9608 42.2176 21.5918 41.7752 23.16 41.5224C23.9755 41.396 24.791 41.3328 25.6065 41.2696C25.9201 41.2696 26.1711 41.0168 26.1711 40.7009C26.1711 40.4481 25.9829 40.2585 25.7947 40.1953C24.0383 39.6897 22.1564 39.5633 20.3372 39.8793C19.2081 40.0057 18.0789 40.3217 17.0125 40.764C16.4479 40.9536 15.9461 41.3328 15.5697 41.8384C15.2561 42.1544 15.2561 42.7231 15.6325 43.0391C15.7579 43.1655 15.8834 43.2287 16.0088 43.2287Z"
                fill="black" />
            <path
                d="M17.8197 47.8133C18.2482 47.8725 18.6766 47.7541 19.0439 47.5767C19.3499 47.3992 19.7171 47.2217 20.0231 46.985C20.6964 46.5709 21.3084 46.1567 21.9205 45.7426C23.2058 44.9143 24.5523 44.1452 25.8989 43.3761C26.1437 43.1986 26.2661 42.9028 26.0825 42.6661C25.9601 42.4886 25.7152 42.3703 25.5316 42.4295C23.9403 42.7253 22.3489 43.2577 20.88 43.9677C19.7171 44.441 18.6766 45.0918 17.7585 45.9201C17.3913 46.2159 17.1465 46.63 17.1465 47.1033C17.1465 47.4583 17.3913 47.8133 17.8197 47.8133Z"
                fill="black" />
            <path
                d="M58.1085 37.7606C57.6677 37.9386 57.227 37.9386 56.7863 37.8199L55.653 37.5827C54.0791 37.2267 52.5051 37.1081 50.9311 37.2267C50.1127 37.2861 49.2942 37.3454 48.4757 37.464C48.1609 37.5233 47.9091 37.2861 47.8461 37.0488C47.7832 36.8115 47.9091 36.6336 48.1609 36.5149C49.7979 35.7438 51.5607 35.2692 53.3865 35.2099C54.5827 35.1506 55.716 35.2692 56.8493 35.6251C57.4789 35.7438 57.9825 36.0997 58.4233 36.5149C58.738 36.8115 58.738 37.2861 58.4233 37.642C58.2973 37.642 58.2344 37.7013 58.1085 37.7606Z"
                fill="black" />
            <path
                d="M57.9923 43.2287C57.5532 43.3551 57.1141 43.3551 56.675 43.1655L55.5458 42.7863C54.0403 42.2176 52.4094 41.7752 50.8411 41.5224C50.0256 41.396 49.2101 41.3328 48.3946 41.2696C48.081 41.2696 47.8301 41.0168 47.8301 40.7009C47.8301 40.4481 48.0183 40.2585 48.2065 40.1953C49.9629 39.6897 51.8448 39.5633 53.664 39.8793C54.7931 40.0057 55.9222 40.3217 56.9886 40.764C57.5532 40.9536 58.055 41.3328 58.4314 41.8384C58.7451 42.1544 58.7451 42.7231 58.3687 43.0391C58.2432 43.1655 58.1178 43.2287 57.9923 43.2287Z"
                fill="black" />
            <path
                d="M56.174 47.8133C55.7459 47.8725 55.3179 47.7541 54.9509 47.5767C54.6452 47.3992 54.2783 47.2217 53.9725 46.985C53.361 46.5709 52.7495 46.1567 52.0768 45.7426C50.7926 44.9143 49.4472 44.1452 48.1019 43.3761C47.8573 43.1986 47.735 42.9028 47.9184 42.6661C48.0407 42.4886 48.2853 42.3703 48.4688 42.4295C50.0587 42.7253 51.6487 43.2577 53.1164 43.9677C54.2783 44.441 55.3179 45.0918 56.2352 45.9201C56.6021 46.2159 56.8467 46.63 56.8467 47.1033C56.9078 47.4583 56.6021 47.8133 56.174 47.8133Z"
                fill="black" />
            <path
                d="M36.9999 55.0483C41.4855 55.0483 45.1218 52.018 45.1218 48.28C45.1218 44.542 41.4855 41.5117 36.9999 41.5117C32.5143 41.5117 28.8779 44.542 28.8779 48.28C28.8779 52.018 32.5143 55.0483 36.9999 55.0483Z"
                fill="white" />
        </g>

        <mask id="mask1_1063_18038" style="mask-type:luminance" maskUnits="userSpaceOnUse" x="13" y="15" width="74"
            height="73">
            <path
                d="M57.7429 28.783C57.4335 24.6534 54.0923 21.3867 49.9468 21.2018H49.5756C47.41 21.2018 45.3681 22.0647 43.8213 23.544C43.3263 23.3591 42.7694 23.1742 42.2126 23.0509C42.0888 22.5578 41.9032 21.8182 41.7794 21.3867C41.5319 20.2773 40.4182 19.6609 39.3664 19.9075C38.7476 20.0307 38.2526 20.4622 38.0051 21.0169C37.6958 20.832 37.3245 20.7087 36.9533 20.7087C36.3345 20.7087 35.7777 20.9553 35.4064 21.4484C35.2827 21.5716 35.2208 21.7566 35.1589 21.9415L34.7877 21.8182C34.6021 21.7566 34.4783 21.7566 34.2927 21.7566C33.5502 21.7566 32.8696 22.188 32.5602 22.866C32.5602 22.9276 32.4983 22.9893 32.4983 23.0509C32.0034 23.1742 31.5084 23.3591 31.0134 23.544C29.4665 22.0031 27.4247 21.2018 25.2591 21.2018H24.9497C20.4329 21.3867 16.968 25.1465 17.1536 29.6459C17.2155 31.495 17.958 33.2825 19.1954 34.7001C18.3292 36.6724 17.8961 38.768 17.8342 40.8637C17.8342 43.8222 20.0617 47.2122 23.7122 49.8009C31.9415 55.5946 42.955 55.5946 51.1843 49.8009C54.8967 47.1505 57.0623 43.8222 57.0623 40.8637C57.0623 38.768 56.5673 36.6724 55.7011 34.7001C57.1242 33.0359 57.8667 30.9403 57.7429 28.783Z"
                fill="#FFFFFF" stroke="black" stroke-width="2" />
        </mask>
        <path
            d="M42.1373 46.506C41.8872 46.3102 41.512 46.4408 41.387 46.7019C40.8867 47.2895 40.1364 47.5506 39.386 47.4853C38.8233 47.42 38.2605 47.0936 37.8853 46.6366C37.6352 46.2449 37.5102 45.7879 37.5102 45.3309C38.4481 45.0045 39.3235 44.5475 40.0739 43.9599C40.8867 43.2418 40.9493 42.1319 39.8863 41.8055C37.9479 41.4138 35.947 41.4138 34.0086 41.8055C32.8831 42.1319 33.0081 43.2418 33.821 43.9599C34.6339 44.5475 35.5093 45.0045 36.3847 45.3309C36.3847 46.1143 36.0095 46.8325 35.3217 47.2242C35.0716 47.3548 34.8214 47.42 34.5713 47.4853C33.821 47.6159 33.0706 47.2895 32.5704 46.7672C32.3828 46.506 32.0702 46.4408 31.8201 46.6366C31.5699 46.8325 31.5074 47.1589 31.695 47.42C32.3203 48.2687 33.3208 48.791 34.3837 48.7257H34.7589C35.6343 48.5952 36.4472 48.1382 37.0099 47.3548C37.5727 48.1382 38.3856 48.5952 39.261 48.7257H39.6362C40.6991 48.791 41.6996 48.2687 42.3249 47.42C42.5125 47.0283 42.3874 46.7019 42.1373 46.506Z"
            fill="black" />
        <path
            d="M44.0604 38.805C43.8274 38.3755 43.4196 38.0687 43.0118 37.946C42.3127 37.7006 41.6136 37.7006 40.9145 37.946C40.4484 38.1301 40.0989 38.4368 39.8658 38.805C39.5746 38.1914 39.6911 37.3938 40.1571 36.903C40.6232 36.3508 41.264 36.044 41.9631 36.1054C42.6622 36.1054 43.3031 36.4122 43.7691 36.903C44.2352 37.3938 44.3517 38.1914 44.0604 38.805Z"
            fill="black" />
        <path
            d="M34.1138 38.805C33.8849 38.3755 33.4843 38.0687 33.0265 37.946C32.6832 37.8233 32.3398 37.762 31.9964 37.762C31.6531 37.762 31.3097 37.8233 30.9664 37.946C30.5085 38.1301 30.1652 38.4368 29.9363 38.805C29.6501 38.1914 29.7646 37.3938 30.2224 36.903C30.6802 36.3508 31.3097 36.044 31.9964 36.1054C32.6832 36.1054 33.3127 36.4122 33.7705 36.903C34.2855 37.3938 34.4572 38.1914 34.1138 38.805Z"
            fill="black" />
        <path
            d="M27.0729 26.4615C25.0068 27.8063 23.191 29.5354 21.751 31.5847C20.3735 30.1117 20.4362 27.7423 21.8762 26.3334C23.3789 24.8605 25.6955 24.9245 27.0729 26.4615Z"
            fill="white" />
        <path
            d="M53.2438 29.8948C53.2438 30.8669 52.8686 31.7741 52.2431 32.487C51.6177 31.5797 50.8671 30.802 50.1166 30.0244C49.1158 29.0523 48.0526 28.2098 46.9268 27.4321C48.2402 25.8768 50.5544 25.7472 52.0555 27.1081C52.7435 27.821 53.2438 28.7931 53.2438 29.8948Z"
            fill="white" />
        <path
            d="M37.141 31.2791L32.6158 29.7812C32.552 29.7812 32.4883 29.7812 32.4883 29.8412C32.4883 29.9011 32.4883 29.9011 32.4883 29.961L37.0135 33.2562C37.2685 33.4359 37.5871 33.4359 37.8421 33.2562L42.3673 29.961C42.431 29.9011 42.431 29.9011 42.3673 29.8412C42.3673 29.7812 42.3036 29.7812 42.2398 29.8412L37.7146 31.339C37.5234 31.339 37.3322 31.339 37.141 31.2791Z"
            fill="black" />
        <path
            d="M37.1954 28.1887L33.4812 27.0723C33.4172 27.0723 33.3531 27.1281 33.4172 27.1839L37.1314 29.6959C37.3235 29.8075 37.5797 29.8075 37.7718 29.6959L41.486 27.1839C41.5501 27.1281 41.4861 27.0723 41.422 27.0723L37.7078 28.1887C37.5156 28.2445 37.3235 28.2445 37.1954 28.1887Z"
            fill="black" />
    </g>
</svg>